Uncut Sans-Regular Italic.ufo
<glyph name="exclam" format="2">
	<advance width="315"/>
	<unicode hex="0021"/>
	<outline>
		<contour>
			<point x="70" y="166" type="line"/>
			<point x="128" y="166" type="line"/>
			<point x="302" y="700" type="line"/>
			<point x="224" y="700" type="line"/>
		</contour>
		<contour>
			<point x="22" y="0" type="line"/>
			<point x="112" y="0" type="line"/>
			<point x="129" y="90" type="line"/>
			<point x="39" y="90" type="line"/>
		</contour>
	</outline>
</glyph>
<glyph name="numbersign" format="2">
	<advance width="712"/>
	<unicode hex="0023"/>
	<outline>
		<contour>
			<point x="271" y="0" type="line"/>
			<point x="344" y="0" type="line"/>
			<point x="697" y="716" type="line"/>
			<point x="624" y="716" type="line"/>
		</contour>
		<contour>
			<point x="7" y="182" type="line"/>
			<point x="578" y="182" type="line"/>
			<point x="592" y="250" type="line"/>
			<point x="21" y="250" type="line"/>
		</contour>
		<contour>
			<point x="16" y="0" type="line"/>
			<point x="89" y="0" type="line"/>
			<point x="442" y="716" type="line"/>
			<point x="369" y="716" type="line"/>
		</contour>
		<contour>
			<point x="116" y="432" type="line"/>
			<point x="687" y="432" type="line"/>
			<point x="700" y="500" type="line"/>
			<point x="129" y="500" type="line"/>
		</contour>
	</outline>
</glyph>
<glyph name="dollar" format="2">
	<advance width="589"/>
	<unicode hex="0024"/>
	<outline>
		<contour>
			<point x="282" y="-16" type="curve" smooth="yes"/>
			<point x="402" y="-16"/>
			<point x="503" y="62"/>
			<point x="503" y="191" type="curve" smooth="yes"/>
			<point x="503" y="411"/>
			<point x="201" y="399"/>
			<point x="201" y="538" type="curve" smooth="yes"/>
			<point x="201" y="598"/>
			<point x="246" y="643"/>
			<point x="336" y="643" type="curve" smooth="yes"/>
			<point x="426" y="643"/>
			<point x="464" y="568"/>
			<point x="464" y="498" type="curve"/>
			<point x="544" y="508" type="line"/>
			<point x="544" y="618"/>
			<point x="466" y="716"/>
			<point x="336" y="716" type="curve" smooth="yes"/>
			<point x="196" y="716"/>
			<point x="123" y="628"/>
			<point x="123" y="538" type="curve" smooth="yes"/>
			<point x="123" y="339"/>
			<point x="426" y="361"/>
			<point x="426" y="191" type="curve" smooth="yes"/>
			<point x="426" y="111"/>
			<point x="362" y="57"/>
			<point x="282" y="57" type="curve" smooth="yes"/>
			<point x="152" y="57"/>
			<point x="108" y="176"/>
			<point x="108" y="276" type="curve"/>
			<point x="28" y="266" type="line"/>
			<point x="28" y="156"/>
			<point x="82" y="-16"/>
		</contour>
		<contour>
			<point x="175" y="-116" type="line"/>
			<point x="238" y="-116" type="line"/>
			<point x="416" y="800" type="line"/>
			<point x="353" y="800" type="line"/>
		</contour>
	</outline>
</glyph>
<glyph name="percent" format="2">
	<advance width="825"/>
	<unicode hex="0025"/>
	<outline>
		<contour>
			<point x="44" y="0" type="line"/>
			<point x="130" y="0" type="line"/>
			<point x="793" y="716" type="line"/>
			<point x="707" y="716" type="line"/>
		</contour>
		<contour>
			<point x="234" y="376" type="curve" smooth="yes"/>
			<point x="328" y="376"/>
			<point x="411" y="452"/>
			<point x="419" y="546" type="curve" smooth="yes"/>
			<point x="427" y="640"/>
			<point x="358" y="716"/>
			<point x="264" y="716" type="curve" smooth="yes"/>
			<point x="170" y="716"/>
			<point x="87" y="640"/>
			<point x="79" y="546" type="curve" smooth="yes"/>
			<point x="71" y="452"/>
			<point x="140" y="376"/>
		</contour>
		<contour>
			<point x="241" y="449" type="curve" smooth="yes"/>
			<point x="187" y="449"/>
			<point x="147" y="492"/>
			<point x="152" y="546" type="curve" smooth="yes"/>
			<point x="157" y="600"/>
			<point x="204" y="643"/>
			<point x="258" y="643" type="curve" smooth="yes"/>
			<point x="312" y="643"/>
			<point x="351" y="600"/>
			<point x="346" y="546" type="curve" smooth="yes"/>
			<point x="341" y="492"/>
			<point x="295" y="449"/>
		</contour>
		<contour>
			<point x="560" y="-16" type="curve" smooth="yes"/>
			<point x="654" y="-16"/>
			<point x="737" y="60"/>
			<point x="745" y="154" type="curve" smooth="yes"/>
			<point x="753" y="248"/>
			<point x="684" y="324"/>
			<point x="590" y="324" type="curve" smooth="yes"/>
			<point x="496" y="324"/>
			<point x="413" y="248"/>
			<point x="405" y="154" type="curve" smooth="yes"/>
			<point x="397" y="60"/>
			<point x="466" y="-16"/>
		</contour>
		<contour>
			<point x="566" y="57" type="curve" smooth="yes"/>
			<point x="512" y="57"/>
			<point x="473" y="100"/>
			<point x="478" y="154" type="curve" smooth="yes"/>
			<point x="483" y="208"/>
			<point x="529" y="251"/>
			<point x="583" y="251" type="curve" smooth="yes"/>
			<point x="637" y="251"/>
			<point x="677" y="208"/>
			<point x="672" y="154" type="curve" smooth="yes"/>
			<point x="667" y="100"/>
			<point x="620" y="57"/>
		</contour>
	</outline>
</glyph>
<glyph name="ampersand" format="2">
	<advance width="659"/>
	<unicode hex="0026"/>
	<outline>
		<contour>
			<point x="229" y="-16" type="curve" smooth="yes"/>
			<point x="429" y="-16"/>
			<point x="551" y="197"/>
			<point x="582" y="374" type="curve"/>
			<point x="504" y="374" type="line"/>
			<point x="480" y="236"/>
			<point x="389" y="57"/>
			<point x="229" y="57" type="curve" smooth="yes"/>
			<point x="139" y="57"/>
			<point x="91" y="108"/>
			<point x="107" y="188" type="curve" smooth="yes"/>
			<point x="143" y="375"/>
			<point x="496" y="352"/>
			<point x="535" y="552" type="curve" smooth="yes"/>
			<point x="552" y="640"/>
			<point x="469" y="716"/>
			<point x="359" y="716" type="curve" smooth="yes"/>
			<point x="269" y="716"/>
			<point x="188" y="660"/>
			<point x="167" y="552" type="curve" smooth="yes"/>
			<point x="152" y="473"/>
			<point x="196" y="400"/>
			<point x="226" y="360" type="curve" smooth="yes"/>
			<point x="493" y="0" type="line"/>
			<point x="580" y="0" type="line"/>
			<point x="314" y="360" type="line" smooth="yes"/>
			<point x="272" y="416"/>
			<point x="230" y="472"/>
			<point x="245" y="552" type="curve" smooth="yes"/>
			<point x="257" y="611"/>
			<point x="299" y="643"/>
			<point x="359" y="643" type="curve" smooth="yes"/>
			<point x="409" y="643"/>
			<point x="469" y="611"/>
			<point x="457" y="552" type="curve" smooth="yes"/>
			<point x="431" y="415"/>
			<point x="72" y="414"/>
			<point x="28" y="188" type="curve" smooth="yes"/>
			<point x="6" y="70"/>
			<point x="89" y="-16"/>
		</contour>
	</outline>
</glyph>
<glyph name="quotesingle" format="2">
	<advance width="263"/>
	<unicode hex="0027"/>
	<outline>
		<contour>
			<point x="131" y="489" type="line"/>
			<point x="184" y="489" type="line"/>
			<point x="242" y="709" type="line"/>
			<point x="159" y="709" type="line"/>
		</contour>
	</outline>
</glyph>
<glyph name="parenleft" format="2">
	<advance width="335"/>
	<unicode hex="0028"/>
	<outline>
		<contour>
			<point x="147" y="-110" type="curve"/>
			<point x="225" y="-110" type="line"/>
			<point x="189" y="-60"/>
			<point x="104" y="77"/>
			<point x="148" y="303" type="curve" smooth="yes"/>
			<point x="186" y="499"/>
			<point x="330" y="666"/>
			<point x="385" y="716" type="curve"/>
			<point x="307" y="716" type="line"/>
			<point x="252" y="666"/>
			<point x="116" y="539"/>
			<point x="70" y="303" type="curve" smooth="yes"/>
			<point x="32" y="107"/>
			<point x="111" y="-60"/>
		</contour>
	</outline>
</glyph>
<glyph name="parenright" format="2">
	<advance width="336"/>
	<unicode hex="0029"/>
	<outline>
		<contour>
			<point x="-69" y="-110" type="curve"/>
			<point x="9" y="-110" type="line"/>
			<point x="64" y="-60"/>
			<point x="200" y="67"/>
			<point x="246" y="303" type="curve" smooth="yes"/>
			<point x="284" y="499"/>
			<point x="205" y="666"/>
			<point x="169" y="716" type="curve"/>
			<point x="91" y="716" type="line"/>
			<point x="127" y="666"/>
			<point x="212" y="529"/>
			<point x="168" y="303" type="curve" smooth="yes"/>
			<point x="130" y="107"/>
			<point x="-14" y="-60"/>
		</contour>
	</outline>
</glyph>
<glyph name="asterisk" format="2">
	<advance width="521"/>
	<unicode hex="002A"/>
	<outline>
		<contour>
			<point x="367" y="371" type="line"/>
			<point x="418" y="414" type="line"/>
			<point x="297" y="537" type="line"/>
			<point x="202" y="682" type="line"/>
			<point x="150" y="640" type="line"/>
			<point x="271" y="516" type="line"/>
		</contour>
		<contour>
			<point x="142" y="371" type="line"/>
			<point x="293" y="516" type="line"/>
			<point x="462" y="640" type="line"/>
			<point x="429" y="682" type="line"/>
			<point x="276" y="537" type="line"/>
			<point x="107" y="413" type="line"/>
		</contour>
		<contour>
			<point x="217" y="336" type="line"/>
			<point x="277" y="336" type="line"/>
			<point x="299" y="526" type="line"/>
			<point x="351" y="716" type="line"/>
			<point x="291" y="716" type="line"/>
			<point x="269" y="526" type="line"/>
		</contour>
		<contour>
			<point x="88" y="496" type="line"/>
			<point x="281" y="511" type="line"/>
			<point x="468" y="496" type="line"/>
			<point x="480" y="556" type="line"/>
			<point x="287" y="540" type="line"/>
			<point x="100" y="555" type="line"/>
		</contour>
	</outline>
</glyph>
<glyph name="plus" format="2">
	<advance width="600"/>
	<unicode hex="002B"/>
	<outline>
		<contour>
			<point x="210" y="77" type="line"/>
			<point x="283" y="77" type="line"/>
			<point x="368" y="516" type="line"/>
			<point x="295" y="516" type="line"/>
		</contour>
		<contour>
			<point x="62" y="259" type="line"/>
			<point x="501" y="259" type="line"/>
			<point x="516" y="332" type="line"/>
			<point x="77" y="332" type="line"/>
		</contour>
	</outline>
</glyph>
<glyph name="comma" format="2">
	<advance width="241"/>
	<unicode hex="002C"/>
	<outline>
		<contour>
			<point x="-40" y="-138" type="line"/>
			<point x="34" y="-138"/>
			<point x="88" y="-98"/>
			<point x="107" y="0" type="curve"/>
			<point x="55" y="0" type="line"/>
			<point x="43" y="-60"/>
			<point x="23" y="-95"/>
			<point x="-31" y="-95" type="curve"/>
		</contour>
		<contour>
			<point x="7" y="0" type="line"/>
			<point x="107" y="0" type="line"/>
			<point x="126" y="100" type="line"/>
			<point x="26" y="100" type="line"/>
		</contour>
	</outline>
</glyph>
<glyph name="hyphen" format="2">
	<advance width="496"/>
	<unicode hex="002D"/>
	<outline>
		<contour>
			<point x="62" y="259" type="line"/>
			<point x="397" y="259" type="line"/>
			<point x="412" y="332" type="line"/>
			<point x="77" y="332" type="line"/>
		</contour>
	</outline>
</glyph>
<glyph name="period" format="2">
	<advance width="231"/>
	<unicode hex="002E"/>
	<outline>
		<contour>
			<point x="-3" y="0" type="line"/>
			<point x="97" y="0" type="line"/>
			<point x="116" y="100" type="line"/>
			<point x="16" y="100" type="line"/>
		</contour>
	</outline>
</glyph>
<glyph name="slash" format="2">
	<advance width="491"/>
	<unicode hex="002F"/>
	<outline>
		<contour>
			<point x="-40" y="-110" type="line"/>
			<point x="38" y="-110" type="line"/>
			<point x="512" y="716" type="line"/>
			<point x="434" y="716" type="line"/>
		</contour>
	</outline>
</glyph>
<glyph name="zero" format="2">
	<advance width="666"/>
	<unicode hex="0030"/>
	<outline>
		<contour>
			<point x="275" y="-16" type="curve" smooth="yes"/>
			<point x="435" y="-16"/>
			<point x="561" y="124"/>
			<point x="605" y="350" type="curve" smooth="yes"/>
			<point x="648" y="570"/>
			<point x="549" y="716"/>
			<point x="389" y="716" type="curve" smooth="yes"/>
			<point x="229" y="716"/>
			<point x="103" y="576"/>
			<point x="59" y="350" type="curve" smooth="yes"/>
			<point x="16" y="130"/>
			<point x="115" y="-16"/>
		</contour>
		<contour>
			<point x="275" y="57" type="curve" smooth="yes"/>
			<point x="145" y="57"/>
			<point x="107" y="193"/>
			<point x="137" y="350" type="curve" smooth="yes"/>
			<point x="166" y="500"/>
			<point x="249" y="643"/>
			<point x="389" y="643" type="curve" smooth="yes"/>
			<point x="519" y="643"/>
			<point x="557" y="507"/>
			<point x="527" y="350" type="curve" smooth="yes"/>
			<point x="498" y="200"/>
			<point x="415" y="57"/>
		</contour>
	</outline>
</glyph>
<glyph name="one" format="2">
	<advance width="549"/>
	<unicode hex="0031"/>
	<outline>
		<contour>
			<point x="200" y="43" type="line"/>
			<point x="278" y="43" type="line"/>
			<point x="406" y="700" type="line"/>
			<point x="328" y="700" type="line"/>
			<point x="301" y="560"/>
			<point x="238" y="500"/>
			<point x="138" y="500" type="curve" smooth="yes"/>
			<point x="109" y="500" type="line"/>
			<point x="95" y="427" type="line"/>
			<point x="124" y="427" type="line" smooth="yes"/>
			<point x="225" y="427"/>
			<point x="292" y="480"/>
			<point x="308" y="560" type="curve"/>
			<point x="301" y="560" type="line"/>
		</contour>
		<contour>
			<point x="12" y="0" type="line"/>
			<point x="450" y="0" type="line"/>
			<point x="464" y="73" type="line"/>
			<point x="26" y="73" type="line"/>
		</contour>
	</outline>
</glyph>
<glyph name="two" format="2">
	<advance width="602"/>
	<unicode hex="0032"/>
	<outline>
		<contour>
			<point x="-7" y="0" type="line"/>
			<point x="473" y="0" type="line"/>
			<point x="487" y="73" type="line"/>
			<point x="78" y="73" type="line"/>
			<point x="105" y="56" type="line"/>
			<point x="251" y="121"/>
			<point x="506" y="254"/>
			<point x="552" y="490" type="curve" smooth="yes"/>
			<point x="579" y="627"/>
			<point x="493" y="716"/>
			<point x="363" y="716" type="curve" smooth="yes"/>
			<point x="223" y="716"/>
			<point x="113" y="628"/>
			<point x="89" y="500" type="curve"/>
			<point x="165" y="490" type="line"/>
			<point x="183" y="580"/>
			<point x="249" y="643"/>
			<point x="349" y="643" type="curve" smooth="yes"/>
			<point x="449" y="643"/>
			<point x="492" y="578"/>
			<point x="475" y="490" type="curve" smooth="yes"/>
			<point x="442" y="323"/>
			<point x="262" y="189"/>
			<point x="7" y="73" type="curve"/>
		</contour>
	</outline>
</glyph>
<glyph name="three" format="2">
	<advance width="613"/>
	<unicode hex="0033"/>
	<outline>
		<contour>
			<point x="230" y="-16" type="curve" smooth="yes"/>
			<point x="380" y="-16"/>
			<point x="499" y="72"/>
			<point x="522" y="192" type="curve" smooth="yes"/>
			<point x="546" y="312"/>
			<point x="471" y="374"/>
			<point x="371" y="374" type="curve"/>
			<point x="357" y="354" type="line"/>
			<point x="457" y="354"/>
			<point x="541" y="421"/>
			<point x="560" y="521" type="curve" smooth="yes"/>
			<point x="580" y="621"/>
			<point x="522" y="716"/>
			<point x="372" y="716" type="curve" smooth="yes"/>
			<point x="222" y="716"/>
			<point x="130" y="629"/>
			<point x="110" y="539" type="curve"/>
			<point x="186" y="529" type="line"/>
			<point x="202" y="597"/>
			<point x="268" y="643"/>
			<point x="358" y="643" type="curve" smooth="yes"/>
			<point x="448" y="643"/>
			<point x="500" y="599"/>
			<point x="484" y="521" type="curve" smooth="yes"/>
			<point x="471" y="451"/>
			<point x="401" y="400"/>
			<point x="301" y="400" type="curve" smooth="yes"/>
			<point x="231" y="400" type="line"/>
			<point x="217" y="327" type="line"/>
			<point x="287" y="327" type="line" smooth="yes"/>
			<point x="387" y="327"/>
			<point x="466" y="300"/>
			<point x="444" y="192" type="curve" smooth="yes"/>
			<point x="427" y="102"/>
			<point x="324" y="57"/>
			<point x="244" y="57" type="curve" smooth="yes"/>
			<point x="164" y="57"/>
			<point x="78" y="98"/>
			<point x="99" y="204" type="curve"/>
			<point x="19" y="194" type="line"/>
			<point x="-5" y="74"/>
			<point x="90" y="-16"/>
		</contour>
	</outline>
</glyph>
<glyph name="four" format="2">
	<advance width="710"/>
	<unicode hex="0034"/>
	<outline>
		<contour>
			<point x="9" y="193" type="line"/>
			<point x="633" y="193" type="line"/>
			<point x="648" y="266" type="line"/>
			<point x="76" y="266" type="line"/>
			<point x="40" y="216" type="line"/>
			<point x="299" y="339"/>
			<point x="348" y="513"/>
			<point x="384" y="700" type="curve"/>
			<point x="306" y="700" type="line"/>
			<point x="273" y="530"/>
			<point x="232" y="385"/>
			<point x="24" y="266" type="curve"/>
		</contour>
		<contour>
			<point x="398" y="0" type="line"/>
			<point x="476" y="0" type="line"/>
			<point x="612" y="700" type="line"/>
			<point x="534" y="700" type="line"/>
		</contour>
	</outline>
</glyph>
<glyph name="five" format="2">
	<advance width="597"/>
	<unicode hex="0035"/>
	<outline>
		<contour>
			<point x="231" y="-16" type="curve" smooth="yes"/>
			<point x="381" y="-16"/>
			<point x="492" y="66"/>
			<point x="524" y="233" type="curve" smooth="yes"/>
			<point x="553" y="383"/>
			<point x="467" y="478"/>
			<point x="337" y="478" type="curve" smooth="yes"/>
			<point x="243" y="478"/>
			<point x="165" y="428"/>
			<point x="145" y="378" type="curve"/>
			<point x="156" y="378" type="line"/>
			<point x="223" y="627" type="line"/>
			<point x="548" y="627" type="line"/>
			<point x="562" y="700" type="line"/>
			<point x="168" y="700" type="line"/>
			<point x="63" y="312" type="line"/>
			<point x="141" y="312" type="line"/>
			<point x="146" y="321"/>
			<point x="203" y="409"/>
			<point x="323" y="409" type="curve" smooth="yes"/>
			<point x="423" y="409"/>
			<point x="466" y="331"/>
			<point x="446" y="233" type="curve" smooth="yes"/>
			<point x="429" y="143"/>
			<point x="355" y="56"/>
			<point x="245" y="56" type="curve" smooth="yes"/>
			<point x="135" y="56"/>
			<point x="91" y="114"/>
			<point x="109" y="204" type="curve"/>
			<point x="29" y="194" type="line"/>
			<point x="5" y="76"/>
			<point x="91" y="-16"/>
		</contour>
	</outline>
</glyph>
<glyph name="six" format="2">
	<advance width="631"/>
	<unicode hex="0036"/>
	<outline>
		<contour>
			<point x="261" y="-16" type="curve" smooth="yes"/>
			<point x="381" y="-16"/>
			<point x="506" y="58"/>
			<point x="539" y="225" type="curve" smooth="yes"/>
			<point x="566" y="362"/>
			<point x="474" y="465"/>
			<point x="344" y="465" type="curve" smooth="yes"/>
			<point x="204" y="465"/>
			<point x="113" y="369"/>
			<point x="97" y="239" type="curve"/>
			<point x="113" y="269" type="line"/>
			<point x="155" y="509"/>
			<point x="239" y="643"/>
			<point x="389" y="643" type="curve" smooth="yes"/>
			<point x="479" y="643"/>
			<point x="509" y="590"/>
			<point x="522" y="519" type="curve"/>
			<point x="605" y="529" type="line"/>
			<point x="595" y="628"/>
			<point x="523" y="716"/>
			<point x="403" y="716" type="curve" smooth="yes"/>
			<point x="243" y="716"/>
			<point x="111" y="618"/>
			<point x="60" y="353" type="curve" smooth="yes"/>
			<point x="18" y="137"/>
			<point x="81" y="-16"/>
		</contour>
		<contour>
			<point x="265" y="57" type="curve" smooth="yes"/>
			<point x="165" y="57"/>
			<point x="115" y="137"/>
			<point x="132" y="225" type="curve" smooth="yes"/>
			<point x="153" y="333"/>
			<point x="230" y="392"/>
			<point x="330" y="392" type="curve" smooth="yes"/>
			<point x="430" y="392"/>
			<point x="480" y="323"/>
			<point x="461" y="225" type="curve" smooth="yes"/>
			<point x="441" y="125"/>
			<point x="375" y="57"/>
		</contour>
	</outline>
</glyph>
<glyph name="seven" format="2">
	<advance width="550"/>
	<unicode hex="0037"/>
	<outline>
		<contour>
			<point x="112" y="0" type="curve"/>
			<point x="190" y="0" type="line"/>
			<point x="247" y="295"/>
			<point x="309" y="488"/>
			<point x="563" y="627" type="curve"/>
			<point x="577" y="700" type="line"/>
			<point x="97" y="700" type="line"/>
			<point x="83" y="627" type="line"/>
			<point x="519" y="627" type="line"/>
			<point x="547" y="681" type="line"/>
			<point x="260" y="563"/>
			<point x="169" y="295"/>
		</contour>
	</outline>
</glyph>
<glyph name="eight" format="2">
	<advance width="618"/>
	<unicode hex="0038"/>
	<outline>
		<contour>
			<point x="238" y="-16" type="curve" smooth="yes"/>
			<point x="398" y="-16"/>
			<point x="512" y="63"/>
			<point x="537" y="193" type="curve" smooth="yes"/>
			<point x="555" y="284"/>
			<point x="493" y="371"/>
			<point x="393" y="371" type="curve"/>
			<point x="391" y="358" type="line"/>
			<point x="471" y="358"/>
			<point x="559" y="436"/>
			<point x="576" y="524" type="curve" smooth="yes"/>
			<point x="596" y="630"/>
			<point x="520" y="716"/>
			<point x="380" y="716" type="curve" smooth="yes"/>
			<point x="230" y="716"/>
			<point x="130" y="630"/>
			<point x="110" y="524" type="curve" smooth="yes"/>
			<point x="96" y="451"/>
			<point x="151" y="358"/>
			<point x="231" y="358" type="curve"/>
			<point x="233" y="371" type="line"/>
			<point x="133" y="373"/>
			<point x="37" y="284"/>
			<point x="19" y="193" type="curve" smooth="yes"/>
			<point x="-6" y="63"/>
			<point x="108" y="-16"/>
		</contour>
		<contour>
			<point x="252" y="57" type="curve" smooth="yes"/>
			<point x="152" y="57"/>
			<point x="80" y="103"/>
			<point x="97" y="193" type="curve" smooth="yes"/>
			<point x="115" y="283"/>
			<point x="205" y="328"/>
			<point x="305" y="328" type="curve" smooth="yes"/>
			<point x="405" y="328"/>
			<point x="477" y="283"/>
			<point x="459" y="193" type="curve" smooth="yes"/>
			<point x="442" y="103"/>
			<point x="352" y="57"/>
		</contour>
		<contour>
			<point x="319" y="401" type="curve" smooth="yes"/>
			<point x="219" y="401"/>
			<point x="174" y="454"/>
			<point x="188" y="524" type="curve" smooth="yes"/>
			<point x="201" y="594"/>
			<point x="266" y="643"/>
			<point x="366" y="643" type="curve" smooth="yes"/>
			<point x="466" y="643"/>
			<point x="511" y="594"/>
			<point x="498" y="524" type="curve" smooth="yes"/>
			<point x="484" y="454"/>
			<point x="419" y="401"/>
		</contour>
	</outline>
</glyph>
<glyph name="nine" format="2">
	<advance width="631"/>
	<unicode hex="0039"/>
	<outline>
		<contour>
			<point x="227" y="-15" type="curve" smooth="yes"/>
			<point x="387" y="-15"/>
			<point x="519" y="83"/>
			<point x="570" y="348" type="curve" smooth="yes"/>
			<point x="612" y="564"/>
			<point x="549" y="717"/>
			<point x="369" y="717" type="curve" smooth="yes"/>
			<point x="249" y="717"/>
			<point x="124" y="643"/>
			<point x="91" y="476" type="curve" smooth="yes"/>
			<point x="64" y="339"/>
			<point x="156" y="236"/>
			<point x="286" y="236" type="curve" smooth="yes"/>
			<point x="426" y="236"/>
			<point x="517" y="332"/>
			<point x="533" y="462" type="curve"/>
			<point x="517" y="432" type="line"/>
			<point x="475" y="192"/>
			<point x="391" y="58"/>
			<point x="241" y="58" type="curve" smooth="yes"/>
			<point x="151" y="58"/>
			<point x="121" y="111"/>
			<point x="108" y="182" type="curve"/>
			<point x="25" y="172" type="line"/>
			<point x="35" y="73"/>
			<point x="107" y="-15"/>
		</contour>
		<contour>
			<point x="300" y="309" type="curve" smooth="yes"/>
			<point x="200" y="309"/>
			<point x="150" y="378"/>
			<point x="169" y="476" type="curve" smooth="yes"/>
			<point x="189" y="576"/>
			<point x="255" y="644"/>
			<point x="365" y="644" type="curve" smooth="yes"/>
			<point x="465" y="644"/>
			<point x="515" y="564"/>
			<point x="498" y="476" type="curve" smooth="yes"/>
			<point x="477" y="368"/>
			<point x="400" y="309"/>
		</contour>
	</outline>
</glyph>
<glyph name="less" format="2">
	<advance width="601"/>
	<unicode hex="003C"/>
	<outline>
		<contour>
			<point x="453" y="9" type="line"/>
			<point x="469" y="87" type="line"/>
			<point x="110" y="308" type="line"/>
			<point x="100" y="264" type="line"/>
			<point x="546" y="484" type="line"/>
			<point x="562" y="572" type="line"/>
			<point x="77" y="332" type="line"/>
			<point x="60" y="249" type="line"/>
		</contour>
	</outline>
</glyph>
<glyph name="equal" format="2">
	<advance width="600"/>
	<unicode hex="003D"/>
	<outline>
		<contour>
			<point x="81" y="356" type="line"/>
			<point x="520" y="356" type="line"/>
			<point x="534" y="429" type="line"/>
			<point x="95" y="429" type="line"/>
		</contour>
		<contour>
			<point x="44" y="163" type="line"/>
			<point x="483" y="163" type="line"/>
			<point x="497" y="236" type="line"/>
			<point x="58" y="236" type="line"/>
		</contour>
	</outline>
</glyph>
<glyph name="greater" format="2">
	<advance width="600"/>
	<unicode hex="003E"/>
	<outline>
		<contour>
			<point x="14" y="9" type="line"/>
			<point x="499" y="249" type="line"/>
			<point x="516" y="332" type="line"/>
			<point x="123" y="572" type="line"/>
			<point x="107" y="494" type="line"/>
			<point x="467" y="274" type="line"/>
			<point x="475" y="318" type="line"/>
			<point x="30" y="97" type="line"/>
		</contour>
	</outline>
</glyph>
<glyph name="question" format="2">
	<advance width="544"/>
	<unicode hex="003F"/>
	<outline>
		<contour>
			<point x="176" y="166" type="line"/>
			<point x="249" y="166" type="line"/>
			<point x="283" y="339" type="line"/>
			<point x="236" y="291" type="line"/>
			<point x="356" y="291"/>
			<point x="496" y="355"/>
			<point x="526" y="512" type="curve" smooth="yes"/>
			<point x="547" y="620"/>
			<point x="473" y="716"/>
			<point x="343" y="716" type="curve" smooth="yes"/>
			<point x="213" y="716"/>
			<point x="102" y="618"/>
			<point x="75" y="478" type="curve"/>
			<point x="145" y="464" type="line"/>
			<point x="168" y="584"/>
			<point x="249" y="643"/>
			<point x="329" y="643" type="curve" smooth="yes"/>
			<point x="419" y="643"/>
			<point x="464" y="590"/>
			<point x="448" y="512" type="curve" smooth="yes"/>
			<point x="429" y="414"/>
			<point x="352" y="350"/>
			<point x="212" y="350" type="curve"/>
		</contour>
		<contour>
			<point x="136" y="0" type="line"/>
			<point x="226" y="0" type="line"/>
			<point x="243" y="90" type="line"/>
			<point x="153" y="90" type="line"/>
		</contour>
	</outline>
</glyph>
<glyph name="at" format="2">
	<advance width="863"/>
	<unicode hex="0040"/>
	<outline>
		<contour>
			<point x="353" y="-103" type="curve" smooth="yes"/>
			<point x="483" y="-103"/>
			<point x="560" y="-52"/>
			<point x="633" y="0" type="curve"/>
			<point x="525" y="0" type="line"/>
			<point x="481" y="-23"/>
			<point x="443" y="-44"/>
			<point x="353" y="-44" type="curve" smooth="yes"/>
			<point x="203" y="-44"/>
			<point x="60" y="102"/>
			<point x="98" y="298" type="curve" smooth="yes"/>
			<point x="135" y="484"/>
			<point x="292" y="601"/>
			<point x="469" y="601" type="curve" smooth="yes"/>
			<point x="677" y="601"/>
			<point x="771" y="445"/>
			<point x="739" y="278" type="curve"/>
			<point x="798" y="278" type="line"/>
			<point x="836" y="474"/>
			<point x="709" y="660"/>
			<point x="469" y="660" type="curve" smooth="yes"/>
			<point x="279" y="660"/>
			<point x="85" y="534"/>
			<point x="39" y="298" type="curve" smooth="yes"/>
			<point x="-3" y="82"/>
			<point x="153" y="-103"/>
		</contour>
		<contour>
			<point x="372" y="155" type="curve" smooth="yes"/>
			<point x="332" y="155"/>
			<point x="311" y="177"/>
			<point x="319" y="216" type="curve" smooth="yes"/>
			<point x="327" y="262"/>
			<point x="382" y="270"/>
			<point x="431" y="272" type="curve" smooth="yes"/>
			<point x="477" y="273"/>
			<point x="525" y="287"/>
			<point x="531" y="346" type="curve"/>
			<point x="513" y="332" type="line"/>
			<point x="503" y="282" type="line" smooth="yes"/>
			<point x="487" y="201"/>
			<point x="427" y="155"/>
		</contour>
		<contour>
			<point x="605" y="83" type="curve" smooth="yes"/>
			<point x="685" y="83"/>
			<point x="775" y="148"/>
			<point x="798" y="278" type="curve"/>
			<point x="739" y="278" type="line"/>
			<point x="726" y="199"/>
			<point x="667" y="144"/>
			<point x="617" y="144" type="curve" smooth="yes"/>
			<point x="578" y="144"/>
			<point x="545" y="165"/>
			<point x="552" y="220" type="curve"/>
			<point x="575" y="336" type="line" smooth="yes"/>
			<point x="592" y="422"/>
			<point x="541" y="476"/>
			<point x="448" y="476" type="curve" smooth="yes"/>
			<point x="360" y="476"/>
			<point x="303" y="423"/>
			<point x="291" y="352" type="curve"/>
			<point x="349" y="344" type="line"/>
			<point x="357" y="392"/>
			<point x="389" y="417"/>
			<point x="445" y="417" type="curve" smooth="yes"/>
			<point x="499" y="417"/>
			<point x="519" y="397"/>
			<point x="520" y="371" type="curve" smooth="yes"/>
			<point x="522" y="345"/>
			<point x="506" y="329"/>
			<point x="445" y="327" type="curve" smooth="yes"/>
			<point x="375" y="325"/>
			<point x="276" y="317"/>
			<point x="256" y="218" type="curve" smooth="yes"/>
			<point x="244" y="154"/>
			<point x="290" y="96"/>
			<point x="363" y="96" type="curve" smooth="yes"/>
			<point x="432" y="96"/>
			<point x="481" y="138"/>
			<point x="502" y="206" type="curve"/>
			<point x="491" y="213" type="line"/>
			<point x="479" y="128"/>
			<point x="536" y="83"/>
		</contour>
	</outline>
</glyph>
<glyph name="A" format="2">
	<advance width="635"/>
	<unicode hex="0041"/>
	<outline>
		<contour>
			<point x="-49" y="0" type="line"/>
			<point x="33" y="0" type="line"/>
			<point x="399" y="678" type="line"/>
			<point x="369" y="678" type="line"/>
			<point x="470" y="0" type="line"/>
			<point x="546" y="0" type="line"/>
			<point x="441" y="700" type="line"/>
			<point x="328" y="700" type="line"/>
		</contour>
		<contour>
			<point x="139" y="226" type="line"/>
			<point x="452" y="226" type="line"/>
			<point x="466" y="299" type="line"/>
			<point x="153" y="299" type="line"/>
		</contour>
	</outline>
</glyph>
<glyph name="C" format="2">
	<advance width="722"/>
	<unicode hex="0043"/>
	<outline>
		<contour>
			<point x="300" y="-16" type="curve" smooth="yes"/>
			<point x="460" y="-16"/>
			<point x="601" y="98"/>
			<point x="650" y="267" type="curve"/>
			<point x="573" y="277" type="line"/>
			<point x="539" y="159"/>
			<point x="444" y="57"/>
			<point x="314" y="57" type="curve" smooth="yes"/>
			<point x="154" y="57"/>
			<point x="97" y="193"/>
			<point x="127" y="350" type="curve" smooth="yes"/>
			<point x="161" y="527"/>
			<point x="278" y="642"/>
			<point x="428" y="642" type="curve" smooth="yes"/>
			<point x="558" y="642"/>
			<point x="611" y="556"/>
			<point x="599" y="417" type="curve"/>
			<point x="681" y="428" type="line"/>
			<point x="695" y="567"/>
			<point x="622" y="716"/>
			<point x="442" y="716" type="curve" smooth="yes"/>
			<point x="272" y="716"/>
			<point x="97" y="595"/>
			<point x="49" y="350" type="curve" smooth="yes"/>
			<point x="11" y="154"/>
			<point x="110" y="-16"/>
		</contour>
	</outline>
</glyph>
<glyph name="D" format="2">
	<advance width="648"/>
	<unicode hex="0044"/>
	<outline>
		<contour>
			<point x="74" y="0" type="line"/>
			<point x="216" y="0" type="line" smooth="yes"/>
			<point x="426" y="0"/>
			<point x="556" y="114"/>
			<point x="602" y="350" type="curve" smooth="yes"/>
			<point x="646" y="576"/>
			<point x="532" y="700"/>
			<point x="352" y="700" type="curve" smooth="yes"/>
			<point x="210" y="700" type="line"/>
			<point x="196" y="627" type="line"/>
			<point x="338" y="627" type="line" smooth="yes"/>
			<point x="488" y="627"/>
			<point x="564" y="556"/>
			<point x="524" y="350" type="curve" smooth="yes"/>
			<point x="492" y="183"/>
			<point x="400" y="73"/>
			<point x="230" y="73" type="curve" smooth="yes"/>
			<point x="88" y="73" type="line"/>
		</contour>
		<contour>
			<point x="16" y="0" type="line"/>
			<point x="94" y="0" type="line"/>
			<point x="230" y="700" type="line"/>
			<point x="152" y="700" type="line"/>
		</contour>
	</outline>
</glyph>
<glyph name="F" format="2">
	<advance width="533"/>
	<unicode hex="0046"/>
	<outline>
		<contour>
			<point x="16" y="0" type="line"/>
			<point x="94" y="0" type="line"/>
			<point x="230" y="700" type="line"/>
			<point x="152" y="700" type="line"/>
		</contour>
		<contour>
			<point x="148" y="327" type="line"/>
			<point x="438" y="327" type="line"/>
			<point x="452" y="400" type="line"/>
			<point x="162" y="400" type="line"/>
		</contour>
		<contour>
			<point x="206" y="627" type="line"/>
			<point x="546" y="627" type="line"/>
			<point x="560" y="700" type="line"/>
			<point x="220" y="700" type="line"/>
		</contour>
	</outline>
</glyph>
<glyph name="G" format="2">
	<advance width="775"/>
	<unicode hex="0047"/>
	<outline>
		<contour>
			<point x="300" y="-16" type="curve" smooth="yes"/>
			<point x="422" y="-16"/>
			<point x="599" y="65"/>
			<point x="646" y="311" type="curve"/>
			<point x="629" y="262" type="line"/>
			<point x="563" y="0" type="line"/>
			<point x="636" y="0" type="line"/>
			<point x="705" y="354" type="line"/>
			<point x="377" y="354" type="line"/>
			<point x="363" y="281" type="line"/>
			<point x="606" y="281" type="line"/>
			<point x="560" y="149"/>
			<point x="430" y="57"/>
			<point x="314" y="57" type="curve" smooth="yes"/>
			<point x="164" y="57"/>
			<point x="96" y="190"/>
			<point x="127" y="350" type="curve" smooth="yes"/>
			<point x="161" y="527"/>
			<point x="278" y="642"/>
			<point x="428" y="642" type="curve" smooth="yes"/>
			<point x="568" y="642"/>
			<point x="633" y="560"/>
			<point x="615" y="421" type="curve"/>
			<point x="695" y="431" type="line"/>
			<point x="711" y="570"/>
			<point x="642" y="715"/>
			<point x="442" y="715" type="curve" smooth="yes"/>
			<point x="272" y="715"/>
			<point x="97" y="595"/>
			<point x="49" y="350" type="curve" smooth="yes"/>
			<point x="11" y="154"/>
			<point x="110" y="-16"/>
		</contour>
	</outline>
</glyph>
<glyph name="H" format="2">
	<advance width="666"/>
	<unicode hex="0048"/>
	<outline>
		<contour>
			<point x="434" y="0" type="line"/>
			<point x="512" y="0" type="line"/>
			<point x="648" y="700" type="line"/>
			<point x="570" y="700" type="line"/>
		</contour>
		<contour>
			<point x="16" y="0" type="line"/>
			<point x="94" y="0" type="line"/>
			<point x="230" y="700" type="line"/>
			<point x="152" y="700" type="line"/>
		</contour>
		<contour>
			<point x="148" y="327" type="line"/>
			<point x="508" y="327" type="line"/>
			<point x="522" y="400" type="line"/>
			<point x="162" y="400" type="line"/>
		</contour>
	</outline>
</glyph>
<glyph name="I" format="2">
	<advance width="248"/>
	<unicode hex="0049"/>
	<outline>
		<contour>
			<point x="16" y="0" type="line"/>
			<point x="94" y="0" type="line"/>
			<point x="230" y="700" type="line"/>
			<point x="152" y="700" type="line"/>
		</contour>
	</outline>
</glyph>
<glyph name="J" format="2">
	<advance width="556"/>
	<unicode hex="004A"/>
	<outline>
		<contour>
			<point x="197" y="-16" type="curve" smooth="yes"/>
			<point x="307" y="-16"/>
			<point x="412" y="26"/>
			<point x="448" y="212" type="curve" smooth="yes"/>
			<point x="543" y="700" type="line"/>
			<point x="465" y="700" type="line"/>
			<point x="370" y="212" type="line" smooth="yes"/>
			<point x="349" y="104"/>
			<point x="287" y="57"/>
			<point x="207" y="57" type="curve" smooth="yes"/>
			<point x="127" y="57"/>
			<point x="71" y="104"/>
			<point x="91" y="212" type="curve" smooth="yes"/>
			<point x="102" y="270" type="line"/>
			<point x="24" y="270" type="line"/>
			<point x="13" y="212" type="line" smooth="yes"/>
			<point x="-11" y="84"/>
			<point x="67" y="-16"/>
		</contour>
	</outline>
</glyph>
<glyph name="K" format="2">
	<advance width="606"/>
	<unicode hex="004B"/>
	<outline>
		<contour>
			<point x="130" y="234" type="line"/>
			<point x="624" y="700" type="line"/>
			<point x="524" y="700" type="line"/>
			<point x="76" y="280" type="line"/>
		</contour>
		<contour>
			<point x="16" y="0" type="line"/>
			<point x="94" y="0" type="line"/>
			<point x="230" y="700" type="line"/>
			<point x="152" y="700" type="line"/>
		</contour>
		<contour>
			<point x="427" y="0" type="line"/>
			<point x="517" y="0" type="line"/>
			<point x="320" y="422" type="line"/>
			<point x="246" y="392" type="line"/>
		</contour>
	</outline>
</glyph>
<glyph name="L" format="2">
	<advance width="508"/>
	<unicode hex="004C"/>
	<outline>
		<contour>
			<point x="16" y="0" type="line"/>
			<point x="94" y="0" type="line"/>
			<point x="230" y="700" type="line"/>
			<point x="152" y="700" type="line"/>
		</contour>
		<contour>
			<point x="79" y="0" type="line"/>
			<point x="419" y="0" type="line"/>
			<point x="433" y="73" type="line"/>
			<point x="93" y="73" type="line"/>
		</contour>
	</outline>
</glyph>
<glyph name="M" format="2">
	<advance width="848"/>
	<unicode hex="004D"/>
	<outline>
		<contour>
			<point x="16" y="0" type="line"/>
			<point x="94" y="0" type="line"/>
			<point x="213" y="612" type="line"/>
			<point x="215" y="612" type="line"/>
			<point x="317" y="0" type="line"/>
			<point x="393" y="0" type="line"/>
			<point x="733" y="612" type="line"/>
			<point x="735" y="612" type="line"/>
			<point x="616" y="0" type="line"/>
			<point x="694" y="0" type="line"/>
			<point x="830" y="700" type="line"/>
			<point x="708" y="700" type="line"/>
			<point x="376" y="101" type="line"/>
			<point x="374" y="101" type="line"/>
			<point x="273" y="700" type="line"/>
			<point x="152" y="700" type="line"/>
		</contour>
	</outline>
</glyph>
<glyph name="N" format="2">
	<advance width="716"/>
	<unicode hex="004E"/>
	<outline>
		<contour>
			<point x="463" y="0" type="line"/>
			<point x="542" y="0" type="line"/>
			<point x="251" y="700" type="line"/>
			<point x="172" y="700" type="line"/>
		</contour>
		<contour>
			<point x="16" y="0" type="line"/>
			<point x="95" y="0" type="line"/>
			<point x="231" y="700" type="line"/>
			<point x="152" y="700" type="line"/>
		</contour>
		<contour>
			<point x="483" y="0" type="line"/>
			<point x="562" y="0" type="line"/>
			<point x="698" y="700" type="line"/>
			<point x="619" y="700" type="line"/>
		</contour>
	</outline>
</glyph>
<glyph name="O" format="2">
	<advance width="744"/>
	<unicode hex="004F"/>
	<outline>
		<contour>
			<point x="300" y="-16" type="curve" smooth="yes"/>
			<point x="470" y="-16"/>
			<point x="647" y="114"/>
			<point x="693" y="350" type="curve" smooth="yes"/>
			<point x="735" y="566"/>
			<point x="612" y="716"/>
			<point x="442" y="716" type="curve" smooth="yes"/>
			<point x="272" y="716"/>
			<point x="95" y="586"/>
			<point x="49" y="350" type="curve" smooth="yes"/>
			<point x="7" y="134"/>
			<point x="130" y="-16"/>
		</contour>
		<contour>
			<point x="314" y="57" type="curve" smooth="yes"/>
			<point x="164" y="57"/>
			<point x="96" y="190"/>
			<point x="127" y="350" type="curve" smooth="yes"/>
			<point x="158" y="510"/>
			<point x="278" y="643"/>
			<point x="428" y="643" type="curve" smooth="yes"/>
			<point x="578" y="643"/>
			<point x="646" y="510"/>
			<point x="615" y="350" type="curve" smooth="yes"/>
			<point x="584" y="190"/>
			<point x="464" y="57"/>
		</contour>
	</outline>
</glyph>
<glyph name="P" format="2">
	<advance width="576"/>
	<unicode hex="0050"/>
	<outline>
		<contour>
			<point x="109" y="309" type="line"/>
			<point x="296" y="309" type="line" smooth="yes"/>
			<point x="456" y="309"/>
			<point x="542" y="386"/>
			<point x="565" y="504" type="curve" smooth="yes"/>
			<point x="584" y="602"/>
			<point x="512" y="700"/>
			<point x="372" y="700" type="curve" smooth="yes"/>
			<point x="185" y="700" type="line"/>
			<point x="171" y="627" type="line"/>
			<point x="358" y="627" type="line" smooth="yes"/>
			<point x="448" y="627"/>
			<point x="502" y="583"/>
			<point x="487" y="504" type="curve" smooth="yes"/>
			<point x="470" y="416"/>
			<point x="400" y="382"/>
			<point x="310" y="382" type="curve" smooth="yes"/>
			<point x="123" y="382" type="line"/>
		</contour>
		<contour>
			<point x="16" y="0" type="line"/>
			<point x="94" y="0" type="line"/>
			<point x="230" y="700" type="line"/>
			<point x="152" y="700" type="line"/>
		</contour>
	</outline>
</glyph>
<glyph name="Q" format="2">
	<advance width="781"/>
	<unicode hex="0051"/>
	<outline>
		<contour>
			<point x="582" y="-66" type="line"/>
			<point x="670" y="-66" type="line"/>
			<point x="415" y="346" type="line"/>
			<point x="327" y="346" type="line"/>
		</contour>
		<component base="O"/>
	</outline>
</glyph>
<glyph name="R" format="2">
	<advance width="611"/>
	<unicode hex="0052"/>
	<outline>
		<contour>
			<point x="16" y="0" type="line"/>
			<point x="94" y="0" type="line"/>
			<point x="154" y="309" type="line"/>
			<point x="317" y="309" type="line" smooth="yes"/>
			<point x="417" y="309"/>
			<point x="435" y="273"/>
			<point x="421" y="174" type="curve" smooth="yes"/>
			<point x="397" y="0" type="line"/>
			<point x="477" y="0" type="line"/>
			<point x="498" y="159" type="line" smooth="yes"/>
			<point x="519" y="318"/>
			<point x="477" y="342"/>
			<point x="347" y="342" type="curve"/>
			<point x="347" y="340" type="line"/>
			<point x="447" y="340"/>
			<point x="542" y="385"/>
			<point x="565" y="504" type="curve" smooth="yes"/>
			<point x="584" y="602"/>
			<point x="512" y="700"/>
			<point x="372" y="700" type="curve" smooth="yes"/>
			<point x="152" y="700" type="line"/>
		</contour>
		<contour>
			<point x="168" y="382" type="line"/>
			<point x="216" y="627" type="line"/>
			<point x="358" y="627" type="line" smooth="yes"/>
			<point x="448" y="627"/>
			<point x="502" y="583"/>
			<point x="487" y="504" type="curve" smooth="yes"/>
			<point x="470" y="416"/>
			<point x="400" y="382"/>
			<point x="310" y="382" type="curve" smooth="yes"/>
		</contour>
	</outline>
</glyph>
<glyph name="T" format="2">
	<advance width="618"/>
	<unicode hex="0054"/>
	<outline>
		<contour>
			<point x="201" y="0" type="line"/>
			<point x="279" y="0" type="line"/>
			<point x="401" y="627" type="line"/>
			<point x="323" y="627" type="line"/>
		</contour>
		<contour>
			<point x="73" y="627" type="line"/>
			<point x="651" y="627" type="line"/>
			<point x="665" y="700" type="line"/>
			<point x="87" y="700" type="line"/>
		</contour>
	</outline>
</glyph>
<glyph name="U" format="2">
	<advance width="655"/>
	<unicode hex="0055"/>
	<outline>
		<contour>
			<point x="266" y="-16" type="curve" smooth="yes"/>
			<point x="396" y="-16"/>
			<point x="517" y="55"/>
			<point x="553" y="242" type="curve" smooth="yes"/>
			<point x="642" y="700" type="line"/>
			<point x="564" y="700" type="line"/>
			<point x="475" y="242" type="line" smooth="yes"/>
			<point x="448" y="105"/>
			<point x="350" y="57"/>
			<point x="280" y="57" type="curve" smooth="yes"/>
			<point x="180" y="57"/>
			<point x="111" y="114"/>
			<point x="136" y="242" type="curve" smooth="yes"/>
			<point x="225" y="700" type="line"/>
			<point x="147" y="700" type="line"/>
			<point x="58" y="242" type="line" smooth="yes"/>
			<point x="27" y="85"/>
			<point x="126" y="-16"/>
		</contour>
	</outline>
</glyph>
<glyph name="V" format="2">
	<advance width="608"/>
	<unicode hex="0056"/>
	<outline>
		<contour>
			<point x="184" y="0" type="line"/>
			<point x="286" y="0" type="line"/>
			<point x="655" y="700" type="line"/>
			<point x="573" y="700" type="line"/>
			<point x="223" y="36" type="line"/>
			<point x="252" y="36" type="line"/>
			<point x="161" y="700" type="line"/>
			<point x="87" y="700" type="line"/>
		</contour>
	</outline>
</glyph>
<glyph name="W" format="2">
	<advance width="856"/>
	<unicode hex="0057"/>
	<outline>
		<contour>
			<point x="138" y="0" type="line"/>
			<point x="241" y="0" type="line"/>
			<point x="483" y="587" type="line"/>
			<point x="463" y="587" type="line"/>
			<point x="477" y="0" type="line"/>
			<point x="580" y="0" type="line"/>
			<point x="888" y="700" type="line"/>
			<point x="811" y="700" type="line"/>
			<point x="519" y="38" type="line"/>
			<point x="540" y="38" type="line"/>
			<point x="525" y="700" type="line"/>
			<point x="457" y="700" type="line"/>
			<point x="184" y="38" type="line"/>
			<point x="205" y="38" type="line"/>
			<point x="171" y="700" type="line"/>
			<point x="102" y="700" type="line"/>
		</contour>
	</outline>
</glyph>
<glyph name="X" format="2">
	<advance width="607"/>
	<unicode hex="0058"/>
	<outline>
		<contour>
			<point x="432" y="0" type="line"/>
			<point x="508" y="0" type="line"/>
			<point x="173" y="700" type="line"/>
			<point x="97" y="700" type="line"/>
		</contour>
		<contour>
			<point x="-49" y="0" type="line"/>
			<point x="47" y="0" type="line"/>
			<point x="654" y="700" type="line"/>
			<point x="558" y="700" type="line"/>
		</contour>
	</outline>
</glyph>
<glyph name="Y" format="2">
	<advance width="552"/>
	<unicode hex="0059"/>
	<outline>
		<contour>
			<point x="72" y="0" type="line"/>
			<point x="158" y="0" type="line"/>
			<point x="599" y="700" type="line"/>
			<point x="513" y="700" type="line"/>
		</contour>
		<contour>
			<point x="216" y="165" type="line"/>
			<point x="275" y="246" type="line"/>
			<point x="165" y="700" type="line"/>
			<point x="87" y="700" type="line"/>
		</contour>
	</outline>
</glyph>
<glyph name="Z" format="2">
	<advance width="581"/>
	<unicode hex="005A"/>
	<outline>
		<contour>
			<point x="16" y="73" type="line"/>
			<point x="102" y="73" type="line"/>
			<point x="564" y="627" type="line"/>
			<point x="478" y="627" type="line"/>
		</contour>
		<contour>
			<point x="2" y="0" type="line"/>
			<point x="442" y="0" type="line"/>
			<point x="456" y="73" type="line"/>
			<point x="16" y="73" type="line"/>
		</contour>
		<contour>
			<point x="124" y="627" type="line"/>
			<point x="564" y="627" type="line"/>
			<point x="578" y="700" type="line"/>
			<point x="138" y="700" type="line"/>
		</contour>
	</outline>
</glyph>
<glyph name="bracketleft" format="2">
	<advance width="374"/>
	<unicode hex="005B"/>
	<outline>
		<contour>
			<point x="11" y="-110" type="line"/>
			<point x="86" y="-110" type="line"/>
			<point x="246" y="716" type="line"/>
			<point x="171" y="716" type="line"/>
		</contour>
		<contour>
			<point x="86" y="-110" type="line"/>
			<point x="234" y="-110" type="line"/>
			<point x="248" y="-37" type="line"/>
			<point x="100" y="-37" type="line"/>
		</contour>
		<contour>
			<point x="232" y="644" type="line"/>
			<point x="380" y="644" type="line"/>
			<point x="394" y="716" type="line"/>
			<point x="246" y="716" type="line"/>
		</contour>
	</outline>
</glyph>
<glyph name="backslash" format="2">
	<advance width="493"/>
	<unicode hex="005C"/>
	<outline>
		<contour>
			<point x="275" y="-110" type="line"/>
			<point x="353" y="-110" type="line"/>
			<point x="199" y="716" type="line"/>
			<point x="121" y="716" type="line"/>
		</contour>
	</outline>
</glyph>
<glyph name="bracketright" format="2">
	<advance width="374"/>
	<unicode hex="005D"/>
	<outline>
		<contour>
			<point x="109" y="-110" type="line"/>
			<point x="184" y="-110" type="line"/>
			<point x="344" y="716" type="line"/>
			<point x="269" y="716" type="line"/>
		</contour>
		<contour>
			<point x="-39" y="-110" type="line"/>
			<point x="109" y="-110" type="line"/>
			<point x="123" y="-37" type="line"/>
			<point x="-25" y="-37" type="line"/>
		</contour>
		<contour>
			<point x="107" y="644" type="line"/>
			<point x="255" y="644" type="line"/>
			<point x="269" y="716" type="line"/>
			<point x="121" y="716" type="line"/>
		</contour>
	</outline>
</glyph>
<glyph name="underscore" format="2">
	<advance width="335"/>
	<unicode hex="005F"/>
	<outline>
		<contour>
			<point x="-86" y="-89" type="line"/>
			<point x="249" y="-89" type="line"/>
			<point x="263" y="-16" type="line"/>
			<point x="-72" y="-16" type="line"/>
		</contour>
	</outline>
</glyph>
<glyph name="grave" format="2">
	<advance width="433"/>
	<unicode hex="0060"/>
	<outline>
		<contour>
			<point x="274" y="580" type="line"/>
			<point x="337" y="580" type="line"/>
			<point x="306" y="730" type="line"/>
			<point x="213" y="730" type="line"/>
		</contour>
	</outline>
</glyph>
<glyph name="a" format="2">
	<advance width="527"/>
	<unicode hex="0061"/>
	<outline>
		<contour>
			<point x="158" y="-16" type="curve" smooth="yes"/>
			<point x="268" y="-16"/>
			<point x="340" y="62"/>
			<point x="363" y="180" type="curve"/>
			<point x="345" y="140" type="line"/>
			<point x="318" y="0" type="line"/>
			<point x="393" y="0" type="line"/>
			<point x="456" y="323" type="line" smooth="yes"/>
			<point x="479" y="441"/>
			<point x="410" y="516"/>
			<point x="280" y="516" type="curve" smooth="yes"/>
			<point x="160" y="516"/>
			<point x="82" y="446"/>
			<point x="63" y="348" type="curve"/>
			<point x="134" y="338" type="line"/>
			<point x="147" y="407"/>
			<point x="196" y="443"/>
			<point x="276" y="443" type="curve" smooth="yes"/>
			<point x="356" y="443"/>
			<point x="387" y="412"/>
			<point x="389" y="372" type="curve" smooth="yes"/>
			<point x="391" y="332"/>
			<point x="366" y="306"/>
			<point x="276" y="303" type="curve" smooth="yes"/>
			<point x="176" y="300"/>
			<point x="38" y="289"/>
			<point x="11" y="152" type="curve" smooth="yes"/>
			<point x="-6" y="64"/>
			<point x="58" y="-16"/>
		</contour>
		<contour>
			<point x="172" y="57" type="curve" smooth="yes"/>
			<point x="112" y="57"/>
			<point x="78" y="93"/>
			<point x="90" y="152" type="curve" smooth="yes"/>
			<point x="103" y="221"/>
			<point x="186" y="233"/>
			<point x="256" y="235" type="curve" smooth="yes"/>
			<point x="316" y="237"/>
			<point x="377" y="254"/>
			<point x="391" y="323" type="curve"/>
			<point x="379" y="313" type="line"/>
			<point x="365" y="243" type="line" smooth="yes"/>
			<point x="341" y="125"/>
			<point x="252" y="57"/>
		</contour>
	</outline>
</glyph>
<glyph name="b" format="2">
	<advance width="579"/>
	<unicode hex="0062"/>
	<outline>
		<contour>
			<point x="6" y="0" type="line"/>
			<point x="81" y="0" type="line"/>
			<point x="217" y="700" type="line"/>
			<point x="142" y="700" type="line"/>
		</contour>
		<contour>
			<point x="263" y="-16" type="curve" smooth="yes"/>
			<point x="363" y="-16"/>
			<point x="480" y="78"/>
			<point x="513" y="245" type="curve" smooth="yes"/>
			<point x="543" y="402"/>
			<point x="460" y="516"/>
			<point x="350" y="516" type="curve" smooth="yes"/>
			<point x="250" y="516"/>
			<point x="161" y="448"/>
			<point x="139" y="330" type="curve" smooth="yes"/>
			<point x="108" y="170" type="line" smooth="yes"/>
			<point x="88" y="72"/>
			<point x="153" y="-16"/>
		</contour>
		<contour>
			<point x="253" y="57" type="curve" smooth="yes"/>
			<point x="173" y="57"/>
			<point x="107" y="132"/>
			<point x="130" y="250" type="curve" smooth="yes"/>
			<point x="153" y="368"/>
			<point x="240" y="443"/>
			<point x="320" y="443" type="curve" smooth="yes"/>
			<point x="410" y="443"/>
			<point x="457" y="363"/>
			<point x="434" y="245" type="curve" smooth="yes"/>
			<point x="413" y="137"/>
			<point x="333" y="57"/>
		</contour>
	</outline>
</glyph>
<glyph name="c" format="2">
	<advance width="545"/>
	<unicode hex="0063"/>
	<outline>
		<contour>
			<point x="228" y="-16" type="curve" smooth="yes"/>
			<point x="338" y="-16"/>
			<point x="427" y="42"/>
			<point x="467" y="187" type="curve"/>
			<point x="391" y="197" type="line"/>
			<point x="369" y="110"/>
			<point x="318" y="57"/>
			<point x="228" y="57" type="curve" smooth="yes"/>
			<point x="138" y="57"/>
			<point x="80" y="134"/>
			<point x="107" y="271" type="curve" smooth="yes"/>
			<point x="128" y="379"/>
			<point x="207" y="443"/>
			<point x="297" y="443" type="curve" smooth="yes"/>
			<point x="377" y="443"/>
			<point x="421" y="377"/>
			<point x="411" y="297" type="curve"/>
			<point x="491" y="307" type="line"/>
			<point x="501" y="396"/>
			<point x="437" y="516"/>
			<point x="297" y="516" type="curve" smooth="yes"/>
			<point x="187" y="516"/>
			<point x="61" y="438"/>
			<point x="29" y="271" type="curve" smooth="yes"/>
			<point x="-3" y="104"/>
			<point x="88" y="-16"/>
		</contour>
	</outline>
</glyph>
<glyph name="e" format="2">
	<advance width="542"/>
	<unicode hex="0065"/>
	<outline>
		<contour>
			<point x="230" y="-16" type="curve" smooth="yes"/>
			<point x="330" y="-16"/>
			<point x="414" y="46"/>
			<point x="453" y="144" type="curve"/>
			<point x="377" y="154" type="line"/>
			<point x="359" y="114"/>
			<point x="324" y="57"/>
			<point x="234" y="57" type="curve" smooth="yes"/>
			<point x="144" y="57"/>
			<point x="82" y="142"/>
			<point x="100" y="230" type="curve"/>
			<point x="473" y="230" type="line"/>
			<point x="479" y="265" type="line" smooth="yes"/>
			<point x="506" y="423"/>
			<point x="400" y="516"/>
			<point x="290" y="516" type="curve" smooth="yes"/>
			<point x="160" y="516"/>
			<point x="61" y="432"/>
			<point x="28" y="265" type="curve" smooth="yes"/>
			<point x="-2" y="108"/>
			<point x="90" y="-16"/>
		</contour>
		<contour>
			<point x="113" y="298" type="line"/>
			<point x="130" y="386"/>
			<point x="190" y="443"/>
			<point x="280" y="443" type="curve" smooth="yes"/>
			<point x="370" y="443"/>
			<point x="425" y="386"/>
			<point x="408" y="298" type="curve"/>
		</contour>
	</outline>
</glyph>
<glyph name="f" format="2">
	<advance width="374"/>
	<unicode hex="0066"/>
	<outline>
		<contour>
			<point x="60" y="0" type="line"/>
			<point x="135" y="0" type="line"/>
			<point x="247" y="577" type="line" smooth="yes"/>
			<point x="255" y="617"/>
			<point x="279" y="637"/>
			<point x="319" y="637" type="curve" smooth="yes"/>
			<point x="409" y="637" type="line"/>
			<point x="423" y="710" type="line"/>
			<point x="338" y="710" type="line" smooth="yes"/>
			<point x="238" y="710"/>
			<point x="190" y="668"/>
			<point x="171" y="570" type="curve" smooth="yes"/>
		</contour>
		<contour>
			<point x="35" y="427" type="line"/>
			<point x="368" y="427" type="line"/>
			<point x="382" y="500" type="line"/>
			<point x="49" y="500" type="line"/>
		</contour>
	</outline>
</glyph>
<glyph name="g" format="2">
	<advance width="580"/>
	<unicode hex="0067"/>
	<outline>
		<contour>
			<point x="175" y="-216" type="curve" smooth="yes"/>
			<point x="295" y="-216"/>
			<point x="406" y="-158"/>
			<point x="440" y="19" type="curve" smooth="yes"/>
			<point x="533" y="500" type="line"/>
			<point x="458" y="500" type="line"/>
			<point x="365" y="19" type="line" smooth="yes"/>
			<point x="340" y="-109"/>
			<point x="259" y="-143"/>
			<point x="179" y="-143" type="curve" smooth="yes"/>
			<point x="99" y="-143"/>
			<point x="58" y="-91"/>
			<point x="58" y="-51" type="curve"/>
			<point x="-22" y="-61" type="line"/>
			<point x="-22" y="-121"/>
			<point x="45" y="-216"/>
		</contour>
		<contour>
			<point x="189" y="-16" type="curve" smooth="yes"/>
			<point x="289" y="-16"/>
			<point x="378" y="52"/>
			<point x="400" y="170" type="curve"/>
			<point x="431" y="330" type="line"/>
			<point x="451" y="428"/>
			<point x="386" y="516"/>
			<point x="276" y="516" type="curve" smooth="yes"/>
			<point x="176" y="516"/>
			<point x="59" y="422"/>
			<point x="26" y="255" type="curve" smooth="yes"/>
			<point x="-4" y="98"/>
			<point x="79" y="-16"/>
		</contour>
		<contour>
			<point x="219" y="57" type="curve" smooth="yes"/>
			<point x="129" y="57"/>
			<point x="82" y="136"/>
			<point x="105" y="255" type="curve" smooth="yes"/>
			<point x="126" y="362"/>
			<point x="206" y="443"/>
			<point x="286" y="443" type="curve" smooth="yes"/>
			<point x="366" y="443"/>
			<point x="432" y="368"/>
			<point x="409" y="250" type="curve" smooth="yes"/>
			<point x="386" y="132"/>
			<point x="299" y="57"/>
		</contour>
	</outline>
</glyph>
<glyph name="h" format="2">
	<advance width="548"/>
	<unicode hex="0068"/>
	<outline>
		<contour>
			<point x="334" y="0" type="line"/>
			<point x="409" y="0" type="line"/>
			<point x="471" y="318" type="line" smooth="yes"/>
			<point x="498" y="455"/>
			<point x="436" y="516"/>
			<point x="346" y="516" type="curve" smooth="yes"/>
			<point x="246" y="516"/>
			<point x="156" y="428"/>
			<point x="144" y="349" type="curve" smooth="yes"/>
			<point x="128" y="243" type="line"/>
			<point x="157" y="390"/>
			<point x="247" y="443"/>
			<point x="317" y="443" type="curve" smooth="yes"/>
			<point x="377" y="443"/>
			<point x="411" y="398"/>
			<point x="392" y="300" type="curve" smooth="yes"/>
		</contour>
		<contour>
			<point x="6" y="0" type="line"/>
			<point x="81" y="0" type="line"/>
			<point x="217" y="700" type="line"/>
			<point x="142" y="700" type="line"/>
		</contour>
	</outline>
</glyph>
<glyph name="k" format="2">
	<advance width="516"/>
	<unicode hex="006B"/>
	<outline>
		<contour>
			<point x="106" y="154" type="line"/>
			<point x="507" y="500" type="line"/>
			<point x="407" y="500" type="line"/>
			<point x="58" y="201" type="line"/>
		</contour>
		<contour>
			<point x="6" y="0" type="line"/>
			<point x="81" y="0" type="line"/>
			<point x="217" y="700" type="line"/>
			<point x="142" y="700" type="line"/>
		</contour>
		<contour>
			<point x="344" y="0" type="line"/>
			<point x="422" y="0" type="line"/>
			<point x="275" y="363" type="line"/>
			<point x="230" y="290" type="line"/>
		</contour>
	</outline>
</glyph>
<glyph name="l" format="2">
	<advance width="225"/>
	<unicode hex="006C"/>
	<outline>
		<contour>
			<point x="6" y="0" type="line"/>
			<point x="81" y="0" type="line"/>
			<point x="219" y="710" type="line"/>
			<point x="144" y="710" type="line"/>
		</contour>
	</outline>
</glyph>
<glyph name="m" format="2">
	<advance width="857"/>
	<unicode hex="006D"/>
	<outline>
		<contour>
			<point x="7" y="0" type="line"/>
			<point x="82" y="0" type="line"/>
			<point x="179" y="500" type="line"/>
			<point x="104" y="500" type="line"/>
		</contour>
		<contour>
			<point x="325" y="0" type="line"/>
			<point x="400" y="0" type="line"/>
			<point x="462" y="318" type="line" smooth="yes"/>
			<point x="489" y="455"/>
			<point x="437" y="516"/>
			<point x="347" y="516" type="curve" smooth="yes"/>
			<point x="247" y="516"/>
			<point x="157" y="428"/>
			<point x="145" y="349" type="curve" smooth="yes"/>
			<point x="129" y="243" type="line"/>
			<point x="158" y="390"/>
			<point x="248" y="443"/>
			<point x="318" y="443" type="curve" smooth="yes"/>
			<point x="378" y="443"/>
			<point x="402" y="398"/>
			<point x="383" y="300" type="curve" smooth="yes"/>
		</contour>
		<contour>
			<point x="643" y="0" type="line"/>
			<point x="718" y="0" type="line"/>
			<point x="780" y="318" type="line" smooth="yes"/>
			<point x="807" y="455"/>
			<point x="755" y="516"/>
			<point x="665" y="516" type="curve" smooth="yes"/>
			<point x="565" y="516"/>
			<point x="466" y="428"/>
			<point x="458" y="349" type="curve" smooth="yes"/>
			<point x="447" y="243" type="line"/>
			<point x="476" y="390"/>
			<point x="566" y="443"/>
			<point x="636" y="443" type="curve" smooth="yes"/>
			<point x="696" y="443"/>
			<point x="720" y="398"/>
			<point x="701" y="300" type="curve" smooth="yes"/>
		</contour>
	</outline>
</glyph>
<glyph name="n" format="2">
	<advance width="549"/>
	<unicode hex="006E"/>
	<outline>
		<contour>
			<point x="335" y="0" type="line"/>
			<point x="410" y="0" type="line"/>
			<point x="472" y="318" type="line" smooth="yes"/>
			<point x="499" y="455"/>
			<point x="437" y="516"/>
			<point x="347" y="516" type="curve" smooth="yes"/>
			<point x="247" y="516"/>
			<point x="157" y="428"/>
			<point x="145" y="349" type="curve" smooth="yes"/>
			<point x="129" y="243" type="line"/>
			<point x="158" y="390"/>
			<point x="248" y="443"/>
			<point x="318" y="443" type="curve" smooth="yes"/>
			<point x="378" y="443"/>
			<point x="412" y="398"/>
			<point x="393" y="300" type="curve" smooth="yes"/>
		</contour>
		<contour>
			<point x="7" y="0" type="line"/>
			<point x="82" y="0" type="line"/>
			<point x="179" y="500" type="line"/>
			<point x="104" y="500" type="line"/>
		</contour>
	</outline>
</glyph>
<glyph name="o" format="2">
	<advance width="562"/>
	<unicode hex="006F"/>
	<outline>
		<contour>
			<point x="220" y="-16" type="curve" smooth="yes"/>
			<point x="340" y="-16"/>
			<point x="461" y="69"/>
			<point x="496" y="246" type="curve" smooth="yes"/>
			<point x="522" y="384"/>
			<point x="453" y="516"/>
			<point x="303" y="516" type="curve" smooth="yes"/>
			<point x="183" y="516"/>
			<point x="60" y="427"/>
			<point x="25" y="250" type="curve" smooth="yes"/>
			<point x="-1" y="112"/>
			<point x="70" y="-16"/>
		</contour>
		<contour>
			<point x="230" y="57" type="curve" smooth="yes"/>
			<point x="120" y="57"/>
			<point x="82" y="138"/>
			<point x="103" y="246" type="curve" smooth="yes"/>
			<point x="125" y="364"/>
			<point x="203" y="443"/>
			<point x="293" y="443" type="curve" smooth="yes"/>
			<point x="403" y="443"/>
			<point x="440" y="358"/>
			<point x="419" y="250" type="curve" smooth="yes"/>
			<point x="397" y="132"/>
			<point x="320" y="57"/>
		</contour>
	</outline>
</glyph>
<glyph name="p" format="2">
	<advance width="580"/>
	<unicode hex="0070"/>
	<outline>
		<contour>
			<point x="264" y="-16" type="curve" smooth="yes"/>
			<point x="364" y="-16"/>
			<point x="481" y="78"/>
			<point x="514" y="245" type="curve" smooth="yes"/>
			<point x="544" y="402"/>
			<point x="461" y="516"/>
			<point x="351" y="516" type="curve" smooth="yes"/>
			<point x="251" y="516"/>
			<point x="162" y="448"/>
			<point x="140" y="330" type="curve" smooth="yes"/>
			<point x="109" y="170" type="line" smooth="yes"/>
			<point x="89" y="72"/>
			<point x="154" y="-16"/>
		</contour>
		<contour>
			<point x="254" y="57" type="curve" smooth="yes"/>
			<point x="174" y="57"/>
			<point x="108" y="132"/>
			<point x="131" y="250" type="curve" smooth="yes"/>
			<point x="154" y="368"/>
			<point x="241" y="443"/>
			<point x="321" y="443" type="curve" smooth="yes"/>
			<point x="411" y="443"/>
			<point x="458" y="364"/>
			<point x="435" y="245" type="curve" smooth="yes"/>
			<point x="414" y="138"/>
			<point x="334" y="57"/>
		</contour>
		<contour>
			<point x="-32" y="-200" type="line"/>
			<point x="43" y="-200" type="line"/>
			<point x="179" y="500" type="line"/>
			<point x="104" y="500" type="line"/>
		</contour>
	</outline>
</glyph>
<glyph name="r" format="2">
	<advance width="379"/>
	<unicode hex="0072"/>
	<outline>
		<contour>
			<point x="12" y="0" type="line"/>
			<point x="87" y="0" type="line"/>
			<point x="131" y="228" type="line" smooth="yes"/>
			<point x="157" y="358"/>
			<point x="211" y="427"/>
			<point x="291" y="427" type="curve" smooth="yes"/>
			<point x="373" y="427" type="line"/>
			<point x="387" y="500" type="line"/>
			<point x="295" y="500" type="line" smooth="yes"/>
			<point x="215" y="500"/>
			<point x="158" y="405"/>
			<point x="132" y="275" type="curve"/>
			<point x="152" y="335" type="line"/>
			<point x="184" y="500" type="line"/>
			<point x="109" y="500" type="line"/>
		</contour>
	</outline>
</glyph>
<glyph name="s" format="2">
	<advance width="502"/>
	<unicode hex="0073"/>
	<outline>
		<contour>
			<point x="219" y="-16" type="curve" smooth="yes"/>
			<point x="319" y="-16"/>
			<point x="423" y="41"/>
			<point x="423" y="141" type="curve" smooth="yes"/>
			<point x="423" y="321"/>
			<point x="151" y="278"/>
			<point x="151" y="368" type="curve" smooth="yes"/>
			<point x="151" y="418"/>
			<point x="188" y="443"/>
			<point x="258" y="443" type="curve" smooth="yes"/>
			<point x="318" y="443"/>
			<point x="371" y="412"/>
			<point x="371" y="362" type="curve"/>
			<point x="446" y="372" type="line"/>
			<point x="446" y="442"/>
			<point x="380" y="516"/>
			<point x="262" y="516" type="curve" smooth="yes"/>
			<point x="153" y="516"/>
			<point x="73" y="458"/>
			<point x="73" y="368" type="curve" smooth="yes"/>
			<point x="73" y="188"/>
			<point x="345" y="261"/>
			<point x="345" y="141" type="curve" smooth="yes"/>
			<point x="345" y="91"/>
			<point x="283" y="57"/>
			<point x="223" y="57" type="curve" smooth="yes"/>
			<point x="143" y="57"/>
			<point x="79" y="110"/>
			<point x="79" y="180" type="curve"/>
			<point x="4" y="170" type="line"/>
			<point x="4" y="60"/>
			<point x="109" y="-16"/>
		</contour>
	</outline>
</glyph>
<glyph name="t" format="2">
	<advance width="379"/>
	<unicode hex="0074"/>
	<outline>
		<contour>
			<point x="205" y="0" type="curve" smooth="yes"/>
			<point x="280" y="0" type="line"/>
			<point x="294" y="73" type="line"/>
			<point x="204" y="73" type="line" smooth="yes"/>
			<point x="164" y="73"/>
			<point x="148" y="93"/>
			<point x="156" y="133" type="curve" smooth="yes"/>
			<point x="258" y="660" type="line"/>
			<point x="183" y="660" type="line"/>
			<point x="82" y="140" type="line" smooth="yes"/>
			<point x="63" y="42"/>
			<point x="105" y="0"/>
		</contour>
		<contour>
			<point x="30" y="427" type="line"/>
			<point x="363" y="427" type="line"/>
			<point x="377" y="500" type="line"/>
			<point x="44" y="500" type="line"/>
		</contour>
	</outline>
</glyph>
<glyph name="u" format="2">
	<advance width="544"/>
	<unicode hex="0075"/>
	<outline>
		<contour>
			<point x="157" y="-16" type="curve" smooth="yes"/>
			<point x="257" y="-16"/>
			<point x="347" y="72"/>
			<point x="359" y="151" type="curve" smooth="yes"/>
			<point x="375" y="257" type="line"/>
			<point x="346" y="110"/>
			<point x="256" y="57"/>
			<point x="186" y="57" type="curve" smooth="yes"/>
			<point x="126" y="57"/>
			<point x="92" y="102"/>
			<point x="111" y="200" type="curve" smooth="yes"/>
			<point x="169" y="500" type="line"/>
			<point x="94" y="500" type="line"/>
			<point x="32" y="182" type="line" smooth="yes"/>
			<point x="5" y="45"/>
			<point x="67" y="-16"/>
		</contour>
		<contour>
			<point x="325" y="0" type="line"/>
			<point x="400" y="0" type="line"/>
			<point x="497" y="500" type="line"/>
			<point x="422" y="500" type="line"/>
		</contour>
	</outline>
</glyph>
<glyph name="v" format="2">
	<advance width="490"/>
	<unicode hex="0076"/>
	<outline>
		<contour>
			<point x="125" y="0" type="line"/>
			<point x="219" y="0" type="line"/>
			<point x="504" y="500" type="line"/>
			<point x="422" y="500" type="line"/>
			<point x="163" y="46" type="line"/>
			<point x="192" y="41" type="line"/>
			<point x="118" y="500" type="line"/>
			<point x="44" y="500" type="line"/>
		</contour>
	</outline>
</glyph>
<glyph name="w" format="2">
	<advance width="763"/>
	<unicode hex="0077"/>
	<outline>
		<contour>
			<point x="84" y="0" type="line"/>
			<point x="182" y="0" type="line"/>
			<point x="415" y="446" type="line"/>
			<point x="382" y="446" type="line"/>
			<point x="440" y="0" type="line"/>
			<point x="543" y="0" type="line"/>
			<point x="762" y="500" type="line"/>
			<point x="679" y="500" type="line"/>
			<point x="478" y="40" type="line"/>
			<point x="504" y="41" type="line"/>
			<point x="443" y="500" type="line"/>
			<point x="366" y="500" type="line"/>
			<point x="127" y="41" type="line"/>
			<point x="155" y="40" type="line"/>
			<point x="132" y="500" type="line"/>
			<point x="59" y="500" type="line"/>
		</contour>
	</outline>
</glyph>
<glyph name="x" format="2">
	<advance width="486"/>
	<unicode hex="0078"/>
	<outline>
		<contour>
			<point x="312" y="0" type="line"/>
			<point x="393" y="0" type="line"/>
			<point x="134" y="500" type="line"/>
			<point x="53" y="500" type="line"/>
		</contour>
		<contour>
			<point x="-49" y="0" type="line"/>
			<point x="42" y="0" type="line"/>
			<point x="495" y="500" type="line"/>
			<point x="404" y="500" type="line"/>
		</contour>
	</outline>
</glyph>
<glyph name="y" format="2">
	<advance width="506"/>
	<unicode hex="0079"/>
	<outline>
		<contour>
			<point x="136" y="0" type="line"/>
			<point x="208" y="0" type="line"/>
			<point x="116" y="500" type="line"/>
			<point x="44" y="500" type="line"/>
		</contour>
		<contour>
			<point x="8" y="-200" type="line"/>
			<point x="91" y="-200" type="line"/>
			<point x="520" y="500" type="line"/>
			<point x="437" y="500" type="line"/>
		</contour>
	</outline>
</glyph>
<glyph name="z" format="2">
	<advance width="468"/>
	<unicode hex="007A"/>
	<outline>
		<contour>
			<point x="-20" y="68" type="line"/>
			<point x="68" y="68" type="line"/>
			<point x="448" y="432" type="line"/>
			<point x="361" y="432" type="line"/>
		</contour>
		<contour>
			<point x="-33" y="0" type="line"/>
			<point x="364" y="0" type="line"/>
			<point x="377" y="68" type="line"/>
			<point x="-20" y="68" type="line"/>
		</contour>
		<contour>
			<point x="51" y="432" type="line"/>
			<point x="448" y="432" type="line"/>
			<point x="461" y="500" type="line"/>
			<point x="64" y="500" type="line"/>
		</contour>
	</outline>
</glyph>
<glyph name="braceleft" format="2">
	<advance width="445"/>
	<unicode hex="007B"/>
	<outline>
		<contour>
			<point x="92" y="308" type="line"/>
			<point x="164" y="303" type="line"/>
			<point x="208" y="323"/>
			<point x="265" y="358"/>
			<point x="283" y="448" type="curve" smooth="yes"/>
			<point x="311" y="591" type="line" smooth="yes"/>
			<point x="319" y="631"/>
			<point x="343" y="643"/>
			<point x="373" y="643" type="curve" smooth="yes"/>
			<point x="451" y="643" type="line"/>
			<point x="465" y="716" type="line"/>
			<point x="387" y="716" type="line" smooth="yes"/>
			<point x="320" y="716"/>
			<point x="260" y="678"/>
			<point x="243" y="591" type="curve" smooth="yes"/>
			<point x="217" y="458" type="line" smooth="yes"/>
			<point x="202" y="379"/>
			<point x="128" y="341"/>
			<point x="98" y="341" type="curve"/>
		</contour>
		<contour>
			<point x="227" y="-110" type="curve" smooth="yes"/>
			<point x="305" y="-110" type="line"/>
			<point x="319" y="-37" type="line"/>
			<point x="241" y="-37" type="line" smooth="yes"/>
			<point x="211" y="-37"/>
			<point x="191" y="-25"/>
			<point x="199" y="15" type="curve" smooth="yes"/>
			<point x="227" y="158" type="line" smooth="yes"/>
			<point x="245" y="248"/>
			<point x="200" y="283"/>
			<point x="164" y="303" type="curve"/>
			<point x="92" y="308" type="line"/>
			<point x="85" y="275" type="line"/>
			<point x="115" y="275"/>
			<point x="175" y="238"/>
			<point x="157" y="148" type="curve" smooth="yes"/>
			<point x="131" y="15" type="line" smooth="yes"/>
			<point x="114" y="-72"/>
			<point x="160" y="-110"/>
		</contour>
	</outline>
</glyph>
<glyph name="bar" format="2">
	<advance width="274"/>
	<unicode hex="007C"/>
	<outline>
		<contour>
			<point x="13" y="-96" type="line"/>
			<point x="86" y="-96" type="line"/>
			<point x="257" y="780" type="line"/>
			<point x="184" y="780" type="line"/>
		</contour>
	</outline>
</glyph>
<glyph name="braceright" format="2">
	<advance width="445"/>
	<unicode hex="007D"/>
	<outline>
		<contour>
			<point x="262" y="303" type="curve"/>
			<point x="334" y="298" type="line"/>
			<point x="340" y="331" type="line"/>
			<point x="310" y="331"/>
			<point x="253" y="374"/>
			<point x="269" y="458" type="curve" smooth="yes"/>
			<point x="295" y="591" type="line" smooth="yes"/>
			<point x="312" y="678"/>
			<point x="266" y="716"/>
			<point x="199" y="716" type="curve" smooth="yes"/>
			<point x="121" y="716" type="line"/>
			<point x="107" y="643" type="line"/>
			<point x="185" y="643" type="line" smooth="yes"/>
			<point x="215" y="643"/>
			<point x="235" y="631"/>
			<point x="227" y="591" type="curve" smooth="yes"/>
			<point x="199" y="448" type="line" smooth="yes"/>
			<point x="181" y="358"/>
			<point x="226" y="323"/>
		</contour>
		<contour>
			<point x="-39" y="-110" type="line"/>
			<point x="39" y="-110" type="line" smooth="yes"/>
			<point x="106" y="-110"/>
			<point x="166" y="-72"/>
			<point x="183" y="15" type="curve" smooth="yes"/>
			<point x="209" y="148" type="line" smooth="yes"/>
			<point x="224" y="227"/>
			<point x="297" y="265"/>
			<point x="327" y="265" type="curve"/>
			<point x="334" y="298" type="line"/>
			<point x="262" y="303" type="line"/>
			<point x="218" y="283"/>
			<point x="161" y="248"/>
			<point x="143" y="158" type="curve" smooth="yes"/>
			<point x="115" y="15" type="line" smooth="yes"/>
			<point x="107" y="-25"/>
			<point x="83" y="-37"/>
			<point x="53" y="-37" type="curve" smooth="yes"/>
			<point x="-25" y="-37" type="line"/>
		</contour>
	</outline>
</glyph>
<glyph name="asciitilde" format="2">
	<advance width="482"/>
	<unicode hex="007E"/>
	<outline>
		<contour>
			<point x="108" y="225" type="line"/>
			<point x="112" y="245"/>
			<point x="124" y="291"/>
			<point x="157" y="291" type="curve" smooth="yes"/>
			<point x="197" y="291"/>
			<point x="230" y="235"/>
			<point x="300" y="235" type="curve" smooth="yes"/>
			<point x="360" y="235"/>
			<point x="408" y="284"/>
			<point x="422" y="354" type="curve"/>
			<point x="351" y="364" type="line"/>
			<point x="347" y="344"/>
			<point x="342" y="298"/>
			<point x="302" y="298" type="curve" smooth="yes"/>
			<point x="262" y="298"/>
			<point x="229" y="354"/>
			<point x="159" y="354" type="curve" smooth="yes"/>
			<point x="96" y="354"/>
			<point x="50" y="305"/>
			<point x="37" y="235" type="curve"/>
		</contour>
	</outline>
</glyph>
<glyph name="cent" format="2">
	<advance width="545"/>
	<unicode hex="00A2"/>
	<outline>
		<contour>
			<point x="246" y="76" type="curve" smooth="yes"/>
			<point x="356" y="76"/>
			<point x="445" y="134"/>
			<point x="485" y="279" type="curve"/>
			<point x="409" y="289" type="line"/>
			<point x="387" y="202"/>
			<point x="336" y="149"/>
			<point x="246" y="149" type="curve" smooth="yes"/>
			<point x="156" y="149"/>
			<point x="100" y="235"/>
			<point x="123" y="353" type="curve" smooth="yes"/>
			<point x="142" y="451"/>
			<point x="215" y="535"/>
			<point x="315" y="535" type="curve" smooth="yes"/>
			<point x="395" y="535"/>
			<point x="439" y="469"/>
			<point x="429" y="389" type="curve"/>
			<point x="509" y="399" type="line"/>
			<point x="520" y="498"/>
			<point x="455" y="608"/>
			<point x="315" y="608" type="curve" smooth="yes"/>
			<point x="205" y="608"/>
			<point x="77" y="520"/>
			<point x="45" y="353" type="curve" smooth="yes"/>
			<point x="17" y="205"/>
			<point x="106" y="76"/>
		</contour>
		<contour>
			<point x="155" y="-116" type="line"/>
			<point x="218" y="-116" type="line"/>
			<point x="396" y="800" type="line"/>
			<point x="333" y="800" type="line"/>
		</contour>
	</outline>
</glyph>
<glyph name="sterling" format="2">
	<advance width="681"/>
	<unicode hex="00A3"/>
	<outline>
		<contour>
			<point x="12" y="0" type="line"/>
			<point x="514" y="0" type="line"/>
			<point x="528" y="73" type="line"/>
			<point x="77" y="73" type="line"/>
			<point x="81" y="49" type="line"/>
			<point x="330" y="181"/>
			<point x="209" y="321"/>
			<point x="245" y="504" type="curve" smooth="yes"/>
			<point x="261" y="587"/>
			<point x="347" y="643"/>
			<point x="427" y="643" type="curve" smooth="yes"/>
			<point x="527" y="643"/>
			<point x="573" y="575"/>
			<point x="555" y="485" type="curve"/>
			<point x="630" y="495" type="line"/>
			<point x="653" y="613"/>
			<point x="579" y="716"/>
			<point x="441" y="716" type="curve" smooth="yes"/>
			<point x="301" y="716"/>
			<point x="190" y="623"/>
			<point x="167" y="503" type="curve" smooth="yes"/>
			<point x="125" y="288"/>
			<point x="244" y="218"/>
			<point x="26" y="73" type="curve"/>
		</contour>
		<contour>
			<point x="10" y="297" type="line"/>
			<point x="449" y="297" type="line"/>
			<point x="463" y="370" type="line"/>
			<point x="24" y="370" type="line"/>
		</contour>
	</outline>
</glyph>
<glyph name="currency" format="2">
	<advance width="647"/>
	<unicode hex="00A4"/>
	<outline>
		<contour>
			<point x="270" y="77" type="curve" smooth="yes"/>
			<point x="390" y="77"/>
			<point x="506" y="174"/>
			<point x="529" y="294" type="curve" smooth="yes"/>
			<point x="552" y="414"/>
			<point x="474" y="511"/>
			<point x="354" y="511" type="curve" smooth="yes"/>
			<point x="234" y="511"/>
			<point x="118" y="414"/>
			<point x="95" y="294" type="curve" smooth="yes"/>
			<point x="72" y="174"/>
			<point x="150" y="77"/>
		</contour>
		<contour>
			<point x="73" y="51" type="line"/>
			<point x="178" y="137" type="line"/>
			<point x="153" y="204" type="line"/>
			<point x="32" y="103" type="line"/>
		</contour>
		<contour>
			<point x="457" y="51" type="line"/>
			<point x="518" y="103" type="line"/>
			<point x="445" y="193" type="line"/>
			<point x="378" y="149" type="line"/>
		</contour>
		<contour>
			<point x="284" y="151" type="curve" smooth="yes"/>
			<point x="204" y="151"/>
			<point x="153" y="215"/>
			<point x="168" y="295" type="curve" smooth="yes"/>
			<point x="184" y="374"/>
			<point x="260" y="438"/>
			<point x="340" y="438" type="curve" smooth="yes"/>
			<point x="419" y="438"/>
			<point x="471" y="374"/>
			<point x="455" y="295" type="curve" smooth="yes"/>
			<point x="440" y="215"/>
			<point x="363" y="151"/>
		</contour>
		<contour>
			<point x="181" y="394" type="line"/>
			<point x="245" y="442" type="line"/>
			<point x="168" y="537" type="line"/>
			<point x="106" y="486" type="line"/>
		</contour>
		<contour>
			<point x="485" y="396" type="line"/>
			<point x="592" y="486" type="line"/>
			<point x="550" y="537" type="line"/>
			<point x="442" y="446" type="line"/>
		</contour>
	</outline>
</glyph>
<glyph name="yen" format="2">
	<advance width="628"/>
	<unicode hex="00A5"/>
	<outline>
		<contour>
			<point x="338" y="279" type="line"/>
			<point x="675" y="700" type="line"/>
			<point x="583" y="700" type="line"/>
			<point x="275" y="315" type="line"/>
		</contour>
		<contour>
			<point x="58" y="270" type="line"/>
			<point x="537" y="270" type="line"/>
			<point x="550" y="333" type="line"/>
			<point x="71" y="333" type="line"/>
		</contour>
		<contour>
			<point x="33" y="137" type="line"/>
			<point x="512" y="137" type="line"/>
			<point x="524" y="200" type="line"/>
			<point x="45" y="200" type="line"/>
		</contour>
		<contour>
			<point x="206" y="0" type="line"/>
			<point x="284" y="0" type="line"/>
			<point x="346" y="317" type="line"/>
			<point x="268" y="317" type="line"/>
		</contour>
		<contour>
			<point x="260" y="279" type="line"/>
			<point x="329" y="315" type="line"/>
			<point x="171" y="700" type="line"/>
			<point x="87" y="700" type="line"/>
		</contour>
	</outline>
</glyph>
<glyph name="brokenbar" format="2">
	<advance width="274"/>
	<unicode hex="00A6"/>
	<outline>
		<contour>
			<point x="108" y="392" type="line"/>
			<point x="181" y="392" type="line"/>
			<point x="257" y="780" type="line"/>
			<point x="184" y="780" type="line"/>
		</contour>
		<contour>
			<point x="13" y="-96" type="line"/>
			<point x="86" y="-96" type="line"/>
			<point x="162" y="292" type="line"/>
			<point x="89" y="292" type="line"/>
		</contour>
	</outline>
</glyph>
<glyph name="section" format="2">
	<advance width="480"/>
	<unicode hex="00A7"/>
	<outline>
		<contour>
			<point x="265" y="172" type="line"/>
			<point x="276" y="172"/>
			<point x="398" y="188"/>
			<point x="417" y="288" type="curve" smooth="yes"/>
			<point x="452" y="468"/>
			<point x="157" y="438"/>
			<point x="180" y="558" type="curve" smooth="yes"/>
			<point x="188" y="598"/>
			<point x="232" y="643"/>
			<point x="292" y="643" type="curve" smooth="yes"/>
			<point x="352" y="643"/>
			<point x="390" y="600"/>
			<point x="376" y="530" type="curve"/>
			<point x="456" y="540" type="line"/>
			<point x="473" y="630"/>
			<point x="416" y="716"/>
			<point x="306" y="716" type="curve" smooth="yes"/>
			<point x="196" y="716"/>
			<point x="118" y="638"/>
			<point x="102" y="558" type="curve" smooth="yes"/>
			<point x="65" y="368"/>
			<point x="364" y="418"/>
			<point x="339" y="288" type="curve" smooth="yes"/>
			<point x="329" y="238"/>
			<point x="273" y="205"/>
			<point x="223" y="205" type="curve"/>
		</contour>
		<contour>
			<point x="159" y="-84" type="curve" smooth="yes"/>
			<point x="269" y="-84"/>
			<point x="347" y="-6"/>
			<point x="362" y="74" type="curve" smooth="yes"/>
			<point x="399" y="264"/>
			<point x="101" y="214"/>
			<point x="126" y="344" type="curve" smooth="yes"/>
			<point x="136" y="394"/>
			<point x="192" y="427"/>
			<point x="242" y="427" type="curve"/>
			<point x="199" y="460" type="line"/>
			<point x="188" y="460"/>
			<point x="67" y="444"/>
			<point x="48" y="344" type="curve" smooth="yes"/>
			<point x="13" y="164"/>
			<point x="308" y="194"/>
			<point x="284" y="74" type="curve" smooth="yes"/>
			<point x="277" y="34"/>
			<point x="233" y="-11"/>
			<point x="173" y="-11" type="curve" smooth="yes"/>
			<point x="113" y="-11"/>
			<point x="75" y="32"/>
			<point x="89" y="102" type="curve"/>
			<point x="9" y="92" type="line"/>
			<point x="-9" y="2"/>
			<point x="49" y="-84"/>
		</contour>
	</outline>
</glyph>
<glyph name="dieresis" format="2">
	<advance width="509"/>
	<unicode hex="00A8"/>
	<outline>
		<contour>
			<point x="333" y="580" type="line"/>
			<point x="413" y="580" type="line"/>
			<point x="428" y="660" type="line"/>
			<point x="348" y="660" type="line"/>
		</contour>
		<contour>
			<point x="185" y="580" type="line"/>
			<point x="265" y="580" type="line"/>
			<point x="280" y="660" type="line"/>
			<point x="200" y="660" type="line"/>
		</contour>
	</outline>
</glyph>
<glyph name="copyright" format="2">
	<advance width="835"/>
	<unicode hex="00A9"/>
	<outline>
		<contour>
			<point x="380" y="146" type="curve" smooth="yes"/>
			<point x="473" y="146"/>
			<point x="542" y="191"/>
			<point x="572" y="295" type="curve"/>
			<point x="507" y="295" type="line"/>
			<point x="491" y="249"/>
			<point x="454" y="208"/>
			<point x="388" y="208" type="curve" smooth="yes"/>
			<point x="322" y="208"/>
			<point x="282" y="270"/>
			<point x="299" y="356" type="curve" smooth="yes"/>
			<point x="314" y="429"/>
			<point x="366" y="490"/>
			<point x="439" y="490" type="curve" smooth="yes"/>
			<point x="499" y="490"/>
			<point x="530" y="439"/>
			<point x="520" y="398" type="curve"/>
			<point x="589" y="398" type="line"/>
			<point x="599" y="465"/>
			<point x="548" y="553"/>
			<point x="447" y="553" type="curve" smooth="yes"/>
			<point x="355" y="553"/>
			<point x="257" y="486"/>
			<point x="233" y="358" type="curve" smooth="yes"/>
			<point x="212" y="245"/>
			<point x="280" y="146"/>
		</contour>
		<component base="whiteCircle" xOffset="-30"/>
	</outline>
</glyph>
<glyph name="logicalnot" format="2">
	<advance width="662"/>
	<unicode hex="00AC"/>
	<outline>
		<contour>
			<point x="84" y="270" type="line"/>
			<point x="545" y="270" type="line"/>
			<point x="558" y="336" type="line"/>
			<point x="97" y="336" type="line"/>
		</contour>
		<contour>
			<point x="442" y="76" type="line"/>
			<point x="508" y="76" type="line"/>
			<point x="545" y="270" type="line"/>
			<point x="479" y="270" type="line"/>
		</contour>
	</outline>
</glyph>
<glyph name="registered" format="2">
	<advance width="538"/>
	<unicode hex="00AE"/>
	<outline>
		<contour>
			<point x="298" y="286" type="curve" smooth="yes"/>
			<point x="418" y="286"/>
			<point x="513" y="381"/>
			<point x="513" y="501" type="curve" smooth="yes"/>
			<point x="513" y="621"/>
			<point x="418" y="716"/>
			<point x="298" y="716" type="curve" smooth="yes"/>
			<point x="179" y="716"/>
			<point x="83" y="621"/>
			<point x="83" y="501" type="curve" smooth="yes"/>
			<point x="83" y="381"/>
			<point x="179" y="286"/>
		</contour>
		<contour>
			<point x="298" y="323" type="curve" smooth="yes"/>
			<point x="199" y="323"/>
			<point x="120" y="402"/>
			<point x="120" y="501" type="curve" smooth="yes"/>
			<point x="120" y="601"/>
			<point x="199" y="679"/>
			<point x="298" y="679" type="curve" smooth="yes"/>
			<point x="399" y="679"/>
			<point x="476" y="601"/>
			<point x="476" y="501" type="curve" smooth="yes"/>
			<point x="476" y="402"/>
			<point x="399" y="323"/>
		</contour>
		<contour>
			<point x="207" y="393" type="line"/>
			<point x="245" y="393" type="line"/>
			<point x="262" y="480" type="line"/>
			<point x="304" y="480" type="line" smooth="yes"/>
			<point x="332" y="480"/>
			<point x="334" y="470"/>
			<point x="330" y="446" type="curve" smooth="yes"/>
			<point x="322" y="393" type="line"/>
			<point x="360" y="393" type="line"/>
			<point x="367" y="442" type="line" smooth="yes"/>
			<point x="374" y="492"/>
			<point x="360" y="497"/>
			<point x="308" y="497" type="curve"/>
			<point x="307" y="496" type="line"/>
			<point x="342" y="496"/>
			<point x="380" y="506"/>
			<point x="387" y="545" type="curve" smooth="yes"/>
			<point x="395" y="584"/>
			<point x="363" y="611"/>
			<point x="323" y="611" type="curve" smooth="yes"/>
			<point x="250" y="611" type="line"/>
		</contour>
		<contour>
			<point x="269" y="516" type="line"/>
			<point x="281" y="575" type="line"/>
			<point x="316" y="575" type="line" smooth="yes"/>
			<point x="341" y="575"/>
			<point x="353" y="568"/>
			<point x="349" y="545" type="curve" smooth="yes"/>
			<point x="344" y="522"/>
			<point x="329" y="516"/>
			<point x="304" y="516" type="curve" smooth="yes"/>
		</contour>
	</outline>
</glyph>
<glyph name="macron" format="2">
	<advance width="562"/>
	<unicode hex="00AF"/>
	<outline>
		<contour>
			<point x="184" y="580" type="line"/>
			<point x="466" y="580" type="line"/>
			<point x="478" y="643" type="line"/>
			<point x="196" y="643" type="line"/>
		</contour>
	</outline>
</glyph>
<glyph name="degree" format="2">
	<advance width="422"/>
	<unicode hex="00B0"/>
	<outline>
		<contour>
			<point x="237" y="392" type="curve" smooth="yes"/>
			<point x="329" y="392"/>
			<point x="413" y="470"/>
			<point x="422" y="562" type="curve" smooth="yes"/>
			<point x="430" y="654"/>
			<point x="358" y="732"/>
			<point x="266" y="732" type="curve" smooth="yes"/>
			<point x="174" y="732"/>
			<point x="90" y="654"/>
			<point x="82" y="562" type="curve" smooth="yes"/>
			<point x="73" y="470"/>
			<point x="145" y="392"/>
		</contour>
		<contour>
			<point x="243" y="465" type="curve" smooth="yes"/>
			<point x="191" y="465"/>
			<point x="150" y="510"/>
			<point x="155" y="562" type="curve" smooth="yes"/>
			<point x="159" y="614"/>
			<point x="208" y="659"/>
			<point x="260" y="659" type="curve" smooth="yes"/>
			<point x="312" y="659"/>
			<point x="353" y="614"/>
			<point x="349" y="562" type="curve" smooth="yes"/>
			<point x="344" y="510"/>
			<point x="295" y="465"/>
		</contour>
	</outline>
</glyph>
<glyph name="plusminus" format="2">
	<advance width="599"/>
	<unicode hex="00B1"/>
	<outline>
		<contour>
			<point x="223" y="150" type="line"/>
			<point x="296" y="150" type="line"/>
			<point x="381" y="589" type="line"/>
			<point x="308" y="589" type="line"/>
		</contour>
		<contour>
			<point x="11" y="-1" type="line"/>
			<point x="450" y="-1" type="line"/>
			<point x="464" y="72" type="line"/>
			<point x="25" y="72" type="line"/>
		</contour>
		<contour>
			<point x="76" y="332" type="line"/>
			<point x="515" y="332" type="line"/>
			<point x="529" y="405" type="line"/>
			<point x="90" y="405" type="line"/>
		</contour>
	</outline>
</glyph>
<glyph name="acute" format="2">
	<advance width="433"/>
	<unicode hex="00B4"/>
	<outline>
		<contour>
			<point x="184" y="580" type="line"/>
			<point x="247" y="580" type="line"/>
			<point x="366" y="730" type="line"/>
			<point x="273" y="730" type="line"/>
		</contour>
	</outline>
</glyph>
<glyph name="paragraph" format="2">
	<advance width="679"/>
	<unicode hex="00B6"/>
	<outline>
		<contour>
			<point x="273" y="309" type="curve" smooth="yes"/>
			<point x="361" y="309" type="line"/>
			<point x="375" y="382" type="line"/>
			<point x="287" y="382" type="line" smooth="yes"/>
			<point x="197" y="382"/>
			<point x="143" y="426"/>
			<point x="158" y="505" type="curve" smooth="yes"/>
			<point x="175" y="593"/>
			<point x="245" y="627"/>
			<point x="335" y="627" type="curve" smooth="yes"/>
			<point x="672" y="627" type="line"/>
			<point x="686" y="700" type="line"/>
			<point x="349" y="700" type="line" smooth="yes"/>
			<point x="189" y="700"/>
			<point x="103" y="623"/>
			<point x="80" y="505" type="curve" smooth="yes"/>
			<point x="61" y="407"/>
			<point x="133" y="309"/>
		</contour>
		<contour>
			<point x="240" y="-70" type="line"/>
			<point x="318" y="-70" type="line"/>
			<point x="468" y="700" type="line"/>
			<point x="390" y="700" type="line"/>
		</contour>
		<contour>
			<point x="398" y="-70" type="line"/>
			<point x="476" y="-70" type="line"/>
			<point x="626" y="700" type="line"/>
			<point x="548" y="700" type="line"/>
		</contour>
	</outline>
</glyph>
<glyph name="periodcentered" format="2">
	<advance width="241"/>
	<unicode hex="00B7"/>
	<outline>
		<contour>
			<point x="71" y="305" type="line"/>
			<point x="151" y="305" type="line"/>
			<point x="169" y="395" type="line"/>
			<point x="89" y="395" type="line"/>
		</contour>
	</outline>
</glyph>
<glyph name="cedilla" format="2">
	<advance width="458"/>
	<unicode hex="00B8"/>
	<outline>
		<contour>
			<point x="128" y="-216" type="curve" smooth="yes"/>
			<point x="183" y="-216"/>
			<point x="215" y="-177"/>
			<point x="223" y="-137" type="curve" smooth="yes"/>
			<point x="233" y="-83"/>
			<point x="203" y="-48"/>
			<point x="153" y="-48" type="curve" smooth="yes"/>
			<point x="128" y="-48"/>
			<point x="102" y="-70"/>
			<point x="93" y="-88" type="curve"/>
			<point x="109" y="-111" type="line"/>
			<point x="112" y="-107"/>
			<point x="122" y="-94"/>
			<point x="142" y="-94" type="curve" smooth="yes"/>
			<point x="162" y="-94"/>
			<point x="172" y="-112"/>
			<point x="169" y="-127" type="curve" smooth="yes"/>
			<point x="165" y="-147"/>
			<point x="149" y="-160"/>
			<point x="129" y="-160" type="curve" smooth="yes"/>
			<point x="109" y="-160"/>
			<point x="102" y="-150"/>
			<point x="102" y="-135" type="curve"/>
			<point x="43" y="-145" type="line"/>
			<point x="40" y="-175"/>
			<point x="68" y="-216"/>
		</contour>
		<contour>
			<point x="109" y="-111" type="line"/>
			<point x="194" y="25" type="line"/>
			<point x="144" y="25" type="line"/>
			<point x="83" y="-88" type="line"/>
		</contour>
	</outline>
</glyph>
<glyph name="AE" format="2">
	<advance width="851"/>
	<unicode hex="00C6"/>
	<outline>
		<contour>
			<point x="418" y="627" type="line"/>
			<point x="849" y="627" type="line"/>
			<point x="863" y="700" type="line"/>
			<point x="432" y="700" type="line"/>
		</contour>
		<component base="A"/>
		<contour>
			<point x="481" y="0" type="line"/>
			<point x="727" y="0" type="line"/>
			<point x="741" y="73" type="line"/>
			<point x="495" y="73" type="line"/>
		</contour>
		<contour>
			<point x="441" y="327" type="line"/>
			<point x="731" y="327" type="line"/>
			<point x="745" y="400" type="line"/>
			<point x="455" y="400" type="line"/>
		</contour>
	</outline>
</glyph>
<glyph name="multiply" format="2">
	<advance width="551"/>
	<unicode hex="00D7"/>
	<outline>
		<contour>
			<point x="84" y="102" type="line"/>
			<point x="488" y="440" type="line"/>
			<point x="448" y="492" type="line"/>
			<point x="43" y="153" type="line"/>
		</contour>
		<contour>
			<point x="371" y="101" type="line"/>
			<point x="432" y="152" type="line"/>
			<point x="159" y="491" type="line"/>
			<point x="97" y="440" type="line"/>
		</contour>
	</outline>
</glyph>
<glyph name="Oslash" format="2">
	<advance width="744"/>
	<unicode hex="00D8"/>
	<outline>
		<contour>
			<point x="-81" y="-66" type="line"/>
			<point x="7" y="-66" type="line"/>
			<point x="824" y="765" type="line"/>
			<point x="736" y="765" type="line"/>
		</contour>
		<component base="O" xOffset="-10"/>
	</outline>
</glyph>
<glyph name="Thorn" format="2">
	<advance width="596"/>
	<unicode hex="00DE"/>
	<outline>
		<contour>
			<point x="79" y="155" type="line"/>
			<point x="266" y="155" type="line" smooth="yes"/>
			<point x="426" y="155"/>
			<point x="512" y="232"/>
			<point x="535" y="350" type="curve" smooth="yes"/>
			<point x="554" y="448"/>
			<point x="482" y="546"/>
			<point x="342" y="546" type="curve" smooth="yes"/>
			<point x="155" y="546" type="line"/>
			<point x="141" y="473" type="line"/>
			<point x="328" y="473" type="line" smooth="yes"/>
			<point x="418" y="473"/>
			<point x="472" y="429"/>
			<point x="457" y="350" type="curve" smooth="yes"/>
			<point x="438" y="252"/>
			<point x="370" y="228"/>
			<point x="280" y="228" type="curve" smooth="yes"/>
			<point x="93" y="228" type="line"/>
		</contour>
		<contour>
			<point x="16" y="0" type="line"/>
			<point x="94" y="0" type="line"/>
			<point x="230" y="700" type="line"/>
			<point x="152" y="700" type="line"/>
		</contour>
	</outline>
</glyph>
<glyph name="germandbls" format="2">
	<advance width="558"/>
	<unicode hex="00DF"/>
	<outline>
		<contour>
			<point x="172" y="0" type="line"/>
			<point x="212" y="0" type="line" smooth="yes"/>
			<point x="382" y="0"/>
			<point x="461" y="83"/>
			<point x="482" y="191" type="curve" smooth="yes"/>
			<point x="501" y="291"/>
			<point x="446" y="380"/>
			<point x="316" y="380" type="curve"/>
			<point x="311" y="356" type="line"/>
			<point x="411" y="356"/>
			<point x="494" y="432"/>
			<point x="513" y="530" type="curve" smooth="yes"/>
			<point x="534" y="638"/>
			<point x="451" y="716"/>
			<point x="351" y="716" type="curve" smooth="yes"/>
			<point x="241" y="716"/>
			<point x="136" y="667"/>
			<point x="104" y="500" type="curve"/>
			<point x="179" y="500" type="line"/>
			<point x="199" y="600"/>
			<point x="257" y="643"/>
			<point x="337" y="643" type="curve" smooth="yes"/>
			<point x="410" y="643"/>
			<point x="449" y="600"/>
			<point x="435" y="530" type="curve" smooth="yes"/>
			<point x="421" y="461"/>
			<point x="363" y="402"/>
			<point x="285" y="402" type="curve" smooth="yes"/>
			<point x="250" y="402" type="line"/>
			<point x="236" y="329" type="line"/>
			<point x="286" y="329" type="line" smooth="yes"/>
			<point x="386" y="329"/>
			<point x="419" y="270"/>
			<point x="403" y="191" type="curve" smooth="yes"/>
			<point x="391" y="132"/>
			<point x="346" y="73"/>
			<point x="236" y="73" type="curve" smooth="yes"/>
			<point x="186" y="73" type="line"/>
		</contour>
		<contour>
			<point x="7" y="0" type="line"/>
			<point x="82" y="0" type="line"/>
			<point x="179" y="500" type="line"/>
			<point x="104" y="500" type="line"/>
		</contour>
	</outline>
</glyph>
<glyph name="ae" format="2">
	<advance width="884"/>
	<unicode hex="00E6"/>
	<outline>
		<contour>
			<point x="562" y="-16" type="curve" smooth="yes"/>
			<point x="672" y="-16"/>
			<point x="756" y="46"/>
			<point x="795" y="144" type="curve"/>
			<point x="719" y="154" type="line"/>
			<point x="701" y="114"/>
			<point x="666" y="57"/>
			<point x="576" y="57" type="curve" smooth="yes"/>
			<point x="476" y="57"/>
			<point x="424" y="140"/>
			<point x="442" y="230" type="curve"/>
			<point x="815" y="230" type="line"/>
			<point x="821" y="265" type="line" smooth="yes"/>
			<point x="850" y="433"/>
			<point x="752" y="516"/>
			<point x="632" y="516" type="curve" smooth="yes"/>
			<point x="512" y="516"/>
			<point x="403" y="432"/>
			<point x="370" y="265" type="curve" smooth="yes"/>
			<point x="340" y="108"/>
			<point x="432" y="-16"/>
		</contour>
		<contour>
			<point x="172" y="57" type="curve" smooth="yes"/>
			<point x="112" y="57"/>
			<point x="78" y="93"/>
			<point x="90" y="152" type="curve" smooth="yes"/>
			<point x="105" y="231"/>
			<point x="186" y="233"/>
			<point x="256" y="235" type="curve" smooth="yes"/>
			<point x="316" y="237"/>
			<point x="377" y="254"/>
			<point x="391" y="323" type="curve"/>
			<point x="379" y="313" type="line"/>
			<point x="365" y="243" type="line" smooth="yes"/>
			<point x="341" y="125"/>
			<point x="262" y="57"/>
		</contour>
		<contour>
			<point x="158" y="-16" type="curve" smooth="yes"/>
			<point x="268" y="-16"/>
			<point x="370" y="62"/>
			<point x="393" y="180" type="curve"/>
			<point x="456" y="323" type="line"/>
			<point x="479" y="441"/>
			<point x="410" y="516"/>
			<point x="280" y="516" type="curve" smooth="yes"/>
			<point x="160" y="516"/>
			<point x="82" y="446"/>
			<point x="63" y="348" type="curve"/>
			<point x="134" y="338" type="line"/>
			<point x="147" y="407"/>
			<point x="196" y="443"/>
			<point x="276" y="443" type="curve" smooth="yes"/>
			<point x="356" y="443"/>
			<point x="387" y="412"/>
			<point x="389" y="372" type="curve" smooth="yes"/>
			<point x="391" y="332"/>
			<point x="366" y="306"/>
			<point x="276" y="303" type="curve" smooth="yes"/>
			<point x="146" y="299"/>
			<point x="36" y="280"/>
			<point x="11" y="152" type="curve" smooth="yes"/>
			<point x="-6" y="64"/>
			<point x="58" y="-16"/>
		</contour>
		<contour>
			<point x="455" y="298" type="line"/>
			<point x="468" y="367"/>
			<point x="522" y="443"/>
			<point x="622" y="443" type="curve" smooth="yes"/>
			<point x="712" y="443"/>
			<point x="769" y="396"/>
			<point x="750" y="298" type="curve"/>
		</contour>
	</outline>
</glyph>
<glyph name="eth" format="2">
	<advance width="588"/>
	<unicode hex="00F0"/>
	<outline>
		<contour>
			<point x="228" y="-16" type="curve" smooth="yes"/>
			<point x="378" y="-16"/>
			<point x="477" y="90"/>
			<point x="514" y="276" type="curve" smooth="yes"/>
			<point x="569" y="561"/>
			<point x="436" y="716"/>
			<point x="236" y="716" type="curve"/>
			<point x="223" y="648" type="line"/>
			<point x="403" y="648"/>
			<point x="492" y="525"/>
			<point x="444" y="280" type="curve"/>
			<point x="457" y="270" type="line"/>
			<point x="479" y="380"/>
			<point x="417" y="465"/>
			<point x="293" y="465" type="curve" smooth="yes"/>
			<point x="170" y="465"/>
			<point x="48" y="371"/>
			<point x="20" y="224" type="curve" smooth="yes"/>
			<point x="-3" y="106"/>
			<point x="78" y="-16"/>
		</contour>
		<contour>
			<point x="228" y="57" type="curve" smooth="yes"/>
			<point x="138" y="57"/>
			<point x="80" y="134"/>
			<point x="98" y="226" type="curve" smooth="yes"/>
			<point x="116" y="318"/>
			<point x="183" y="392"/>
			<point x="293" y="392" type="curve" smooth="yes"/>
			<point x="383" y="392"/>
			<point x="445" y="318"/>
			<point x="427" y="226" type="curve" smooth="yes"/>
			<point x="409" y="134"/>
			<point x="338" y="57"/>
		</contour>
		<contour>
			<point x="221" y="505" type="line"/>
			<point x="557" y="650" type="line"/>
			<point x="543" y="695" type="line"/>
			<point x="207" y="550" type="line"/>
		</contour>
	</outline>
</glyph>
<glyph name="divide" format="2">
	<advance width="600"/>
	<unicode hex="00F7"/>
	<outline>
		<contour>
			<point x="62" y="259" type="line"/>
			<point x="501" y="259" type="line"/>
			<point x="516" y="332" type="line"/>
			<point x="77" y="332" type="line"/>
		</contour>
		<contour>
			<point x="254" y="79" type="curve" smooth="yes"/>
			<point x="281" y="79"/>
			<point x="307" y="102"/>
			<point x="307" y="129" type="curve" smooth="yes"/>
			<point x="307" y="156"/>
			<point x="287" y="179"/>
			<point x="260" y="179" type="curve" smooth="yes"/>
			<point x="233" y="179"/>
			<point x="207" y="156"/>
			<point x="207" y="129" type="curve" smooth="yes"/>
			<point x="207" y="102"/>
			<point x="227" y="79"/>
		</contour>
		<contour>
			<point x="319" y="412" type="curve" smooth="yes"/>
			<point x="346" y="412"/>
			<point x="372" y="435"/>
			<point x="372" y="462" type="curve" smooth="yes"/>
			<point x="372" y="489"/>
			<point x="352" y="512"/>
			<point x="325" y="512" type="curve" smooth="yes"/>
			<point x="298" y="512"/>
			<point x="272" y="489"/>
			<point x="272" y="462" type="curve" smooth="yes"/>
			<point x="272" y="435"/>
			<point x="292" y="412"/>
		</contour>
	</outline>
</glyph>
<glyph name="thorn" format="2">
	<advance width="581"/>
	<unicode hex="00FE"/>
	<outline>
		<contour>
			<point x="-32" y="-200" type="line"/>
			<point x="43" y="-200" type="line"/>
			<point x="218" y="700" type="line"/>
			<point x="143" y="700" type="line"/>
		</contour>
		<contour>
			<point x="265" y="-16" type="curve" smooth="yes"/>
			<point x="365" y="-16"/>
			<point x="482" y="78"/>
			<point x="515" y="245" type="curve" smooth="yes"/>
			<point x="545" y="402"/>
			<point x="462" y="516"/>
			<point x="352" y="516" type="curve" smooth="yes"/>
			<point x="252" y="516"/>
			<point x="163" y="448"/>
			<point x="141" y="330" type="curve" smooth="yes"/>
			<point x="110" y="170" type="line" smooth="yes"/>
			<point x="90" y="72"/>
			<point x="155" y="-16"/>
		</contour>
		<contour>
			<point x="255" y="57" type="curve" smooth="yes"/>
			<point x="175" y="57"/>
			<point x="109" y="132"/>
			<point x="132" y="250" type="curve" smooth="yes"/>
			<point x="155" y="368"/>
			<point x="242" y="443"/>
			<point x="322" y="443" type="curve" smooth="yes"/>
			<point x="412" y="443"/>
			<point x="459" y="364"/>
			<point x="436" y="245" type="curve" smooth="yes"/>
			<point x="415" y="138"/>
			<point x="335" y="57"/>
		</contour>
	</outline>
</glyph>
<glyph name="Dcroat" format="2">
	<advance width="668"/>
	<unicode hex="0110"/>
	<outline>
		<contour>
			<point x="10" y="323" type="line"/>
			<point x="300" y="323" type="line"/>
			<point x="310" y="377" type="line"/>
			<point x="20" y="377" type="line"/>
		</contour>
		<component base="D" xOffset="20"/>
	</outline>
</glyph>
<glyph name="dcroat" format="2">
	<advance width="590"/>
	<unicode hex="0111"/>
	<outline>
		<contour>
			<point x="287" y="573" type="line"/>
			<point x="647" y="573" type="line"/>
			<point x="658" y="627" type="line"/>
			<point x="298" y="627" type="line"/>
		</contour>
		<component base="d"/>
	</outline>
</glyph>
<glyph name="Hbar" format="2">
	<advance width="676"/>
	<unicode hex="0126"/>
	<outline>
		<contour>
			<point x="54" y="530" type="line"/>
			<point x="690" y="530" type="line"/>
			<point x="702" y="590" type="line"/>
			<point x="66" y="590" type="line"/>
		</contour>
		<component base="H" xOffset="4"/>
	</outline>
</glyph>
<glyph name="hbar" format="2">
	<advance width="553"/>
	<unicode hex="0127"/>
	<outline>
		<contour>
			<point x="28" y="573" type="line"/>
			<point x="388" y="573" type="line"/>
			<point x="399" y="627" type="line"/>
			<point x="39" y="627" type="line"/>
		</contour>
		<component base="h" xOffset="5"/>
	</outline>
</glyph>
<glyph name="ibreve" format="2">
	<advance width="170"/>
	<unicode hex="012D"/>
	<outline>
		<contour>
			<point x="129" y="580" type="curve" smooth="yes"/>
			<point x="212" y="580"/>
			<point x="262" y="646"/>
			<point x="278" y="730" type="curve"/>
			<point x="214" y="730" type="line"/>
			<point x="202" y="672"/>
			<point x="178" y="644"/>
			<point x="141" y="644" type="curve" smooth="yes"/>
			<point x="104" y="644"/>
			<point x="92" y="672"/>
			<point x="102" y="730" type="curve"/>
			<point x="38" y="730" type="line"/>
			<point x="22" y="646"/>
			<point x="45" y="580"/>
		</contour>
		<component base="idotless" xOffset="-29"/>
	</outline>
</glyph>
<glyph name="idotless" format="2">
	<advance width="226"/>
	<unicode hex="0131"/>
	<outline>
		<contour>
			<point x="7" y="0" type="line"/>
			<point x="82" y="0" type="line"/>
			<point x="179" y="500" type="line"/>
			<point x="104" y="500" type="line"/>
		</contour>
	</outline>
</glyph>
<glyph name="lslash" format="2">
	<advance width="291"/>
	<unicode hex="0142"/>
	<outline>
		<component base="l" xOffset="33"/>
		<contour>
			<point x="28" y="265" type="line"/>
			<point x="252" y="385" type="line"/>
			<point x="263" y="445" type="line"/>
			<point x="40" y="325" type="line"/>
		</contour>
	</outline>
</glyph>
<glyph name="Eng" format="2">
	<advance width="716"/>
	<unicode hex="014A"/>
	<outline>
		<contour>
			<point x="298" y="-200" type="line"/>
			<point x="383" y="-200" type="line" smooth="yes"/>
			<point x="483" y="-200"/>
			<point x="531" y="-158"/>
			<point x="550" y="-60" type="curve" smooth="yes"/>
			<point x="562" y="0" type="line"/>
			<point x="487" y="0" type="line"/>
			<point x="474" y="-67" type="line" smooth="yes"/>
			<point x="466" y="-107"/>
			<point x="442" y="-127"/>
			<point x="402" y="-127" type="curve" smooth="yes"/>
			<point x="312" y="-127" type="line"/>
		</contour>
		<component base="N"/>
	</outline>
</glyph>
<glyph name="eng" format="2">
	<advance width="554"/>
	<unicode hex="014B"/>
	<outline>
		<contour>
			<point x="146" y="-200" type="line"/>
			<point x="231" y="-200" type="line" smooth="yes"/>
			<point x="331" y="-200"/>
			<point x="379" y="-158"/>
			<point x="398" y="-60" type="curve" smooth="yes"/>
			<point x="410" y="0" type="line"/>
			<point x="335" y="0" type="line"/>
			<point x="322" y="-67" type="line" smooth="yes"/>
			<point x="314" y="-107"/>
			<point x="290" y="-127"/>
			<point x="250" y="-127" type="curve" smooth="yes"/>
			<point x="160" y="-127" type="line"/>
		</contour>
		<component base="n"/>
	</outline>
</glyph>
<glyph name="Tbar" format="2">
	<advance width="618"/>
	<unicode hex="0166"/>
	<outline>
		<contour>
			<point x="133" y="320" type="line"/>
			<point x="473" y="320" type="line"/>
			<point x="485" y="380" type="line"/>
			<point x="145" y="380" type="line"/>
		</contour>
		<component base="T"/>
	</outline>
</glyph>
<glyph name="florin" format="2">
	<advance width="442"/>
	<unicode hex="0192"/>
	<outline>
		<contour>
			<point x="-100" y="-216" type="line"/>
			<point x="-35" y="-216" type="line" smooth="yes"/>
			<point x="65" y="-216"/>
			<point x="102" y="-175"/>
			<point x="132" y="-76" type="curve" smooth="yes"/>
			<point x="325" y="577" type="line" smooth="yes"/>
			<point x="334" y="606"/>
			<point x="347" y="637"/>
			<point x="397" y="637" type="curve" smooth="yes"/>
			<point x="467" y="637" type="line"/>
			<point x="481" y="710" type="line"/>
			<point x="416" y="710" type="line" smooth="yes"/>
			<point x="316" y="710"/>
			<point x="278" y="669"/>
			<point x="249" y="570" type="curve" smooth="yes"/>
			<point x="56" y="-83" type="line" smooth="yes"/>
			<point x="47" y="-112"/>
			<point x="34" y="-143"/>
			<point x="-16" y="-143" type="curve" smooth="yes"/>
			<point x="-86" y="-143" type="line"/>
		</contour>
		<contour>
			<point x="85" y="347" type="line"/>
			<point x="373" y="347" type="line"/>
			<point x="388" y="420" type="line"/>
			<point x="100" y="420" type="line"/>
		</contour>
	</outline>
</glyph>
<glyph name="jdotless" format="2">
	<advance width="260"/>
	<unicode hex="0237"/>
	<outline>
		<contour>
			<point x="-147" y="-200" type="line"/>
			<point x="-62" y="-200" type="line" smooth="yes"/>
			<point x="38" y="-200"/>
			<point x="86" y="-158"/>
			<point x="105" y="-60" type="curve" smooth="yes"/>
			<point x="214" y="500" type="line"/>
			<point x="139" y="500" type="line"/>
			<point x="29" y="-67" type="line" smooth="yes"/>
			<point x="21" y="-107"/>
			<point x="-3" y="-127"/>
			<point x="-43" y="-127" type="curve" smooth="yes"/>
			<point x="-133" y="-127" type="line"/>
		</contour>
	</outline>
</glyph>
<glyph name="circumflex" format="2">
	<advance width="534"/>
	<unicode hex="02C6"/>
	<outline>
		<contour>
			<point x="184" y="580" type="line"/>
			<point x="252" y="580" type="line"/>
			<point x="337" y="690" type="line"/>
			<point x="380" y="580" type="line"/>
			<point x="438" y="580" type="line"/>
			<point x="397" y="730" type="line"/>
			<point x="283" y="730" type="line"/>
		</contour>
	</outline>
</glyph>
<glyph name="caron" format="2">
	<advance width="534"/>
	<unicode hex="02C7"/>
	<outline>
		<contour>
			<point x="254" y="580" type="line"/>
			<point x="368" y="580" type="line"/>
			<point x="467" y="730" type="line"/>
			<point x="399" y="730" type="line"/>
			<point x="313" y="620" type="line"/>
			<point x="271" y="730" type="line"/>
			<point x="213" y="730" type="line"/>
		</contour>
	</outline>
</glyph>
<glyph name="breve" format="2">
	<advance width="580"/>
	<unicode hex="02D8"/>
	<outline>
		<contour>
			<point x="354" y="580" type="curve" smooth="yes"/>
			<point x="424" y="580"/>
			<point x="494" y="632"/>
			<point x="513" y="730" type="curve"/>
			<point x="449" y="730" type="line"/>
			<point x="439" y="681"/>
			<point x="396" y="644"/>
			<point x="356" y="644" type="curve" smooth="yes"/>
			<point x="296" y="644"/>
			<point x="274" y="690"/>
			<point x="277" y="730" type="curve"/>
			<point x="213" y="730" type="line"/>
			<point x="209" y="660"/>
			<point x="254" y="580"/>
		</contour>
	</outline>
</glyph>
<glyph name="dotaccent" format="2">
	<advance width="374"/>
	<unicode hex="02D9"/>
	<outline>
		<contour>
			<point x="184" y="580" type="line"/>
			<point x="278" y="580" type="line"/>
			<point x="296" y="674" type="line"/>
			<point x="202" y="674" type="line"/>
		</contour>
	</outline>
</glyph>
<glyph name="ring" format="2">
	<advance width="491"/>
	<unicode hex="02DA"/>
	<outline>
		<contour>
			<point x="300" y="576" type="curve" smooth="yes"/>
			<point x="357" y="576"/>
			<point x="409" y="624"/>
			<point x="414" y="681" type="curve" smooth="yes"/>
			<point x="419" y="738"/>
			<point x="375" y="786"/>
			<point x="318" y="786" type="curve" smooth="yes"/>
			<point x="261" y="786"/>
			<point x="209" y="738"/>
			<point x="204" y="681" type="curve" smooth="yes"/>
			<point x="199" y="624"/>
			<point x="243" y="576"/>
		</contour>
		<contour>
			<point x="305" y="641" type="curve" smooth="yes"/>
			<point x="282" y="641"/>
			<point x="267" y="658"/>
			<point x="269" y="681" type="curve" smooth="yes"/>
			<point x="271" y="704"/>
			<point x="289" y="721"/>
			<point x="312" y="721" type="curve" smooth="yes"/>
			<point x="335" y="721"/>
			<point x="351" y="704"/>
			<point x="349" y="681" type="curve" smooth="yes"/>
			<point x="347" y="658"/>
			<point x="328" y="641"/>
		</contour>
	</outline>
</glyph>
<glyph name="ogonek" format="2">
	<advance width="430"/>
	<unicode hex="02DB"/>
	<outline>
		<contour>
			<point x="114" y="-168" type="curve" smooth="yes"/>
			<point x="159" y="-168"/>
			<point x="194" y="-136"/>
			<point x="204" y="-87" type="curve"/>
			<point x="164" y="-77" type="line"/>
			<point x="161" y="-92"/>
			<point x="149" y="-113"/>
			<point x="129" y="-113" type="curve" smooth="yes"/>
			<point x="109" y="-113"/>
			<point x="105" y="-92"/>
			<point x="108" y="-77" type="curve" smooth="yes"/>
			<point x="115" y="-43"/>
			<point x="141" y="-19"/>
			<point x="180" y="0" type="curve"/>
			<point x="137" y="0" type="line"/>
			<point x="117" y="-8"/>
			<point x="63" y="-39"/>
			<point x="54" y="-89" type="curve" smooth="yes"/>
			<point x="44" y="-138"/>
			<point x="74" y="-168"/>
		</contour>
	</outline>
</glyph>
<glyph name="tilde" format="2">
	<advance width="602"/>
	<unicode hex="02DC"/>
	<outline>
		<contour>
			<point x="257" y="580" type="line"/>
			<point x="259" y="590"/>
			<point x="271" y="636"/>
			<point x="304" y="636" type="curve" smooth="yes"/>
			<point x="334" y="636"/>
			<point x="347" y="580"/>
			<point x="407" y="580" type="curve" smooth="yes"/>
			<point x="467" y="580"/>
			<point x="515" y="629"/>
			<point x="527" y="689" type="curve"/>
			<point x="456" y="699" type="line"/>
			<point x="454" y="689"/>
			<point x="449" y="643"/>
			<point x="409" y="643" type="curve" smooth="yes"/>
			<point x="379" y="643"/>
			<point x="366" y="699"/>
			<point x="306" y="699" type="curve" smooth="yes"/>
			<point x="243" y="699"/>
			<point x="197" y="650"/>
			<point x="186" y="590" type="curve"/>
		</contour>
	</outline>
</glyph>
<glyph name="commaaccentcomb" format="2">
	<advance width="391"/>
	<unicode hex="0326"/>
	<outline>
		<contour>
			<point x="26" y="-238" type="line"/>
			<point x="90" y="-238"/>
			<point x="142" y="-208"/>
			<point x="155" y="-140" type="curve"/>
			<point x="103" y="-140" type="line"/>
			<point x="95" y="-180"/>
			<point x="78" y="-195"/>
			<point x="34" y="-195" type="curve"/>
		</contour>
		<contour>
			<point x="55" y="-140" type="line"/>
			<point x="155" y="-140" type="line"/>
			<point x="170" y="-60" type="line"/>
			<point x="70" y="-60" type="line"/>
		</contour>
	</outline>
</glyph>
<glyph name="Delta" format="2">
	<advance width="778"/>
	<unicode hex="0394"/>
	<outline>
		<contour>
			<point x="31" y="0" type="line"/>
			<point x="609" y="0" type="line"/>
			<point x="512" y="700" type="line"/>
			<point x="410" y="700" type="line"/>
		</contour>
		<contour>
			<point x="130" y="30" type="line"/>
			<point x="473" y="664" type="line"/>
			<point x="439" y="664" type="line"/>
			<point x="527" y="30" type="line"/>
			<point x="566" y="73" type="line"/>
			<point x="103" y="73" type="line"/>
		</contour>
	</outline>
</glyph>
<glyph name="Omega" format="2">
	<advance width="781"/>
	<unicode hex="03A9"/>
	<outline>
		<contour>
			<point x="-28" y="0" type="line"/>
			<point x="262" y="0" type="line"/>
			<point x="276" y="74" type="line"/>
			<point x="176" y="174"/>
			<point x="123" y="264"/>
			<point x="149" y="394" type="curve" smooth="yes"/>
			<point x="174" y="524"/>
			<point x="287" y="643"/>
			<point x="447" y="643" type="curve" smooth="yes"/>
			<point x="607" y="643"/>
			<point x="675" y="524"/>
			<point x="649" y="394" type="curve" smooth="yes"/>
			<point x="622" y="264"/>
			<point x="536" y="174"/>
			<point x="396" y="74" type="curve"/>
			<point x="382" y="0" type="line"/>
			<point x="672" y="0" type="line"/>
			<point x="686" y="74" type="line"/>
			<point x="466" y="74" type="line"/>
			<point x="462" y="54" type="line"/>
			<point x="563" y="115"/>
			<point x="692" y="214"/>
			<point x="727" y="394" type="curve" smooth="yes"/>
			<point x="762" y="574"/>
			<point x="661" y="716"/>
			<point x="461" y="716" type="curve" smooth="yes"/>
			<point x="261" y="716"/>
			<point x="106" y="574"/>
			<point x="71" y="394" type="curve" smooth="yes"/>
			<point x="36" y="214"/>
			<point x="125" y="115"/>
			<point x="202" y="54" type="curve"/>
			<point x="206" y="74" type="line"/>
			<point x="-14" y="74" type="line"/>
		</contour>
	</outline>
</glyph>
<glyph name="mu" format="2">
	<advance width="555"/>
	<unicode hex="03BC"/>
	<outline>
		<contour>
			<point x="168" y="-16" type="curve" smooth="yes"/>
			<point x="268" y="-16"/>
			<point x="358" y="72"/>
			<point x="370" y="151" type="curve" smooth="yes"/>
			<point x="386" y="257" type="line"/>
			<point x="359" y="120"/>
			<point x="267" y="57"/>
			<point x="197" y="57" type="curve" smooth="yes"/>
			<point x="137" y="57"/>
			<point x="103" y="102"/>
			<point x="122" y="200" type="curve" smooth="yes"/>
			<point x="180" y="500" type="line"/>
			<point x="105" y="500" type="line"/>
			<point x="43" y="182" type="line" smooth="yes"/>
			<point x="16" y="45"/>
			<point x="78" y="-16"/>
		</contour>
		<contour>
			<point x="-32" y="-200" type="line"/>
			<point x="44" y="-200" type="line"/>
			<point x="122" y="200" type="line"/>
			<point x="43" y="184" type="line"/>
		</contour>
		<contour>
			<point x="336" y="0" type="line"/>
			<point x="411" y="0" type="line"/>
			<point x="508" y="500" type="line"/>
			<point x="433" y="500" type="line"/>
		</contour>
	</outline>
</glyph>
<glyph name="pi" format="2">
	<advance width="691"/>
	<unicode hex="03C0"/>
	<outline>
		<contour>
			<point x="522" y="0" type="curve" smooth="yes"/>
			<point x="547" y="0" type="line"/>
			<point x="561" y="73" type="line"/>
			<point x="521" y="73" type="line" smooth="yes"/>
			<point x="481" y="73"/>
			<point x="465" y="93"/>
			<point x="473" y="133" type="curve" smooth="yes"/>
			<point x="544" y="500" type="line"/>
			<point x="469" y="500" type="line"/>
			<point x="399" y="140" type="line" smooth="yes"/>
			<point x="380" y="42"/>
			<point x="422" y="0"/>
		</contour>
		<contour>
			<point x="107" y="0" type="line"/>
			<point x="182" y="0" type="line"/>
			<point x="279" y="500" type="line"/>
			<point x="204" y="500" type="line"/>
		</contour>
		<contour>
			<point x="92" y="437" type="line"/>
			<point x="632" y="437" type="line"/>
			<point x="644" y="500" type="line"/>
			<point x="104" y="500" type="line"/>
		</contour>
	</outline>
</glyph>
<glyph name="Germandbls" format="2">
	<advance width="689"/>
	<unicode hex="1E9E"/>
	<outline>
		<contour>
			<point x="224" y="0" type="line"/>
			<point x="304" y="0" type="line" smooth="yes"/>
			<point x="464" y="0"/>
			<point x="570" y="70"/>
			<point x="596" y="207" type="curve" smooth="yes"/>
			<point x="619" y="325"/>
			<point x="529" y="410"/>
			<point x="369" y="410" type="curve"/>
			<point x="389" y="379" type="line"/>
			<point x="602" y="587" type="line" smooth="yes"/>
			<point x="653" y="637"/>
			<point x="636" y="700"/>
			<point x="572" y="700" type="curve" smooth="yes"/>
			<point x="182" y="700" type="line"/>
			<point x="168" y="627" type="line"/>
			<point x="547" y="627" type="line"/>
			<point x="334" y="413" type="line"/>
			<point x="319" y="337" type="line"/>
			<point x="369" y="337" type="line" smooth="yes"/>
			<point x="469" y="337"/>
			<point x="536" y="295"/>
			<point x="518" y="207" type="curve" smooth="yes"/>
			<point x="501" y="119"/>
			<point x="419" y="78"/>
			<point x="319" y="78" type="curve" smooth="yes"/>
			<point x="239" y="78" type="line"/>
		</contour>
		<contour>
			<point x="16" y="0" type="line"/>
			<point x="94" y="0" type="line"/>
			<point x="230" y="700" type="line"/>
			<point x="152" y="700" type="line"/>
		</contour>
	</outline>
</glyph>
<glyph name="endash" format="2">
	<advance width="676"/>
	<unicode hex="2013"/>
	<outline>
		<contour>
			<point x="62" y="259" type="line"/>
			<point x="577" y="259" type="line"/>
			<point x="592" y="332" type="line"/>
			<point x="77" y="332" type="line"/>
		</contour>
	</outline>
</glyph>
<glyph name="emdash" format="2">
	<advance width="876"/>
	<unicode hex="2014"/>
	<outline>
		<contour>
			<point x="62" y="259" type="line"/>
			<point x="777" y="259" type="line"/>
			<point x="792" y="332" type="line"/>
			<point x="77" y="332" type="line"/>
		</contour>
	</outline>
</glyph>
<glyph name="dagger" format="2">
	<advance width="403"/>
	<unicode hex="2020"/>
	<outline>
		<contour>
			<point x="143" y="216" type="line"/>
			<point x="206" y="216" type="line"/>
			<point x="303" y="716" type="line"/>
			<point x="240" y="716" type="line"/>
		</contour>
		<contour>
			<point x="73" y="523" type="line"/>
			<point x="396" y="523" type="line"/>
			<point x="408" y="586" type="line"/>
			<point x="85" y="586" type="line"/>
		</contour>
	</outline>
</glyph>
<glyph name="daggerdbl" format="2">
	<advance width="404"/>
	<unicode hex="2021"/>
	<outline>
		<contour>
			<point x="144" y="216" type="line"/>
			<point x="207" y="216" type="line"/>
			<point x="304" y="716" type="line"/>
			<point x="241" y="716" type="line"/>
		</contour>
		<contour>
			<point x="39" y="346" type="line"/>
			<point x="362" y="346" type="line"/>
			<point x="374" y="409" type="line"/>
			<point x="51" y="409" type="line"/>
		</contour>
		<contour>
			<point x="74" y="523" type="line"/>
			<point x="397" y="523" type="line"/>
			<point x="409" y="586" type="line"/>
			<point x="86" y="586" type="line"/>
		</contour>
	</outline>
</glyph>
<glyph name="bullet" format="2">
	<advance width="371"/>
	<unicode hex="2022"/>
	<outline>
		<contour>
			<point x="176" y="245" type="curve" smooth="yes"/>
			<point x="233" y="245"/>
			<point x="285" y="293"/>
			<point x="290" y="350" type="curve" smooth="yes"/>
			<point x="295" y="407"/>
			<point x="251" y="455"/>
			<point x="194" y="455" type="curve" smooth="yes"/>
			<point x="137" y="455"/>
			<point x="85" y="407"/>
			<point x="80" y="350" type="curve" smooth="yes"/>
			<point x="75" y="293"/>
			<point x="119" y="245"/>
		</contour>
	</outline>
</glyph>
<glyph name="perthousand" format="2">
	<advance width="1205"/>
	<unicode hex="2030"/>
	<outline>
		<contour>
			<point x="44" y="0" type="line"/>
			<point x="130" y="0" type="line"/>
			<point x="793" y="716" type="line"/>
			<point x="707" y="716" type="line"/>
		</contour>
		<contour>
			<point x="234" y="376" type="curve" smooth="yes"/>
			<point x="328" y="376"/>
			<point x="411" y="452"/>
			<point x="419" y="546" type="curve" smooth="yes"/>
			<point x="427" y="640"/>
			<point x="358" y="716"/>
			<point x="264" y="716" type="curve" smooth="yes"/>
			<point x="170" y="716"/>
			<point x="87" y="640"/>
			<point x="79" y="546" type="curve" smooth="yes"/>
			<point x="71" y="452"/>
			<point x="140" y="376"/>
		</contour>
		<contour>
			<point x="241" y="449" type="curve" smooth="yes"/>
			<point x="187" y="449"/>
			<point x="147" y="492"/>
			<point x="152" y="546" type="curve" smooth="yes"/>
			<point x="157" y="600"/>
			<point x="204" y="643"/>
			<point x="258" y="643" type="curve" smooth="yes"/>
			<point x="312" y="643"/>
			<point x="351" y="600"/>
			<point x="346" y="546" type="curve" smooth="yes"/>
			<point x="341" y="492"/>
			<point x="295" y="449"/>
		</contour>
		<contour>
			<point x="560" y="-16" type="curve" smooth="yes"/>
			<point x="654" y="-16"/>
			<point x="737" y="60"/>
			<point x="745" y="154" type="curve" smooth="yes"/>
			<point x="753" y="248"/>
			<point x="684" y="324"/>
			<point x="590" y="324" type="curve" smooth="yes"/>
			<point x="496" y="324"/>
			<point x="413" y="248"/>
			<point x="405" y="154" type="curve" smooth="yes"/>
			<point x="397" y="60"/>
			<point x="466" y="-16"/>
		</contour>
		<contour>
			<point x="566" y="57" type="curve" smooth="yes"/>
			<point x="512" y="57"/>
			<point x="473" y="100"/>
			<point x="478" y="154" type="curve" smooth="yes"/>
			<point x="483" y="208"/>
			<point x="529" y="251"/>
			<point x="583" y="251" type="curve" smooth="yes"/>
			<point x="637" y="251"/>
			<point x="677" y="208"/>
			<point x="672" y="154" type="curve" smooth="yes"/>
			<point x="667" y="100"/>
			<point x="620" y="57"/>
		</contour>
		<contour>
			<point x="940" y="-16" type="curve" smooth="yes"/>
			<point x="1034" y="-16"/>
			<point x="1117" y="60"/>
			<point x="1125" y="154" type="curve" smooth="yes"/>
			<point x="1133" y="248"/>
			<point x="1064" y="324"/>
			<point x="970" y="324" type="curve" smooth="yes"/>
			<point x="876" y="324"/>
			<point x="793" y="248"/>
			<point x="785" y="154" type="curve" smooth="yes"/>
			<point x="777" y="60"/>
			<point x="846" y="-16"/>
		</contour>
		<contour>
			<point x="946" y="57" type="curve" smooth="yes"/>
			<point x="892" y="57"/>
			<point x="853" y="100"/>
			<point x="858" y="154" type="curve" smooth="yes"/>
			<point x="863" y="208"/>
			<point x="909" y="251"/>
			<point x="963" y="251" type="curve" smooth="yes"/>
			<point x="1017" y="251"/>
			<point x="1057" y="208"/>
			<point x="1052" y="154" type="curve" smooth="yes"/>
			<point x="1047" y="100"/>
			<point x="1000" y="57"/>
		</contour>
	</outline>
</glyph>
<glyph name="guilsinglleft" format="2">
	<advance width="283"/>
	<unicode hex="2039"/>
	<outline>
		<contour>
			<point x="111" y="70" type="line"/>
			<point x="179" y="70" type="line"/>
			<point x="80" y="312" type="line"/>
			<point x="79" y="235" type="line"/>
			<point x="266" y="470" type="line"/>
			<point x="188" y="470" type="line"/>
			<point x="29" y="270" type="line"/>
		</contour>
	</outline>
</glyph>
<glyph name="guilsinglright" format="2">
	<advance width="282"/>
	<unicode hex="203A"/>
	<outline>
		<contour>
			<point x="-15" y="70" type="line"/>
			<point x="63" y="70" type="line"/>
			<point x="221" y="270" type="line"/>
			<point x="140" y="470" type="line"/>
			<point x="72" y="470" type="line"/>
			<point x="170" y="228" type="line"/>
			<point x="171" y="305" type="line"/>
		</contour>
	</outline>
</glyph>
<glyph name="won" format="2">
	<advance width="856"/>
	<unicode hex="20A9"/>
	<outline>
		<contour>
			<point x="138" y="0" type="line"/>
			<point x="241" y="0" type="line"/>
			<point x="483" y="587" type="line"/>
			<point x="463" y="587" type="line"/>
			<point x="477" y="0" type="line"/>
			<point x="580" y="0" type="line"/>
			<point x="888" y="700" type="line"/>
			<point x="811" y="700" type="line"/>
			<point x="519" y="38" type="line"/>
			<point x="540" y="38" type="line"/>
			<point x="525" y="700" type="line"/>
			<point x="457" y="700" type="line"/>
			<point x="184" y="38" type="line"/>
			<point x="205" y="38" type="line"/>
			<point x="171" y="700" type="line"/>
			<point x="102" y="700" type="line"/>
		</contour>
		<contour>
			<point x="18" y="214" type="line"/>
			<point x="774" y="214" type="line"/>
			<point x="786" y="277" type="line"/>
			<point x="30" y="277" type="line"/>
		</contour>
		<contour>
			<point x="49" y="377" type="line"/>
			<point x="805" y="377" type="line"/>
			<point x="817" y="440" type="line"/>
			<point x="61" y="440" type="line"/>
		</contour>
	</outline>
</glyph>
<glyph name="euro" format="2">
	<advance width="794"/>
	<unicode hex="20AC"/>
	<outline>
		<contour>
			<point x="372" y="-16" type="curve" smooth="yes"/>
			<point x="532" y="-16"/>
			<point x="673" y="98"/>
			<point x="722" y="267" type="curve"/>
			<point x="645" y="277" type="line"/>
			<point x="611" y="159"/>
			<point x="516" y="57"/>
			<point x="386" y="57" type="curve" smooth="yes"/>
			<point x="226" y="57"/>
			<point x="169" y="193"/>
			<point x="199" y="350" type="curve" smooth="yes"/>
			<point x="233" y="527"/>
			<point x="350" y="642"/>
			<point x="500" y="642" type="curve" smooth="yes"/>
			<point x="630" y="642"/>
			<point x="683" y="556"/>
			<point x="671" y="417" type="curve"/>
			<point x="753" y="428" type="line"/>
			<point x="767" y="567"/>
			<point x="694" y="716"/>
			<point x="514" y="716" type="curve" smooth="yes"/>
			<point x="344" y="716"/>
			<point x="169" y="595"/>
			<point x="121" y="350" type="curve" smooth="yes"/>
			<point x="83" y="154"/>
			<point x="182" y="-16"/>
		</contour>
		<contour>
			<point x="29" y="244" type="line"/>
			<point x="478" y="244" type="line"/>
			<point x="491" y="307" type="line"/>
			<point x="42" y="307" type="line"/>
		</contour>
		<contour>
			<point x="57" y="387" type="line"/>
			<point x="506" y="387" type="line"/>
			<point x="518" y="450" type="line"/>
			<point x="69" y="450" type="line"/>
		</contour>
	</outline>
</glyph>
<glyph name="rupeeIndian" format="2">
	<advance width="622"/>
	<unicode hex="20B9"/>
	<outline>
		<contour>
			<point x="252" y="0" type="line"/>
			<point x="345" y="0" type="line"/>
			<point x="142" y="348" type="line"/>
			<point x="120" y="309" type="line"/>
			<point x="202" y="309" type="line" smooth="yes"/>
			<point x="362" y="309"/>
			<point x="448" y="386"/>
			<point x="471" y="504" type="curve" smooth="yes"/>
			<point x="490" y="602"/>
			<point x="418" y="700"/>
			<point x="278" y="700" type="curve" smooth="yes"/>
			<point x="148" y="700" type="line"/>
			<point x="134" y="627" type="line"/>
			<point x="264" y="627" type="line" smooth="yes"/>
			<point x="354" y="627"/>
			<point x="408" y="583"/>
			<point x="393" y="504" type="curve" smooth="yes"/>
			<point x="374" y="406"/>
			<point x="306" y="382"/>
			<point x="216" y="382" type="curve" smooth="yes"/>
			<point x="86" y="382" type="line"/>
			<point x="72" y="309" type="line"/>
		</contour>
		<contour>
			<point x="106" y="482" type="line"/>
			<point x="587" y="482" type="line"/>
			<point x="599" y="545" type="line"/>
			<point x="118" y="545" type="line"/>
		</contour>
		<contour>
			<point x="136" y="637" type="line"/>
			<point x="617" y="637" type="line"/>
			<point x="629" y="700" type="line"/>
			<point x="148" y="700" type="line"/>
		</contour>
	</outline>
</glyph>
<glyph name="liraTurkish" format="2">
	<advance width="683"/>
	<unicode hex="20BA"/>
	<outline>
		<contour>
			<point x="109" y="0" type="line"/>
			<point x="342" y="0" type="line" smooth="yes"/>
			<point x="470" y="0"/>
			<point x="592" y="94"/>
			<point x="617" y="221" type="curve"/>
			<point x="546" y="231" type="line"/>
			<point x="529" y="144"/>
			<point x="444" y="73"/>
			<point x="356" y="73" type="curve" smooth="yes"/>
			<point x="201" y="73" type="line"/>
			<point x="323" y="700" type="line"/>
			<point x="245" y="700" type="line"/>
		</contour>
		<contour>
			<point x="39" y="244" type="line"/>
			<point x="502" y="364" type="line"/>
			<point x="514" y="427" type="line"/>
			<point x="52" y="307" type="line"/>
		</contour>
		<contour>
			<point x="67" y="387" type="line"/>
			<point x="530" y="507" type="line"/>
			<point x="542" y="570" type="line"/>
			<point x="79" y="450" type="line"/>
		</contour>
	</outline>
</glyph>
<glyph name="bitcoin" format="2">
	<advance width="595"/>
	<unicode hex="20BF"/>
	<outline>
		<contour>
			<point x="49" y="0" type="line"/>
			<point x="236" y="0" type="line" smooth="yes"/>
			<point x="366" y="0"/>
			<point x="476" y="49"/>
			<point x="505" y="196" type="curve" smooth="yes"/>
			<point x="524" y="294"/>
			<point x="454" y="361"/>
			<point x="374" y="361" type="curve"/>
			<point x="373" y="357" type="line"/>
			<point x="443" y="357"/>
			<point x="511" y="431"/>
			<point x="526" y="510" type="curve" smooth="yes"/>
			<point x="549" y="628"/>
			<point x="462" y="700"/>
			<point x="332" y="700" type="curve" smooth="yes"/>
			<point x="165" y="700" type="line"/>
			<point x="151" y="627" type="line"/>
			<point x="318" y="627" type="line" smooth="yes"/>
			<point x="418" y="627"/>
			<point x="463" y="589"/>
			<point x="448" y="510" type="curve" smooth="yes"/>
			<point x="433" y="431"/>
			<point x="372" y="392"/>
			<point x="272" y="392" type="curve" smooth="yes"/>
			<point x="105" y="392" type="line"/>
			<point x="91" y="319" type="line"/>
			<point x="298" y="319" type="line" smooth="yes"/>
			<point x="388" y="319"/>
			<point x="445" y="286"/>
			<point x="427" y="196" type="curve" smooth="yes"/>
			<point x="410" y="106"/>
			<point x="340" y="73"/>
			<point x="250" y="73" type="curve" smooth="yes"/>
			<point x="63" y="73" type="line"/>
		</contour>
		<contour>
			<point x="75" y="-100" type="line"/>
			<point x="138" y="-100" type="line"/>
			<point x="167" y="53" type="line"/>
			<point x="104" y="53" type="line"/>
		</contour>
		<contour>
			<point x="218" y="-100" type="line"/>
			<point x="281" y="-100" type="line"/>
			<point x="310" y="53" type="line"/>
			<point x="247" y="53" type="line"/>
		</contour>
		<contour>
			<point x="16" y="0" type="line"/>
			<point x="89" y="0" type="line"/>
			<point x="225" y="700" type="line"/>
			<point x="152" y="700" type="line"/>
		</contour>
		<contour>
			<point x="220" y="647" type="line"/>
			<point x="283" y="647" type="line"/>
			<point x="312" y="800" type="line"/>
			<point x="249" y="800" type="line"/>
		</contour>
		<contour>
			<point x="363" y="647" type="line"/>
			<point x="426" y="647" type="line"/>
			<point x="455" y="800" type="line"/>
			<point x="392" y="800" type="line"/>
		</contour>
	</outline>
</glyph>
<glyph name="literSign" format="2">
	<advance width="661"/>
	<unicode hex="2113"/>
	<outline>
		<contour>
			<point x="280" y="-16" type="curve" smooth="yes"/>
			<point x="390" y="-16"/>
			<point x="455" y="81"/>
			<point x="470" y="161" type="curve"/>
			<point x="394" y="171" type="line"/>
			<point x="381" y="101"/>
			<point x="335" y="61"/>
			<point x="285" y="61" type="curve" smooth="yes"/>
			<point x="175" y="61"/>
			<point x="191" y="262"/>
			<point x="252" y="419" type="curve" smooth="yes"/>
			<point x="307" y="556"/>
			<point x="402" y="638"/>
			<point x="472" y="638" type="curve" smooth="yes"/>
			<point x="552" y="638"/>
			<point x="545" y="548"/>
			<point x="489" y="456" type="curve" smooth="yes"/>
			<point x="409" y="327"/>
			<point x="259" y="240"/>
			<point x="39" y="240" type="curve"/>
			<point x="23" y="162" type="line"/>
			<point x="283" y="162"/>
			<point x="459" y="281"/>
			<point x="549" y="428" type="curve" smooth="yes"/>
			<point x="640" y="576"/>
			<point x="607" y="716"/>
			<point x="487" y="716" type="curve" smooth="yes"/>
			<point x="367" y="716"/>
			<point x="249" y="605"/>
			<point x="174" y="419" type="curve" smooth="yes"/>
			<point x="113" y="262"/>
			<point x="100" y="-16"/>
		</contour>
	</outline>
</glyph>
<glyph name="numero" format="2">
	<advance width="1233"/>
	<unicode hex="2116"/>
	<outline>
		<contour>
			<point x="918" y="163" type="curve" smooth="yes"/>
			<point x="1038" y="163"/>
			<point x="1141" y="258"/>
			<point x="1151" y="378" type="curve" smooth="yes"/>
			<point x="1162" y="498"/>
			<point x="1075" y="593"/>
			<point x="955" y="593" type="curve" smooth="yes"/>
			<point x="836" y="593"/>
			<point x="732" y="498"/>
			<point x="721" y="378" type="curve" smooth="yes"/>
			<point x="711" y="258"/>
			<point x="799" y="163"/>
		</contour>
		<component base="N"/>
		<contour>
			<point x="699" y="0" type="line"/>
			<point x="1034" y="0" type="line"/>
			<point x="1048" y="73" type="line"/>
			<point x="713" y="73" type="line"/>
		</contour>
		<contour>
			<point x="924" y="236" type="curve" smooth="yes"/>
			<point x="845" y="236"/>
			<point x="788" y="299"/>
			<point x="794" y="378" type="curve" smooth="yes"/>
			<point x="801" y="458"/>
			<point x="870" y="520"/>
			<point x="949" y="520" type="curve" smooth="yes"/>
			<point x="1030" y="520"/>
			<point x="1085" y="458"/>
			<point x="1078" y="378" type="curve" smooth="yes"/>
			<point x="1072" y="299"/>
			<point x="1005" y="236"/>
		</contour>
	</outline>
</glyph>
<glyph name="published" format="2">
	<advance width="538"/>
	<unicode hex="2117"/>
	<outline>
		<contour>
			<point x="298" y="286" type="curve" smooth="yes"/>
			<point x="418" y="286"/>
			<point x="513" y="381"/>
			<point x="513" y="501" type="curve" smooth="yes"/>
			<point x="513" y="621"/>
			<point x="418" y="716"/>
			<point x="298" y="716" type="curve" smooth="yes"/>
			<point x="179" y="716"/>
			<point x="83" y="621"/>
			<point x="83" y="501" type="curve" smooth="yes"/>
			<point x="83" y="381"/>
			<point x="179" y="286"/>
		</contour>
		<contour>
			<point x="213" y="393" type="line"/>
			<point x="250" y="393" type="line"/>
			<point x="293" y="611" type="line"/>
			<point x="256" y="611" type="line"/>
		</contour>
		<contour>
			<point x="298" y="323" type="curve" smooth="yes"/>
			<point x="199" y="323"/>
			<point x="120" y="402"/>
			<point x="120" y="501" type="curve" smooth="yes"/>
			<point x="120" y="601"/>
			<point x="199" y="679"/>
			<point x="298" y="679" type="curve" smooth="yes"/>
			<point x="399" y="679"/>
			<point x="476" y="601"/>
			<point x="476" y="501" type="curve" smooth="yes"/>
			<point x="476" y="402"/>
			<point x="399" y="323"/>
		</contour>
		<contour>
			<point x="240" y="480" type="line"/>
			<point x="303" y="480" type="line" smooth="yes"/>
			<point x="353" y="480"/>
			<point x="383" y="501"/>
			<point x="392" y="545" type="curve" smooth="yes"/>
			<point x="400" y="584"/>
			<point x="369" y="611"/>
			<point x="329" y="611" type="curve" smooth="yes"/>
			<point x="266" y="611" type="line"/>
			<point x="259" y="575" type="line"/>
			<point x="322" y="575" type="line" smooth="yes"/>
			<point x="347" y="575"/>
			<point x="359" y="568"/>
			<point x="355" y="545" type="curve" smooth="yes"/>
			<point x="350" y="522"/>
			<point x="335" y="516"/>
			<point x="310" y="516" type="curve" smooth="yes"/>
			<point x="247" y="516" type="line"/>
		</contour>
	</outline>
</glyph>
<glyph name="trademark" format="2">
	<advance width="808"/>
	<unicode hex="2122"/>
	<outline>
		<contour>
			<point x="381" y="336" type="line"/>
			<point x="440" y="336" type="line"/>
			<point x="495" y="618" type="line"/>
			<point x="480" y="615" type="line"/>
			<point x="524" y="336" type="line"/>
			<point x="581" y="336" type="line"/>
			<point x="735" y="615" type="line"/>
			<point x="720" y="618" type="line"/>
			<point x="665" y="336" type="line"/>
			<point x="724" y="336" type="line"/>
			<point x="795" y="700" type="line"/>
			<point x="726" y="700" type="line"/>
			<point x="545" y="373" type="line"/>
			<point x="575" y="373" type="line"/>
			<point x="521" y="700" type="line"/>
			<point x="452" y="700" type="line"/>
		</contour>
		<contour>
			<point x="134" y="336" type="line"/>
			<point x="193" y="336" type="line"/>
			<point x="257" y="665" type="line"/>
			<point x="198" y="665" type="line"/>
		</contour>
		<contour>
			<point x="67" y="646" type="line"/>
			<point x="382" y="646" type="line"/>
			<point x="392" y="700" type="line"/>
			<point x="77" y="700" type="line"/>
		</contour>
	</outline>
</glyph>
<glyph name="upArrow" format="2">
	<advance width="671"/>
	<unicode hex="2191"/>
	<outline>
		<contour>
			<point x="87" y="386" type="line"/>
			<point x="247" y="386"/>
			<point x="344" y="487"/>
			<point x="357" y="557" type="curve"/>
			<point x="403" y="557" type="line"/>
			<point x="390" y="487"/>
			<point x="437" y="386"/>
			<point x="597" y="386" type="curve"/>
			<point x="610" y="454" type="line"/>
			<point x="450" y="454"/>
			<point x="413" y="581"/>
			<point x="426" y="649" type="curve"/>
			<point x="360" y="649" type="line"/>
			<point x="347" y="581"/>
			<point x="260" y="454"/>
			<point x="100" y="454" type="curve"/>
		</contour>
		<contour>
			<point x="232" y="-34" type="line"/>
			<point x="298" y="-34" type="line"/>
			<point x="417" y="578" type="line"/>
			<point x="359" y="617" type="line"/>
		</contour>
	</outline>
</glyph>
<glyph name="rightArrow" format="2">
	<advance width="843"/>
	<unicode hex="2192"/>
	<outline>
		<contour>
			<point x="436" y="48" type="curve"/>
			<point x="509" y="48" type="line"/>
			<point x="540" y="208"/>
			<point x="679" y="270"/>
			<point x="747" y="270" type="curve"/>
			<point x="760" y="336" type="line"/>
			<point x="692" y="336"/>
			<point x="577" y="398"/>
			<point x="608" y="558" type="curve"/>
			<point x="545" y="558" type="line"/>
			<point x="514" y="398"/>
			<point x="596" y="326"/>
			<point x="666" y="326" type="curve"/>
			<point x="657" y="280" type="line"/>
			<point x="587" y="280"/>
			<point x="467" y="208"/>
		</contour>
		<contour>
			<point x="64" y="270" type="line"/>
			<point x="715" y="270" type="line"/>
			<point x="728" y="336" type="line"/>
			<point x="77" y="336" type="line"/>
		</contour>
	</outline>
</glyph>
<glyph name="downArrow" format="2">
	<advance width="671"/>
	<unicode hex="2193"/>
	<outline>
		<contour>
			<point x="225" y="-44" type="curve"/>
			<point x="291" y="-44" type="line"/>
			<point x="305" y="24"/>
			<point x="391" y="151"/>
			<point x="551" y="151" type="curve"/>
			<point x="565" y="219" type="line"/>
			<point x="405" y="219"/>
			<point x="308" y="118"/>
			<point x="294" y="48" type="curve"/>
			<point x="248" y="48" type="line"/>
			<point x="262" y="118"/>
			<point x="215" y="219"/>
			<point x="55" y="219" type="curve"/>
			<point x="41" y="151" type="line"/>
			<point x="201" y="151"/>
			<point x="239" y="24"/>
		</contour>
		<contour>
			<point x="234" y="24" type="line"/>
			<point x="293" y="-12" type="line"/>
			<point x="419" y="639" type="line"/>
			<point x="353" y="639" type="line"/>
		</contour>
	</outline>
</glyph>
<glyph name="leftRightArrow" format="2">
	<advance width="915"/>
	<unicode hex="2194"/>
	<outline>
		<contour>
			<point x="513" y="48" type="curve"/>
			<point x="581" y="48" type="line"/>
			<point x="612" y="208"/>
			<point x="751" y="270"/>
			<point x="819" y="270" type="curve"/>
			<point x="832" y="336" type="line"/>
			<point x="764" y="336"/>
			<point x="649" y="398"/>
			<point x="680" y="558" type="curve"/>
			<point x="612" y="558" type="line"/>
			<point x="581" y="398"/>
			<point x="668" y="326"/>
			<point x="738" y="326" type="curve"/>
			<point x="729" y="280" type="line"/>
			<point x="659" y="280"/>
			<point x="544" y="208"/>
		</contour>
		<contour>
			<point x="216" y="48" type="curve"/>
			<point x="284" y="48" type="line"/>
			<point x="315" y="208"/>
			<point x="228" y="280"/>
			<point x="158" y="280" type="curve"/>
			<point x="167" y="326" type="line"/>
			<point x="237" y="326"/>
			<point x="352" y="398"/>
			<point x="383" y="558" type="curve"/>
			<point x="315" y="558" type="line"/>
			<point x="284" y="398"/>
			<point x="145" y="336"/>
			<point x="77" y="336" type="curve"/>
			<point x="64" y="270" type="line"/>
			<point x="132" y="270"/>
			<point x="247" y="208"/>
		</contour>
		<contour>
			<point x="96" y="270" type="line"/>
			<point x="787" y="270" type="line"/>
			<point x="800" y="336" type="line"/>
			<point x="109" y="336" type="line"/>
		</contour>
	</outline>
</glyph>
<glyph name="upDownArrow" format="2">
	<advance width="671"/>
	<unicode hex="2195"/>
	<outline>
		<contour>
			<point x="94" y="421" type="line"/>
			<point x="254" y="421"/>
			<point x="351" y="522"/>
			<point x="364" y="592" type="curve"/>
			<point x="410" y="592" type="line"/>
			<point x="397" y="522"/>
			<point x="444" y="421"/>
			<point x="604" y="421" type="curve"/>
			<point x="617" y="489" type="line"/>
			<point x="457" y="489"/>
			<point x="420" y="616"/>
			<point x="433" y="684" type="curve"/>
			<point x="367" y="684" type="line"/>
			<point x="354" y="616"/>
			<point x="267" y="489"/>
			<point x="107" y="489" type="curve"/>
		</contour>
		<contour>
			<point x="220" y="-71" type="curve"/>
			<point x="286" y="-71" type="line"/>
			<point x="300" y="-3"/>
			<point x="386" y="124"/>
			<point x="546" y="124" type="curve"/>
			<point x="560" y="192" type="line"/>
			<point x="400" y="192"/>
			<point x="303" y="91"/>
			<point x="289" y="21" type="curve"/>
			<point x="243" y="21" type="line"/>
			<point x="257" y="91"/>
			<point x="210" y="192"/>
			<point x="50" y="192" type="curve"/>
			<point x="36" y="124" type="line"/>
			<point x="196" y="124"/>
			<point x="234" y="-3"/>
		</contour>
		<contour>
			<point x="226" y="-39" type="line"/>
			<point x="292" y="-39" type="line"/>
			<point x="427" y="652" type="line"/>
			<point x="361" y="652" type="line"/>
		</contour>
	</outline>
</glyph>
<glyph name="northWestArrow" format="2">
	<advance width="713"/>
	<unicode hex="2196"/>
	<outline>
		<contour>
			<point x="526" y="42" type="line"/>
			<point x="582" y="89" type="line"/>
			<point x="232" y="523" type="line"/>
			<point x="156" y="502" type="line"/>
		</contour>
		<contour>
			<point x="94" y="182" type="line"/>
			<point x="229" y="295"/>
			<point x="238" y="417"/>
			<point x="198" y="467" type="curve"/>
			<point x="237" y="499" type="line"/>
			<point x="276" y="450"/>
			<point x="389" y="429"/>
			<point x="525" y="542" type="curve"/>
			<point x="486" y="591" type="line"/>
			<point x="351" y="477"/>
			<point x="227" y="523"/>
			<point x="188" y="571" type="curve"/>
			<point x="132" y="525" type="line"/>
			<point x="171" y="477"/>
			<point x="191" y="343"/>
			<point x="56" y="230" type="curve"/>
		</contour>
	</outline>
</glyph>
<glyph name="northEastArrow" format="2">
	<advance width="705"/>
	<unicode hex="2197"/>
	<outline>
		<contour>
			<point x="67" y="42" type="line"/>
			<point x="617" y="502" type="line"/>
			<point x="580" y="549" type="line"/>
			<point x="29" y="89" type="line"/>
		</contour>
		<contour>
			<point x="548" y="182" type="curve"/>
			<point x="601" y="230" type="line"/>
			<point x="510" y="343"/>
			<point x="582" y="477"/>
			<point x="639" y="525" type="curve"/>
			<point x="601" y="571" type="line"/>
			<point x="544" y="523"/>
			<point x="402" y="477"/>
			<point x="311" y="591" type="curve"/>
			<point x="252" y="542" type="line"/>
			<point x="344" y="429"/>
			<point x="475" y="450"/>
			<point x="534" y="499" type="curve"/>
			<point x="561" y="467" type="line"/>
			<point x="501" y="417"/>
			<point x="457" y="295"/>
		</contour>
	</outline>
</glyph>
<glyph name="southEastArrow" format="2">
	<advance width="705"/>
	<unicode hex="2198"/>
	<outline>
		<contour>
			<point x="487" y="71" type="line"/>
			<point x="542" y="118" type="line"/>
			<point x="171" y="578" type="line"/>
			<point x="115" y="531" type="line"/>
		</contour>
		<contour>
			<point x="202" y="29" type="line"/>
			<point x="337" y="143"/>
			<point x="461" y="97"/>
			<point x="499" y="49" type="curve"/>
			<point x="555" y="95" type="line"/>
			<point x="517" y="143"/>
			<point x="497" y="277"/>
			<point x="632" y="390" type="curve"/>
			<point x="598" y="438" type="line"/>
			<point x="463" y="325"/>
			<point x="459" y="203"/>
			<point x="500" y="153" type="curve"/>
			<point x="460" y="121" type="line"/>
			<point x="421" y="170"/>
			<point x="303" y="191"/>
			<point x="167" y="78" type="curve"/>
		</contour>
	</outline>
</glyph>
<glyph name="southWestArrow" format="2">
	<advance width="708"/>
	<unicode hex="2199"/>
	<outline>
		<contour>
			<point x="113" y="71" type="line"/>
			<point x="663" y="531" type="line"/>
			<point x="625" y="578" type="line"/>
			<point x="76" y="118" type="line"/>
		</contour>
		<contour>
			<point x="377" y="29" type="curve"/>
			<point x="435" y="78" type="line"/>
			<point x="343" y="191"/>
			<point x="217" y="170"/>
			<point x="158" y="121" type="curve"/>
			<point x="132" y="153" type="line"/>
			<point x="191" y="203"/>
			<point x="235" y="325"/>
			<point x="144" y="438" type="curve"/>
			<point x="87" y="390" type="line"/>
			<point x="178" y="277"/>
			<point x="106" y="143"/>
			<point x="48" y="95" type="curve"/>
			<point x="86" y="49" type="line"/>
			<point x="144" y="97"/>
			<point x="286" y="143"/>
		</contour>
	</outline>
</glyph>
<glyph name="leftHookArrow" format="2">
	<advance width="1070"/>
	<unicode hex="21A9"/>
	<outline>
		<contour>
			<point x="64" y="270" type="line"/>
			<point x="733" y="270" type="line" smooth="yes"/>
			<point x="893" y="270"/>
			<point x="993" y="368"/>
			<point x="1017" y="490" type="curve" smooth="yes"/>
			<point x="1038" y="598"/>
			<point x="969" y="710"/>
			<point x="829" y="710" type="curve" smooth="yes"/>
			<point x="669" y="710" type="line"/>
			<point x="656" y="644" type="line"/>
			<point x="816" y="644" type="line" smooth="yes"/>
			<point x="926" y="644"/>
			<point x="967" y="568"/>
			<point x="951" y="490" type="curve" smooth="yes"/>
			<point x="936" y="411"/>
			<point x="856" y="336"/>
			<point x="746" y="336" type="curve" smooth="yes"/>
			<point x="77" y="336" type="line"/>
		</contour>
		<contour>
			<point x="223" y="48" type="curve"/>
			<point x="286" y="48" type="line"/>
			<point x="317" y="208"/>
			<point x="235" y="280"/>
			<point x="165" y="280" type="curve"/>
			<point x="174" y="326" type="line"/>
			<point x="244" y="326"/>
			<point x="364" y="398"/>
			<point x="395" y="558" type="curve"/>
			<point x="322" y="558" type="line"/>
			<point x="291" y="398"/>
			<point x="152" y="336"/>
			<point x="84" y="336" type="curve"/>
			<point x="71" y="270" type="line"/>
			<point x="139" y="270"/>
			<point x="254" y="208"/>
		</contour>
	</outline>
</glyph>
<glyph name="rightHookArrow" format="2">
	<advance width="1064"/>
	<unicode hex="21AA"/>
	<outline>
		<contour>
			<point x="295" y="270" type="curve" smooth="yes"/>
			<point x="914" y="270" type="line"/>
			<point x="927" y="336" type="line"/>
			<point x="308" y="336" type="line" smooth="yes"/>
			<point x="198" y="336"/>
			<point x="157" y="405"/>
			<point x="173" y="490" type="curve" smooth="yes"/>
			<point x="190" y="575"/>
			<point x="248" y="644"/>
			<point x="358" y="644" type="curve" smooth="yes"/>
			<point x="528" y="644" type="line"/>
			<point x="541" y="710" type="line"/>
			<point x="371" y="710" type="line" smooth="yes"/>
			<point x="221" y="710"/>
			<point x="128" y="598"/>
			<point x="107" y="490" type="curve" smooth="yes"/>
			<point x="84" y="372"/>
			<point x="155" y="270"/>
		</contour>
		<contour>
			<point x="657" y="48" type="curve"/>
			<point x="730" y="48" type="line"/>
			<point x="761" y="208"/>
			<point x="900" y="270"/>
			<point x="968" y="270" type="curve"/>
			<point x="981" y="336" type="line"/>
			<point x="913" y="336"/>
			<point x="798" y="398"/>
			<point x="829" y="558" type="curve"/>
			<point x="766" y="558" type="line"/>
			<point x="735" y="398"/>
			<point x="817" y="326"/>
			<point x="887" y="326" type="curve"/>
			<point x="878" y="280" type="line"/>
			<point x="808" y="280"/>
			<point x="688" y="208"/>
		</contour>
	</outline>
</glyph>
<glyph name="downTipLeftArrow" format="2">
	<advance width="784"/>
	<unicode hex="21B2"/>
	<outline>
		<contour>
			<point x="216" y="48" type="curve"/>
			<point x="279" y="48" type="line"/>
			<point x="310" y="208"/>
			<point x="228" y="280"/>
			<point x="158" y="280" type="curve"/>
			<point x="167" y="326" type="line"/>
			<point x="237" y="326"/>
			<point x="357" y="398"/>
			<point x="388" y="558" type="curve"/>
			<point x="315" y="558" type="line"/>
			<point x="284" y="398"/>
			<point x="145" y="336"/>
			<point x="77" y="336" type="curve"/>
			<point x="64" y="270" type="line"/>
			<point x="132" y="270"/>
			<point x="247" y="208"/>
		</contour>
		<contour>
			<point x="96" y="270" type="line"/>
			<point x="687" y="270" type="line"/>
			<point x="700" y="336" type="line"/>
			<point x="109" y="336" type="line"/>
		</contour>
		<contour>
			<point x="634" y="336" type="line"/>
			<point x="700" y="336" type="line"/>
			<point x="771" y="700" type="line"/>
			<point x="705" y="700" type="line"/>
		</contour>
	</outline>
</glyph>
<glyph name="downTipRightArrow" format="2">
	<advance width="783"/>
	<unicode hex="21B3"/>
	<outline>
		<contour>
			<point x="376" y="48" type="curve"/>
			<point x="449" y="48" type="line"/>
			<point x="480" y="208"/>
			<point x="619" y="270"/>
			<point x="687" y="270" type="curve"/>
			<point x="700" y="336" type="line"/>
			<point x="632" y="336"/>
			<point x="517" y="398"/>
			<point x="548" y="558" type="curve"/>
			<point x="485" y="558" type="line"/>
			<point x="454" y="398"/>
			<point x="536" y="326"/>
			<point x="606" y="326" type="curve"/>
			<point x="597" y="280" type="line"/>
			<point x="527" y="280"/>
			<point x="407" y="208"/>
		</contour>
		<contour>
			<point x="77" y="336" type="line"/>
			<point x="143" y="336" type="line"/>
			<point x="214" y="700" type="line"/>
			<point x="148" y="700" type="line"/>
		</contour>
		<contour>
			<point x="64" y="270" type="line"/>
			<point x="655" y="270" type="line"/>
			<point x="668" y="336" type="line"/>
			<point x="77" y="336" type="line"/>
		</contour>
	</outline>
</glyph>
<glyph name="partialdiff" format="2">
	<advance width="684"/>
	<unicode hex="2202"/>
	<outline>
		<contour>
			<point x="269" y="-16" type="curve" smooth="yes"/>
			<point x="459" y="-16"/>
			<point x="536" y="109"/>
			<point x="565" y="256" type="curve" smooth="yes"/>
			<point x="614" y="511"/>
			<point x="508" y="716"/>
			<point x="338" y="716" type="curve"/>
			<point x="338" y="648" type="line"/>
			<point x="448" y="648"/>
			<point x="536" y="507"/>
			<point x="499" y="280" type="curve"/>
			<point x="512" y="270" type="line"/>
			<point x="536" y="388"/>
			<point x="452" y="465"/>
			<point x="352" y="465" type="curve" smooth="yes"/>
			<point x="219" y="465"/>
			<point x="105" y="381"/>
			<point x="75" y="224" type="curve" smooth="yes"/>
			<point x="52" y="106"/>
			<point x="136" y="-16"/>
		</contour>
		<contour>
			<point x="283" y="57" type="curve" smooth="yes"/>
			<point x="193" y="57"/>
			<point x="136" y="138"/>
			<point x="153" y="226" type="curve" smooth="yes"/>
			<point x="171" y="318"/>
			<point x="236" y="392"/>
			<point x="348" y="392" type="curve" smooth="yes"/>
			<point x="440" y="392"/>
			<point x="499" y="314"/>
			<point x="482" y="226" type="curve" smooth="yes"/>
			<point x="464" y="134"/>
			<point x="395" y="57"/>
		</contour>
	</outline>
</glyph>
<glyph name="emptyset" format="2">
	<advance width="936"/>
	<unicode hex="2205"/>
	<outline>
		<contour>
			<point x="158" y="0" type="line"/>
			<point x="818" y="654" type="line"/>
			<point x="776" y="700" type="line"/>
			<point x="116" y="46" type="line"/>
		</contour>
		<contour>
			<point x="435" y="-16" type="curve" smooth="yes"/>
			<point x="637" y="-16"/>
			<point x="815" y="148"/>
			<point x="833" y="350" type="curve" smooth="yes"/>
			<point x="851" y="552"/>
			<point x="701" y="716"/>
			<point x="499" y="716" type="curve" smooth="yes"/>
			<point x="297" y="716"/>
			<point x="119" y="552"/>
			<point x="101" y="350" type="curve" smooth="yes"/>
			<point x="83" y="148"/>
			<point x="233" y="-16"/>
		</contour>
		<contour>
			<point x="442" y="62" type="curve" smooth="yes"/>
			<point x="283" y="62"/>
			<point x="165" y="191"/>
			<point x="179" y="350" type="curve" smooth="yes"/>
			<point x="193" y="509"/>
			<point x="333" y="638"/>
			<point x="492" y="638" type="curve" smooth="yes"/>
			<point x="650" y="638"/>
			<point x="769" y="509"/>
			<point x="755" y="350" type="curve" smooth="yes"/>
			<point x="741" y="191"/>
			<point x="600" y="62"/>
		</contour>
	</outline>
</glyph>
<glyph name="increment" format="2">
	<advance width="778"/>
	<unicode hex="2206"/>
	<outline>
		<contour>
			<point x="31" y="0" type="line"/>
			<point x="609" y="0" type="line"/>
			<point x="512" y="700" type="line"/>
			<point x="410" y="700" type="line"/>
		</contour>
		<contour>
			<point x="135" y="30" type="line"/>
			<point x="478" y="664" type="line"/>
			<point x="439" y="664" type="line"/>
			<point x="527" y="30" type="line"/>
			<point x="566" y="73" type="line"/>
			<point x="103" y="73" type="line"/>
		</contour>
	</outline>
</glyph>
<glyph name="product" format="2">
	<advance width="706"/>
	<unicode hex="220F"/>
	<outline>
		<contour>
			<point x="417" y="-216" type="line"/>
			<point x="495" y="-216" type="line"/>
			<point x="673" y="700" type="line"/>
			<point x="595" y="700" type="line"/>
		</contour>
		<contour>
			<point x="-11" y="-216" type="line"/>
			<point x="67" y="-216" type="line"/>
			<point x="245" y="700" type="line"/>
			<point x="167" y="700" type="line"/>
		</contour>
		<contour>
			<point x="153" y="627" type="line"/>
			<point x="659" y="627" type="line"/>
			<point x="673" y="700" type="line"/>
			<point x="167" y="700" type="line"/>
		</contour>
	</outline>
</glyph>
<glyph name="summation" format="2">
	<advance width="683"/>
	<unicode hex="2211"/>
	<outline>
		<contour>
			<point x="-10" y="-216" type="line"/>
			<point x="472" y="-216" type="line"/>
			<point x="486" y="-143" type="line"/>
			<point x="45" y="-143" type="line"/>
			<point x="67" y="-180" type="line"/>
			<point x="434" y="242" type="line"/>
			<point x="216" y="664" type="line"/>
			<point x="195" y="627" type="line"/>
			<point x="636" y="627" type="line"/>
			<point x="650" y="700" type="line"/>
			<point x="168" y="700" type="line"/>
			<point x="154" y="627" type="line"/>
			<point x="367" y="205" type="line"/>
			<point x="381" y="279" type="line"/>
			<point x="4" y="-143" type="line"/>
		</contour>
	</outline>
</glyph>
<glyph name="minus" format="2">
	<advance width="600"/>
	<unicode hex="2212"/>
	<outline>
		<contour>
			<point x="62" y="259" type="line"/>
			<point x="501" y="259" type="line"/>
			<point x="516" y="332" type="line"/>
			<point x="77" y="332" type="line"/>
		</contour>
	</outline>
</glyph>
<glyph name="radical" format="2">
	<advance width="661"/>
	<unicode hex="221A"/>
	<outline>
		<contour>
			<point x="160" y="-216" type="line"/>
			<point x="267" y="-216" type="line"/>
			<point x="678" y="700" type="line"/>
			<point x="600" y="700" type="line"/>
			<point x="215" y="-157" type="line"/>
			<point x="227" y="-157" type="line"/>
			<point x="197" y="298" type="line"/>
			<point x="39" y="298" type="line"/>
			<point x="26" y="230" type="line"/>
			<point x="169" y="230" type="line"/>
			<point x="125" y="274" type="line"/>
		</contour>
	</outline>
</glyph>
<glyph name="infinity" format="2">
	<advance width="909"/>
	<unicode hex="221E"/>
	<outline>
		<contour>
			<point x="596" y="55" type="curve" smooth="yes"/>
			<point x="696" y="55"/>
			<point x="799" y="130"/>
			<point x="810" y="261" type="curve" smooth="yes"/>
			<point x="821" y="390"/>
			<point x="732" y="467"/>
			<point x="632" y="467" type="curve" smooth="yes"/>
			<point x="412" y="467"/>
			<point x="419" y="128"/>
			<point x="249" y="128" type="curve" smooth="yes"/>
			<point x="169" y="128"/>
			<point x="136" y="191"/>
			<point x="142" y="261" type="curve" smooth="yes"/>
			<point x="148" y="331"/>
			<point x="192" y="394"/>
			<point x="272" y="394" type="curve" smooth="yes"/>
			<point x="442" y="394"/>
			<point x="366" y="55"/>
		</contour>
		<contour>
			<point x="242" y="55" type="curve" smooth="yes"/>
			<point x="462" y="55"/>
			<point x="456" y="394"/>
			<point x="626" y="394" type="curve" smooth="yes"/>
			<point x="706" y="394"/>
			<point x="738" y="331"/>
			<point x="732" y="261" type="curve" smooth="yes"/>
			<point x="726" y="191"/>
			<point x="683" y="128"/>
			<point x="603" y="128" type="curve" smooth="yes"/>
			<point x="433" y="128"/>
			<point x="508" y="467"/>
			<point x="278" y="467" type="curve" smooth="yes"/>
			<point x="178" y="467"/>
			<point x="75" y="390"/>
			<point x="64" y="261" type="curve" smooth="yes"/>
			<point x="53" y="130"/>
			<point x="142" y="55"/>
		</contour>
	</outline>
</glyph>
<glyph name="integral" format="2">
	<advance width="602"/>
	<unicode hex="222B"/>
	<outline>
		<contour>
			<point x="-10" y="-216" type="line"/>
			<point x="55" y="-216" type="line" smooth="yes"/>
			<point x="155" y="-216"/>
			<point x="192" y="-175"/>
			<point x="222" y="-76" type="curve" smooth="yes"/>
			<point x="415" y="577" type="line" smooth="yes"/>
			<point x="424" y="606"/>
			<point x="437" y="637"/>
			<point x="487" y="637" type="curve" smooth="yes"/>
			<point x="557" y="637" type="line"/>
			<point x="571" y="710" type="line"/>
			<point x="506" y="710" type="line" smooth="yes"/>
			<point x="406" y="710"/>
			<point x="368" y="669"/>
			<point x="339" y="570" type="curve" smooth="yes"/>
			<point x="146" y="-83" type="line" smooth="yes"/>
			<point x="137" y="-112"/>
			<point x="124" y="-143"/>
			<point x="74" y="-143" type="curve" smooth="yes"/>
			<point x="4" y="-143" type="line"/>
		</contour>
	</outline>
</glyph>
<glyph name="approxequal" format="2">
	<advance width="600"/>
	<unicode hex="2248"/>
	<outline>
		<contour>
			<point x="36" y="126" type="line"/>
			<point x="48" y="136"/>
			<point x="84" y="166"/>
			<point x="164" y="166" type="curve" smooth="yes"/>
			<point x="244" y="166"/>
			<point x="272" y="106"/>
			<point x="352" y="106" type="curve" smooth="yes"/>
			<point x="432" y="106"/>
			<point x="467" y="136"/>
			<point x="479" y="146" type="curve"/>
			<point x="494" y="219" type="line"/>
			<point x="482" y="209"/>
			<point x="446" y="179"/>
			<point x="366" y="179" type="curve" smooth="yes"/>
			<point x="286" y="179"/>
			<point x="258" y="239"/>
			<point x="178" y="239" type="curve" smooth="yes"/>
			<point x="98" y="239"/>
			<point x="63" y="209"/>
			<point x="51" y="199" type="curve"/>
		</contour>
		<contour>
			<point x="82" y="359" type="line"/>
			<point x="94" y="369"/>
			<point x="130" y="399"/>
			<point x="210" y="399" type="curve" smooth="yes"/>
			<point x="290" y="399"/>
			<point x="317" y="339"/>
			<point x="397" y="339" type="curve" smooth="yes"/>
			<point x="477" y="339"/>
			<point x="513" y="369"/>
			<point x="525" y="379" type="curve"/>
			<point x="539" y="452" type="line"/>
			<point x="527" y="442"/>
			<point x="491" y="412"/>
			<point x="411" y="412" type="curve" smooth="yes"/>
			<point x="331" y="412"/>
			<point x="304" y="472"/>
			<point x="224" y="472" type="curve" smooth="yes"/>
			<point x="144" y="472"/>
			<point x="108" y="442"/>
			<point x="96" y="432" type="curve"/>
		</contour>
	</outline>
</glyph>
<glyph name="notequal" format="2">
	<advance width="600"/>
	<unicode hex="2260"/>
	<outline>
		<contour>
			<point x="94" y="22" type="line"/>
			<point x="164" y="22" type="line"/>
			<point x="485" y="579" type="line"/>
			<point x="416" y="579" type="line"/>
		</contour>
		<contour>
			<point x="40" y="143" type="line"/>
			<point x="479" y="143" type="line"/>
			<point x="493" y="216" type="line"/>
			<point x="54" y="216" type="line"/>
		</contour>
		<contour>
			<point x="85" y="376" type="line"/>
			<point x="524" y="376" type="line"/>
			<point x="538" y="449" type="line"/>
			<point x="99" y="449" type="line"/>
		</contour>
	</outline>
</glyph>
<glyph name="lessequal" format="2">
	<advance width="600"/>
	<unicode hex="2264"/>
	<outline>
		<contour>
			<point x="483" y="166" type="line"/>
			<point x="499" y="244" type="line"/>
			<point x="154" y="389" type="line"/>
			<point x="147" y="357" type="line"/>
			<point x="549" y="501" type="line"/>
			<point x="565" y="589" type="line"/>
			<point x="93" y="419" type="line"/>
			<point x="77" y="336" type="line"/>
		</contour>
		<contour>
			<point x="451" y="-1" type="line"/>
			<point x="465" y="72" type="line"/>
			<point x="26" y="72" type="line"/>
			<point x="12" y="-1" type="line"/>
		</contour>
	</outline>
</glyph>
<glyph name="greaterequal" format="2">
	<advance width="601"/>
	<unicode hex="2265"/>
	<outline>
		<contour>
			<point x="45" y="166" type="line"/>
			<point x="517" y="336" type="line"/>
			<point x="533" y="419" type="line"/>
			<point x="127" y="589" type="line"/>
			<point x="111" y="511" type="line"/>
			<point x="457" y="367" type="line"/>
			<point x="464" y="399" type="line"/>
			<point x="61" y="254" type="line"/>
		</contour>
		<contour>
			<point x="13" y="-1" type="line"/>
			<point x="452" y="-1" type="line"/>
			<point x="466" y="72" type="line"/>
			<point x="27" y="72" type="line"/>
		</contour>
	</outline>
</glyph>
<glyph name="one.circled" format="2">
	<advance width="895"/>
	<unicode hex="2460"/>
	<outline>
		<contour>
			<point x="405" y="209" type="line"/>
			<point x="457" y="209" type="line"/>
			<point x="517" y="521" type="line"/>
			<point x="465" y="521" type="line"/>
			<point x="452" y="455"/>
			<point x="432" y="431"/>
			<point x="389" y="431" type="curve" smooth="yes"/>
			<point x="357" y="431" type="line"/>
			<point x="347" y="382" type="line"/>
			<point x="379" y="382" type="line" smooth="yes"/>
			<point x="428" y="382"/>
			<point x="455" y="418"/>
			<point x="465" y="468" type="curve"/>
			<point x="453" y="458" type="line"/>
		</contour>
		<contour>
			<point x="310" y="190" type="line"/>
			<point x="544" y="190" type="line"/>
			<point x="553" y="239" type="line"/>
			<point x="319" y="239" type="line"/>
		</contour>
		<component base="whiteCircle"/>
	</outline>
</glyph>
<glyph name="two.circled" format="2">
	<advance width="895"/>
	<unicode hex="2461"/>
	<outline>
		<contour>
			<point x="302" y="190" type="line"/>
			<point x="535" y="190" type="line"/>
			<point x="544" y="239" type="line"/>
			<point x="322" y="239" type="line"/>
			<point x="362" y="224" type="line"/>
			<point x="427" y="252"/>
			<point x="550" y="304"/>
			<point x="572" y="416" type="curve" smooth="yes"/>
			<point x="585" y="484"/>
			<point x="542" y="528"/>
			<point x="479" y="528" type="curve" smooth="yes"/>
			<point x="409" y="528"/>
			<point x="354" y="481"/>
			<point x="346" y="416" type="curve"/>
			<point x="397" y="411" type="line"/>
			<point x="402" y="452"/>
			<point x="428" y="479"/>
			<point x="472" y="479" type="curve" smooth="yes"/>
			<point x="503" y="479"/>
			<point x="529" y="459"/>
			<point x="521" y="420" type="curve" smooth="yes"/>
			<point x="507" y="347"/>
			<point x="427" y="289"/>
			<point x="311" y="237" type="curve"/>
		</contour>
		<component base="whiteCircle"/>
	</outline>
</glyph>
<glyph name="three.circled" format="2">
	<advance width="895"/>
	<unicode hex="2462"/>
	<outline>
		<contour>
			<point x="425" y="182" type="curve" smooth="yes"/>
			<point x="495" y="182"/>
			<point x="543" y="225"/>
			<point x="552" y="272" type="curve" smooth="yes"/>
			<point x="564" y="331"/>
			<point x="524" y="374"/>
			<point x="464" y="374" type="curve"/>
			<point x="458" y="350" type="line"/>
			<point x="518" y="350"/>
			<point x="561" y="377"/>
			<point x="571" y="431" type="curve" smooth="yes"/>
			<point x="583" y="490"/>
			<point x="529" y="528"/>
			<point x="479" y="528" type="curve" smooth="yes"/>
			<point x="402" y="528"/>
			<point x="357" y="480"/>
			<point x="352" y="433" type="curve"/>
			<point x="402" y="428" type="line"/>
			<point x="405" y="458"/>
			<point x="431" y="479"/>
			<point x="472" y="479" type="curve" smooth="yes"/>
			<point x="512" y="479"/>
			<point x="525" y="454"/>
			<point x="521" y="434" type="curve" smooth="yes"/>
			<point x="516" y="405"/>
			<point x="489" y="385"/>
			<point x="447" y="385" type="curve" smooth="yes"/>
			<point x="418" y="385" type="line"/>
			<point x="409" y="337" type="line"/>
			<point x="440" y="337" type="line" smooth="yes"/>
			<point x="484" y="337"/>
			<point x="510" y="320"/>
			<point x="503" y="286" type="curve" smooth="yes"/>
			<point x="496" y="249"/>
			<point x="461" y="231"/>
			<point x="431" y="231" type="curve" smooth="yes"/>
			<point x="371" y="231"/>
			<point x="357" y="269"/>
			<point x="367" y="297" type="curve"/>
			<point x="314" y="292" type="line"/>
			<point x="301" y="244"/>
			<point x="345" y="182"/>
		</contour>
		<component base="whiteCircle"/>
	</outline>
</glyph>
<glyph name="four.circled" format="2">
	<advance width="895"/>
	<unicode hex="2463"/>
	<outline>
		<contour>
			<point x="272" y="276" type="line"/>
			<point x="570" y="276" type="line"/>
			<point x="579" y="325" type="line"/>
			<point x="308" y="325" type="line"/>
			<point x="282" y="286" type="line"/>
			<point x="420" y="335"/>
			<point x="442" y="426"/>
			<point x="460" y="521" type="curve"/>
			<point x="408" y="521" type="line"/>
			<point x="394" y="440"/>
			<point x="377" y="376"/>
			<point x="281" y="322" type="curve"/>
		</contour>
		<component base="whiteCircle"/>
		<contour>
			<point x="447" y="190" type="line"/>
			<point x="499" y="190" type="line"/>
			<point x="563" y="521" type="line"/>
			<point x="511" y="521" type="line"/>
		</contour>
	</outline>
</glyph>
<glyph name="five.circled" format="2">
	<advance width="895"/>
	<unicode hex="2464"/>
	<outline>
		<contour>
			<point x="414" y="182" type="curve" smooth="yes"/>
			<point x="484" y="182"/>
			<point x="538" y="222"/>
			<point x="554" y="300" type="curve" smooth="yes"/>
			<point x="565" y="359"/>
			<point x="532" y="420"/>
			<point x="462" y="420" type="curve" smooth="yes"/>
			<point x="416" y="420"/>
			<point x="378" y="396"/>
			<point x="363" y="359" type="curve"/>
			<point x="386" y="359" type="line"/>
			<point x="416" y="471" type="line"/>
			<point x="564" y="471" type="line"/>
			<point x="573" y="520" type="line"/>
			<point x="380" y="520" type="line"/>
			<point x="327" y="330" type="line"/>
			<point x="377" y="330" type="line"/>
			<point x="383" y="337"/>
			<point x="405" y="373"/>
			<point x="445" y="373" type="curve" smooth="yes"/>
			<point x="495" y="373"/>
			<point x="509" y="333"/>
			<point x="503" y="304" type="curve" smooth="yes"/>
			<point x="496" y="265"/>
			<point x="466" y="230"/>
			<point x="420" y="230" type="curve" smooth="yes"/>
			<point x="371" y="230"/>
			<point x="361" y="267"/>
			<point x="370" y="296" type="curve"/>
			<point x="316" y="291" type="line"/>
			<point x="301" y="233"/>
			<point x="354" y="182"/>
		</contour>
		<component base="whiteCircle"/>
	</outline>
</glyph>
<glyph name="six.circled" format="2">
	<advance width="895"/>
	<unicode hex="2465"/>
	<outline>
		<contour>
			<point x="417" y="184" type="curve" smooth="yes"/>
			<point x="474" y="184"/>
			<point x="534" y="220"/>
			<point x="550" y="299" type="curve" smooth="yes"/>
			<point x="563" y="365"/>
			<point x="518" y="417"/>
			<point x="454" y="417" type="curve" smooth="yes"/>
			<point x="374" y="417"/>
			<point x="345" y="351"/>
			<point x="335" y="262" type="curve"/>
			<point x="358" y="318" type="line"/>
			<point x="376" y="426"/>
			<point x="411" y="481"/>
			<point x="464" y="481" type="curve" smooth="yes"/>
			<point x="513" y="481"/>
			<point x="522" y="459"/>
			<point x="527" y="426" type="curve"/>
			<point x="581" y="431" type="line"/>
			<point x="578" y="481"/>
			<point x="543" y="530"/>
			<point x="471" y="530" type="curve" smooth="yes"/>
			<point x="406" y="530"/>
			<point x="342" y="483"/>
			<point x="318" y="360" type="curve" smooth="yes"/>
			<point x="298" y="259"/>
			<point x="329" y="184"/>
		</contour>
		<contour>
			<point x="419" y="233" type="curve" smooth="yes"/>
			<point x="378" y="233"/>
			<point x="359" y="263"/>
			<point x="367" y="299" type="curve" smooth="yes"/>
			<point x="375" y="345"/>
			<point x="406" y="368"/>
			<point x="448" y="368" type="curve" smooth="yes"/>
			<point x="489" y="368"/>
			<point x="507" y="343"/>
			<point x="499" y="303" type="curve" smooth="yes"/>
			<point x="491" y="260"/>
			<point x="465" y="233"/>
		</contour>
		<component base="whiteCircle"/>
	</outline>
</glyph>
<glyph name="seven.circled" format="2">
	<advance width="895"/>
	<unicode hex="2466"/>
	<outline>
		<contour>
			<point x="362" y="190" type="curve"/>
			<point x="414" y="190" type="line"/>
			<point x="440" y="327"/>
			<point x="466" y="412"/>
			<point x="582" y="475" type="curve"/>
			<point x="591" y="521" type="line"/>
			<point x="358" y="521" type="line"/>
			<point x="349" y="472" type="line"/>
			<point x="560" y="472" type="line"/>
			<point x="585" y="519" type="line"/>
			<point x="433" y="468"/>
			<point x="390" y="333"/>
		</contour>
		<component base="whiteCircle"/>
	</outline>
</glyph>
<glyph name="eight.circled" format="2">
	<advance width="895"/>
	<unicode hex="2467"/>
	<outline>
		<contour>
			<point x="425" y="182" type="curve" smooth="yes"/>
			<point x="485" y="182"/>
			<point x="544" y="213"/>
			<point x="556" y="272" type="curve" smooth="yes"/>
			<point x="567" y="328"/>
			<point x="528" y="368"/>
			<point x="468" y="368" type="curve"/>
			<point x="474" y="355" type="line"/>
			<point x="514" y="355"/>
			<point x="567" y="386"/>
			<point x="575" y="432" type="curve" smooth="yes"/>
			<point x="585" y="485"/>
			<point x="537" y="528"/>
			<point x="469" y="528" type="curve" smooth="yes"/>
			<point x="408" y="528"/>
			<point x="360" y="486"/>
			<point x="350" y="435" type="curve" smooth="yes"/>
			<point x="342" y="397"/>
			<point x="369" y="355"/>
			<point x="419" y="355" type="curve"/>
			<point x="423" y="368" type="line"/>
			<point x="373" y="368"/>
			<point x="320" y="345"/>
			<point x="309" y="286" type="curve" smooth="yes"/>
			<point x="298" y="227"/>
			<point x="353" y="182"/>
		</contour>
		<contour>
			<point x="422" y="231" type="curve" smooth="yes"/>
			<point x="379" y="231"/>
			<point x="354" y="253"/>
			<point x="360" y="282" type="curve" smooth="yes"/>
			<point x="367" y="320"/>
			<point x="403" y="337"/>
			<point x="445" y="337" type="curve" smooth="yes"/>
			<point x="488" y="337"/>
			<point x="513" y="315"/>
			<point x="507" y="286" type="curve" smooth="yes"/>
			<point x="500" y="247"/>
			<point x="462" y="231"/>
		</contour>
		<component base="whiteCircle"/>
		<contour>
			<point x="452" y="386" type="curve" smooth="yes"/>
			<point x="411" y="386"/>
			<point x="396" y="404"/>
			<point x="401" y="432" type="curve" smooth="yes"/>
			<point x="408" y="471"/>
			<point x="443" y="479"/>
			<point x="473" y="479" type="curve" smooth="yes"/>
			<point x="503" y="479"/>
			<point x="529" y="463"/>
			<point x="524" y="434" type="curve" smooth="yes"/>
			<point x="519" y="406"/>
			<point x="494" y="386"/>
		</contour>
	</outline>
</glyph>
<glyph name="nine.circled" format="2">
	<advance width="895"/>
	<unicode hex="2468"/>
	<outline>
		<contour>
			<point x="423" y="182" type="curve" smooth="yes"/>
			<point x="488" y="182"/>
			<point x="552" y="229"/>
			<point x="576" y="352" type="curve" smooth="yes"/>
			<point x="596" y="453"/>
			<point x="565" y="528"/>
			<point x="477" y="528" type="curve" smooth="yes"/>
			<point x="420" y="528"/>
			<point x="360" y="492"/>
			<point x="344" y="413" type="curve" smooth="yes"/>
			<point x="331" y="347"/>
			<point x="376" y="295"/>
			<point x="440" y="295" type="curve" smooth="yes"/>
			<point x="520" y="295"/>
			<point x="549" y="361"/>
			<point x="559" y="450" type="curve"/>
			<point x="536" y="394" type="line"/>
			<point x="518" y="286"/>
			<point x="483" y="231"/>
			<point x="430" y="231" type="curve" smooth="yes"/>
			<point x="381" y="231"/>
			<point x="372" y="253"/>
			<point x="367" y="286" type="curve"/>
			<point x="313" y="281" type="line"/>
			<point x="316" y="231"/>
			<point x="351" y="182"/>
		</contour>
		<component base="whiteCircle"/>
		<contour>
			<point x="446" y="344" type="curve" smooth="yes"/>
			<point x="405" y="344"/>
			<point x="387" y="369"/>
			<point x="395" y="409" type="curve" smooth="yes"/>
			<point x="403" y="452"/>
			<point x="429" y="479"/>
			<point x="475" y="479" type="curve" smooth="yes"/>
			<point x="516" y="479"/>
			<point x="535" y="449"/>
			<point x="527" y="413" type="curve" smooth="yes"/>
			<point x="519" y="367"/>
			<point x="488" y="344"/>
		</contour>
	</outline>
</glyph>
<glyph name="zero.circled" format="2">
	<advance width="895"/>
	<unicode hex="24EA"/>
	<outline>
		<contour>
			<point x="421" y="182" type="curve" smooth="yes"/>
			<point x="497" y="182"/>
			<point x="557" y="248"/>
			<point x="578" y="353" type="curve" smooth="yes"/>
			<point x="598" y="457"/>
			<point x="550" y="528"/>
			<point x="473" y="528" type="curve" smooth="yes"/>
			<point x="397" y="528"/>
			<point x="337" y="462"/>
			<point x="316" y="357" type="curve" smooth="yes"/>
			<point x="296" y="253"/>
			<point x="344" y="182"/>
		</contour>
		<component base="whiteCircle"/>
		<contour>
			<point x="421" y="231" type="curve" smooth="yes"/>
			<point x="369" y="231"/>
			<point x="354" y="284"/>
			<point x="367" y="354" type="curve" smooth="yes"/>
			<point x="380" y="419"/>
			<point x="415" y="479"/>
			<point x="473" y="479" type="curve" smooth="yes"/>
			<point x="525" y="479"/>
			<point x="540" y="426"/>
			<point x="527" y="356" type="curve" smooth="yes"/>
			<point x="514" y="291"/>
			<point x="479" y="231"/>
		</contour>
	</outline>
</glyph>
<glyph name="lozenge" format="2">
	<advance width="580"/>
	<unicode hex="25CA"/>
	<outline>
		<contour>
			<point x="174" y="0" type="line"/>
			<point x="258" y="0" type="line"/>
			<point x="499" y="350" type="line"/>
			<point x="394" y="700" type="line"/>
			<point x="310" y="700" type="line"/>
			<point x="79" y="350" type="line"/>
		</contour>
		<contour>
			<point x="241" y="24" type="line"/>
			<point x="141" y="391" type="line"/>
			<point x="130" y="309" type="line"/>
			<point x="372" y="676" type="line"/>
			<point x="328" y="675" type="line"/>
			<point x="438" y="310" type="line"/>
			<point x="449" y="390" type="line"/>
			<point x="197" y="25" type="line"/>
		</contour>
	</outline>
</glyph>
<glyph name="whiteCircle" format="2">
	<advance width="895"/>
	<unicode hex="25CB"/>
	<outline>
		<contour>
			<point x="416" y="-16" type="curve" smooth="yes"/>
			<point x="616" y="-16"/>
			<point x="813" y="130"/>
			<point x="813" y="390" type="curve" smooth="yes"/>
			<point x="813" y="560"/>
			<point x="690" y="716"/>
			<point x="480" y="716" type="curve" smooth="yes"/>
			<point x="280" y="716"/>
			<point x="81" y="570"/>
			<point x="81" y="310" type="curve" smooth="yes"/>
			<point x="81" y="140"/>
			<point x="206" y="-16"/>
		</contour>
		<contour>
			<point x="416" y="32" type="curve"/>
			<point x="231" y="32"/>
			<point x="129" y="174"/>
			<point x="129" y="310" type="curve" smooth="yes"/>
			<point x="129" y="544"/>
			<point x="305" y="668"/>
			<point x="480" y="668" type="curve"/>
			<point x="675" y="668"/>
			<point x="765" y="526"/>
			<point x="765" y="390" type="curve" smooth="yes"/>
			<point x="765" y="156"/>
			<point x="601" y="32"/>
		</contour>
	</outline>
</glyph>
<glyph name="blackCircle" format="2">
	<advance width="895"/>
	<unicode hex="25CF"/>
	<outline>
		<contour>
			<point x="416" y="-16" type="curve" smooth="yes"/>
			<point x="616" y="-16"/>
			<point x="813" y="130"/>
			<point x="813" y="390" type="curve" smooth="yes"/>
			<point x="813" y="560"/>
			<point x="690" y="716"/>
			<point x="480" y="716" type="curve" smooth="yes"/>
			<point x="280" y="716"/>
			<point x="81" y="570"/>
			<point x="81" y="310" type="curve" smooth="yes"/>
			<point x="81" y="140"/>
			<point x="206" y="-16"/>
		</contour>
	</outline>
</glyph>
<glyph name="two.blackCircled" format="2">
	<advance width="895"/>
	<unicode hex="2777"/>
	<outline>
		<contour>
			<point x="436" y="-16" type="curve" smooth="yes"/>
			<point x="626" y="-16"/>
			<point x="813" y="130"/>
			<point x="813" y="390" type="curve" smooth="yes"/>
			<point x="813" y="570"/>
			<point x="670" y="716"/>
			<point x="460" y="716" type="curve" smooth="yes"/>
			<point x="270" y="716"/>
			<point x="81" y="570"/>
			<point x="81" y="310" type="curve" smooth="yes"/>
			<point x="81" y="130"/>
			<point x="226" y="-16"/>
		</contour>
		<contour>
			<point x="302" y="190" type="line"/>
			<point x="311" y="237" type="line"/>
			<point x="427" y="289"/>
			<point x="507" y="347"/>
			<point x="521" y="420" type="curve" smooth="yes"/>
			<point x="529" y="459"/>
			<point x="503" y="479"/>
			<point x="472" y="479" type="curve" smooth="yes"/>
			<point x="428" y="479"/>
			<point x="402" y="452"/>
			<point x="397" y="411" type="curve"/>
			<point x="346" y="416" type="line"/>
			<point x="354" y="481"/>
			<point x="409" y="528"/>
			<point x="479" y="528" type="curve" smooth="yes"/>
			<point x="542" y="528"/>
			<point x="585" y="484"/>
			<point x="572" y="416" type="curve" smooth="yes"/>
			<point x="550" y="304"/>
			<point x="427" y="252"/>
			<point x="362" y="224" type="curve"/>
			<point x="322" y="239" type="line"/>
			<point x="544" y="239" type="line"/>
			<point x="535" y="190" type="line"/>
		</contour>
	</outline>
</glyph>
<glyph name="three.blackCircled" format="2">
	<advance width="895"/>
	<unicode hex="2778"/>
	<outline>
		<contour>
			<point x="436" y="-16" type="curve" smooth="yes"/>
			<point x="626" y="-16"/>
			<point x="813" y="130"/>
			<point x="813" y="390" type="curve" smooth="yes"/>
			<point x="813" y="570"/>
			<point x="670" y="716"/>
			<point x="460" y="716" type="curve" smooth="yes"/>
			<point x="270" y="716"/>
			<point x="81" y="570"/>
			<point x="81" y="310" type="curve" smooth="yes"/>
			<point x="81" y="130"/>
			<point x="226" y="-16"/>
		</contour>
		<contour>
			<point x="425" y="182" type="curve" smooth="yes"/>
			<point x="345" y="182"/>
			<point x="301" y="244"/>
			<point x="314" y="292" type="curve"/>
			<point x="367" y="297" type="line"/>
			<point x="357" y="269"/>
			<point x="371" y="231"/>
			<point x="431" y="231" type="curve" smooth="yes"/>
			<point x="461" y="231"/>
			<point x="496" y="249"/>
			<point x="503" y="286" type="curve" smooth="yes"/>
			<point x="510" y="320"/>
			<point x="484" y="337"/>
			<point x="440" y="337" type="curve" smooth="yes"/>
			<point x="409" y="337" type="line"/>
			<point x="418" y="385" type="line"/>
			<point x="447" y="385" type="line" smooth="yes"/>
			<point x="489" y="385"/>
			<point x="516" y="405"/>
			<point x="521" y="434" type="curve" smooth="yes"/>
			<point x="525" y="454"/>
			<point x="512" y="479"/>
			<point x="472" y="479" type="curve" smooth="yes"/>
			<point x="431" y="479"/>
			<point x="405" y="458"/>
			<point x="402" y="428" type="curve"/>
			<point x="352" y="433" type="line"/>
			<point x="357" y="480"/>
			<point x="402" y="528"/>
			<point x="479" y="528" type="curve" smooth="yes"/>
			<point x="529" y="528"/>
			<point x="583" y="490"/>
			<point x="571" y="431" type="curve" smooth="yes"/>
			<point x="561" y="377"/>
			<point x="518" y="350"/>
			<point x="458" y="350" type="curve"/>
			<point x="464" y="374" type="line"/>
			<point x="524" y="374"/>
			<point x="564" y="331"/>
			<point x="552" y="272" type="curve" smooth="yes"/>
			<point x="543" y="225"/>
			<point x="495" y="182"/>
		</contour>
	</outline>
</glyph>
<glyph name="four.blackCircled" format="2">
	<advance width="895"/>
	<unicode hex="2779"/>
	<outline>
		<contour>
			<point x="436" y="-16" type="curve" smooth="yes"/>
			<point x="626" y="-16"/>
			<point x="813" y="130"/>
			<point x="813" y="390" type="curve" smooth="yes"/>
			<point x="813" y="570"/>
			<point x="670" y="716"/>
			<point x="460" y="716" type="curve" smooth="yes"/>
			<point x="270" y="716"/>
			<point x="81" y="570"/>
			<point x="81" y="310" type="curve" smooth="yes"/>
			<point x="81" y="130"/>
			<point x="226" y="-16"/>
		</contour>
		<contour>
			<point x="447" y="190" type="line"/>
			<point x="464" y="276" type="line"/>
			<point x="272" y="276" type="line"/>
			<point x="281" y="322" type="line"/>
			<point x="377" y="376"/>
			<point x="394" y="440"/>
			<point x="408" y="521" type="curve"/>
			<point x="460" y="521" type="line"/>
			<point x="446" y="447"/>
			<point x="430" y="376"/>
			<point x="359" y="325" type="curve"/>
			<point x="473" y="325" type="line"/>
			<point x="511" y="521" type="line"/>
			<point x="563" y="521" type="line"/>
			<point x="525" y="325" type="line"/>
			<point x="579" y="325" type="line"/>
			<point x="570" y="276" type="line"/>
			<point x="516" y="276" type="line"/>
			<point x="499" y="190" type="line"/>
		</contour>
	</outline>
</glyph>
<glyph name="five.blackCircled" format="2">
	<advance width="895"/>
	<unicode hex="277A"/>
	<outline>
		<contour>
			<point x="436" y="-16" type="curve" smooth="yes"/>
			<point x="626" y="-16"/>
			<point x="813" y="130"/>
			<point x="813" y="390" type="curve" smooth="yes"/>
			<point x="813" y="570"/>
			<point x="670" y="716"/>
			<point x="460" y="716" type="curve" smooth="yes"/>
			<point x="270" y="716"/>
			<point x="81" y="570"/>
			<point x="81" y="310" type="curve" smooth="yes"/>
			<point x="81" y="130"/>
			<point x="226" y="-16"/>
		</contour>
		<contour>
			<point x="414" y="182" type="curve" smooth="yes"/>
			<point x="354" y="182"/>
			<point x="301" y="233"/>
			<point x="316" y="291" type="curve"/>
			<point x="370" y="296" type="line"/>
			<point x="361" y="267"/>
			<point x="371" y="230"/>
			<point x="420" y="230" type="curve" smooth="yes"/>
			<point x="466" y="230"/>
			<point x="496" y="265"/>
			<point x="503" y="304" type="curve" smooth="yes"/>
			<point x="509" y="333"/>
			<point x="495" y="373"/>
			<point x="445" y="373" type="curve" smooth="yes"/>
			<point x="405" y="373"/>
			<point x="383" y="337"/>
			<point x="377" y="330" type="curve"/>
			<point x="327" y="330" type="line"/>
			<point x="380" y="520" type="line"/>
			<point x="573" y="520" type="line"/>
			<point x="564" y="471" type="line"/>
			<point x="416" y="471" type="line"/>
			<point x="395" y="395" type="line"/>
			<point x="414" y="413"/>
			<point x="433" y="420"/>
			<point x="462" y="420" type="curve" smooth="yes"/>
			<point x="532" y="420"/>
			<point x="565" y="359"/>
			<point x="554" y="300" type="curve" smooth="yes"/>
			<point x="538" y="222"/>
			<point x="484" y="182"/>
		</contour>
	</outline>
</glyph>
<glyph name="six.blackCircled" format="2">
	<advance width="895"/>
	<unicode hex="277B"/>
	<outline>
		<contour>
			<point x="436" y="-16" type="curve" smooth="yes"/>
			<point x="626" y="-16"/>
			<point x="813" y="130"/>
			<point x="813" y="390" type="curve" smooth="yes"/>
			<point x="813" y="570"/>
			<point x="670" y="716"/>
			<point x="460" y="716" type="curve" smooth="yes"/>
			<point x="270" y="716"/>
			<point x="81" y="570"/>
			<point x="81" y="310" type="curve" smooth="yes"/>
			<point x="81" y="130"/>
			<point x="226" y="-16"/>
		</contour>
		<contour>
			<point x="419" y="231" type="curve" smooth="yes"/>
			<point x="465" y="231"/>
			<point x="493" y="260"/>
			<point x="501" y="303" type="curve" smooth="yes"/>
			<point x="509" y="343"/>
			<point x="489" y="370"/>
			<point x="448" y="370" type="curve" smooth="yes"/>
			<point x="406" y="370"/>
			<point x="373" y="345"/>
			<point x="365" y="299" type="curve" smooth="yes"/>
			<point x="357" y="263"/>
			<point x="378" y="231"/>
		</contour>
		<contour>
			<point x="417" y="184" type="curve" smooth="yes"/>
			<point x="329" y="184"/>
			<point x="298" y="259"/>
			<point x="318" y="360" type="curve" smooth="yes"/>
			<point x="342" y="483"/>
			<point x="406" y="530"/>
			<point x="471" y="530" type="curve" smooth="yes"/>
			<point x="543" y="530"/>
			<point x="578" y="481"/>
			<point x="581" y="431" type="curve"/>
			<point x="527" y="426" type="line"/>
			<point x="522" y="459"/>
			<point x="513" y="481"/>
			<point x="464" y="481" type="curve" smooth="yes"/>
			<point x="411" y="481"/>
			<point x="376" y="426"/>
			<point x="358" y="318" type="curve"/>
			<point x="335" y="262" type="line"/>
			<point x="345" y="351"/>
			<point x="374" y="417"/>
			<point x="454" y="417" type="curve" smooth="yes"/>
			<point x="518" y="417"/>
			<point x="563" y="365"/>
			<point x="550" y="299" type="curve" smooth="yes"/>
			<point x="534" y="220"/>
			<point x="474" y="184"/>
		</contour>
	</outline>
</glyph>
<glyph name="seven.blackCircled" format="2">
	<advance width="895"/>
	<unicode hex="277C"/>
	<outline>
		<contour>
			<point x="436" y="-16" type="curve" smooth="yes"/>
			<point x="626" y="-16"/>
			<point x="813" y="130"/>
			<point x="813" y="390" type="curve" smooth="yes"/>
			<point x="813" y="570"/>
			<point x="670" y="716"/>
			<point x="460" y="716" type="curve" smooth="yes"/>
			<point x="270" y="716"/>
			<point x="81" y="570"/>
			<point x="81" y="310" type="curve" smooth="yes"/>
			<point x="81" y="130"/>
			<point x="226" y="-16"/>
		</contour>
		<contour>
			<point x="362" y="190" type="line"/>
			<point x="384" y="300"/>
			<point x="414" y="406"/>
			<point x="497" y="472" type="curve"/>
			<point x="349" y="472" type="line"/>
			<point x="358" y="521" type="line"/>
			<point x="591" y="521" type="line"/>
			<point x="582" y="475" type="line"/>
			<point x="466" y="412"/>
			<point x="440" y="327"/>
			<point x="414" y="190" type="curve"/>
		</contour>
	</outline>
</glyph>
<glyph name="eight.blackCircled" format="2">
	<advance width="895"/>
	<unicode hex="277D"/>
	<outline>
		<contour>
			<point x="436" y="-16" type="curve" smooth="yes"/>
			<point x="626" y="-16"/>
			<point x="813" y="130"/>
			<point x="813" y="390" type="curve" smooth="yes"/>
			<point x="813" y="570"/>
			<point x="670" y="716"/>
			<point x="460" y="716" type="curve" smooth="yes"/>
			<point x="270" y="716"/>
			<point x="81" y="570"/>
			<point x="81" y="310" type="curve" smooth="yes"/>
			<point x="81" y="130"/>
			<point x="226" y="-16"/>
		</contour>
		<contour>
			<point x="422" y="229" type="curve" smooth="yes"/>
			<point x="462" y="229"/>
			<point x="502" y="247"/>
			<point x="509" y="286" type="curve" smooth="yes"/>
			<point x="515" y="315"/>
			<point x="488" y="339"/>
			<point x="445" y="339" type="curve" smooth="yes"/>
			<point x="403" y="339"/>
			<point x="365" y="320"/>
			<point x="358" y="282" type="curve" smooth="yes"/>
			<point x="352" y="253"/>
			<point x="379" y="229"/>
		</contour>
		<contour>
			<point x="425" y="182" type="curve" smooth="yes"/>
			<point x="353" y="182"/>
			<point x="298" y="227"/>
			<point x="309" y="286" type="curve" smooth="yes"/>
			<point x="320" y="345"/>
			<point x="373" y="368"/>
			<point x="423" y="368" type="curve"/>
			<point x="419" y="355" type="line"/>
			<point x="369" y="355"/>
			<point x="342" y="397"/>
			<point x="350" y="435" type="curve" smooth="yes"/>
			<point x="360" y="486"/>
			<point x="408" y="528"/>
			<point x="469" y="528" type="curve" smooth="yes"/>
			<point x="537" y="528"/>
			<point x="585" y="485"/>
			<point x="575" y="432" type="curve" smooth="yes"/>
			<point x="567" y="386"/>
			<point x="514" y="355"/>
			<point x="474" y="355" type="curve"/>
			<point x="468" y="368" type="line"/>
			<point x="528" y="368"/>
			<point x="567" y="328"/>
			<point x="556" y="272" type="curve" smooth="yes"/>
			<point x="544" y="213"/>
			<point x="485" y="182"/>
		</contour>
		<contour>
			<point x="452" y="384" type="curve" smooth="yes"/>
			<point x="494" y="384"/>
			<point x="521" y="406"/>
			<point x="526" y="434" type="curve" smooth="yes"/>
			<point x="531" y="463"/>
			<point x="503" y="481"/>
			<point x="473" y="481" type="curve" smooth="yes"/>
			<point x="443" y="481"/>
			<point x="406" y="471"/>
			<point x="399" y="432" type="curve" smooth="yes"/>
			<point x="394" y="404"/>
			<point x="411" y="384"/>
		</contour>
	</outline>
</glyph>
<glyph name="nine.blackCircled" format="2">
	<advance width="895"/>
	<unicode hex="277E"/>
	<outline>
		<contour>
			<point x="436" y="-16" type="curve" smooth="yes"/>
			<point x="626" y="-16"/>
			<point x="813" y="130"/>
			<point x="813" y="390" type="curve" smooth="yes"/>
			<point x="813" y="570"/>
			<point x="670" y="716"/>
			<point x="460" y="716" type="curve" smooth="yes"/>
			<point x="270" y="716"/>
			<point x="81" y="570"/>
			<point x="81" y="310" type="curve" smooth="yes"/>
			<point x="81" y="130"/>
			<point x="226" y="-16"/>
		</contour>
		<contour>
			<point x="423" y="182" type="curve" smooth="yes"/>
			<point x="351" y="182"/>
			<point x="316" y="231"/>
			<point x="313" y="281" type="curve"/>
			<point x="367" y="286" type="line"/>
			<point x="372" y="253"/>
			<point x="381" y="231"/>
			<point x="430" y="231" type="curve" smooth="yes"/>
			<point x="483" y="231"/>
			<point x="518" y="286"/>
			<point x="536" y="394" type="curve"/>
			<point x="559" y="450" type="line"/>
			<point x="549" y="361"/>
			<point x="520" y="295"/>
			<point x="440" y="295" type="curve" smooth="yes"/>
			<point x="376" y="295"/>
			<point x="331" y="347"/>
			<point x="344" y="413" type="curve" smooth="yes"/>
			<point x="360" y="492"/>
			<point x="420" y="528"/>
			<point x="477" y="528" type="curve" smooth="yes"/>
			<point x="565" y="528"/>
			<point x="596" y="453"/>
			<point x="576" y="352" type="curve" smooth="yes"/>
			<point x="552" y="229"/>
			<point x="488" y="182"/>
		</contour>
		<contour>
			<point x="446" y="342" type="curve" smooth="yes"/>
			<point x="488" y="342"/>
			<point x="521" y="367"/>
			<point x="529" y="413" type="curve" smooth="yes"/>
			<point x="537" y="449"/>
			<point x="516" y="481"/>
			<point x="475" y="481" type="curve" smooth="yes"/>
			<point x="429" y="481"/>
			<point x="401" y="452"/>
			<point x="393" y="409" type="curve" smooth="yes"/>
			<point x="385" y="369"/>
			<point x="405" y="342"/>
		</contour>
	</outline>
</glyph>
<glyph name="Oslash.ss03" format="2">
	<advance width="743"/>
	<outline>
		<contour>
			<point x="-69" y="0" type="line"/>
			<point x="19" y="0" type="line"/>
			<point x="810" y="700" type="line"/>
			<point x="722" y="700" type="line"/>
		</contour>
		<component base="O" xOffset="-12"/>
	</outline>
</glyph>
<glyph name="Q.ss03" format="2">
	<advance width="763"/>
	<outline>
		<contour>
			<point x="561" y="0" type="line"/>
			<point x="649" y="0" type="line"/>
			<point x="415" y="346" type="line"/>
			<point x="327" y="346" type="line"/>
		</contour>
		<component base="O"/>
	</outline>
</glyph>
<glyph name="R.ss01" format="2">
	<advance width="595"/>
	<outline>
		<contour>
			<point x="109" y="309" type="line"/>
			<point x="296" y="309" type="line" smooth="yes"/>
			<point x="456" y="309"/>
			<point x="542" y="386"/>
			<point x="565" y="504" type="curve" smooth="yes"/>
			<point x="584" y="602"/>
			<point x="512" y="700"/>
			<point x="372" y="700" type="curve" smooth="yes"/>
			<point x="185" y="700" type="line"/>
			<point x="171" y="627" type="line"/>
			<point x="358" y="627" type="line" smooth="yes"/>
			<point x="448" y="627"/>
			<point x="502" y="583"/>
			<point x="487" y="504" type="curve" smooth="yes"/>
			<point x="468" y="406"/>
			<point x="400" y="382"/>
			<point x="310" y="382" type="curve" smooth="yes"/>
			<point x="123" y="382" type="line"/>
		</contour>
		<contour>
			<point x="16" y="0" type="line"/>
			<point x="94" y="0" type="line"/>
			<point x="230" y="700" type="line"/>
			<point x="152" y="700" type="line"/>
		</contour>
		<contour>
			<point x="397" y="0" type="line"/>
			<point x="481" y="0" type="line"/>
			<point x="365" y="350" type="line"/>
			<point x="285" y="343" type="line"/>
		</contour>
	</outline>
</glyph>
<glyph name="Y.ss02" format="2">
	<advance width="588"/>
	<outline>
		<contour>
			<point x="318" y="279" type="line"/>
			<point x="655" y="700" type="line"/>
			<point x="563" y="700" type="line"/>
			<point x="255" y="315" type="line"/>
		</contour>
		<contour>
			<point x="186" y="0" type="line"/>
			<point x="264" y="0" type="line"/>
			<point x="326" y="317" type="line"/>
			<point x="248" y="317" type="line"/>
		</contour>
		<contour>
			<point x="240" y="279" type="line"/>
			<point x="309" y="315" type="line"/>
			<point x="151" y="700" type="line"/>
			<point x="67" y="700" type="line"/>
		</contour>
	</outline>
</glyph>
<glyph name="a.ss04" format="2">
	<advance width="580"/>
	<outline>
		<contour>
			<point x="361" y="0" type="line"/>
			<point x="436" y="0" type="line"/>
			<point x="533" y="500" type="line"/>
			<point x="458" y="500" type="line"/>
		</contour>
		<contour>
			<point x="189" y="-16" type="curve" smooth="yes"/>
			<point x="289" y="-16"/>
			<point x="378" y="52"/>
			<point x="400" y="170" type="curve"/>
			<point x="431" y="330" type="line"/>
			<point x="451" y="428"/>
			<point x="386" y="516"/>
			<point x="276" y="516" type="curve" smooth="yes"/>
			<point x="176" y="516"/>
			<point x="59" y="422"/>
			<point x="26" y="255" type="curve" smooth="yes"/>
			<point x="-4" y="98"/>
			<point x="79" y="-16"/>
		</contour>
		<contour>
			<point x="219" y="57" type="curve" smooth="yes"/>
			<point x="129" y="57"/>
			<point x="82" y="136"/>
			<point x="105" y="255" type="curve" smooth="yes"/>
			<point x="126" y="362"/>
			<point x="206" y="443"/>
			<point x="286" y="443" type="curve" smooth="yes"/>
			<point x="366" y="443"/>
			<point x="432" y="368"/>
			<point x="409" y="250" type="curve" smooth="yes"/>
			<point x="386" y="132"/>
			<point x="299" y="57"/>
		</contour>
	</outline>
</glyph>
<glyph name="asterisk.ss06" format="2">
	<advance width="496"/>
	<outline>
		<contour>
			<point x="318" y="354" type="line"/>
			<point x="373" y="387" type="line"/>
			<point x="294" y="544" type="line"/>
			<point x="239" y="510" type="line"/>
		</contour>
		<contour>
			<point x="140" y="354" type="line"/>
			<point x="279" y="510" type="line"/>
			<point x="238" y="544" type="line"/>
			<point x="97" y="387" type="line"/>
		</contour>
		<contour>
			<point x="240" y="496" type="line"/>
			<point x="276" y="550" type="line"/>
			<point x="118" y="630" type="line"/>
			<point x="83" y="576" type="line"/>
		</contour>
		<contour>
			<point x="229" y="516" type="line"/>
			<point x="289" y="516" type="line"/>
			<point x="328" y="716" type="line"/>
			<point x="268" y="716" type="line"/>
		</contour>
		<contour>
			<point x="270" y="496" type="line"/>
			<point x="459" y="576" type="line"/>
			<point x="444" y="630" type="line"/>
			<point x="256" y="550" type="line"/>
		</contour>
	</outline>
</glyph>
<glyph name="comma.ss07" format="2">
	<advance width="242"/>
	<outline>
		<contour>
			<point x="-44" y="-133" type="line"/>
			<point x="36" y="-133"/>
			<point x="107" y="-70"/>
			<point x="116" y="20" type="curve" smooth="yes"/>
			<point x="121" y="70"/>
			<point x="96" y="105"/>
			<point x="56" y="105" type="curve" smooth="yes"/>
			<point x="31" y="105"/>
			<point x="1" y="90"/>
			<point x="-4" y="55" type="curve" smooth="yes"/>
			<point x="-10" y="21"/>
			<point x="17" y="-5"/>
			<point x="47" y="-5" type="curve" smooth="yes"/>
			<point x="56" y="-5" type="line"/>
			<point x="50" y="-55"/>
			<point x="4" y="-90"/>
			<point x="-36" y="-90" type="curve"/>
		</contour>
	</outline>
</glyph>
<glyph name="commaaccentcomb.ss07" format="2">
	<advance width="393"/>
	<outline>
		<contour>
			<point x="26" y="-238" type="line"/>
			<point x="96" y="-238"/>
			<point x="146" y="-192"/>
			<point x="158" y="-134" type="curve" smooth="yes"/>
			<point x="168" y="-85"/>
			<point x="148" y="-49"/>
			<point x="103" y="-49" type="curve" smooth="yes"/>
			<point x="83" y="-49"/>
			<point x="60" y="-60"/>
			<point x="54" y="-89" type="curve" smooth="yes"/>
			<point x="47" y="-128"/>
			<point x="73" y="-149"/>
			<point x="103" y="-149" type="curve" smooth="yes"/>
			<point x="108" y="-149" type="line"/>
			<point x="102" y="-178"/>
			<point x="64" y="-195"/>
			<point x="34" y="-195" type="curve"/>
		</contour>
	</outline>
</glyph>
<glyph name="dieresis.ss07" format="2">
	<advance width="526"/>
	<outline>
		<contour>
			<point x="241" y="569" type="curve" smooth="yes"/>
			<point x="269" y="569"/>
			<point x="295" y="592"/>
			<point x="295" y="620" type="curve" smooth="yes"/>
			<point x="295" y="648"/>
			<point x="275" y="671"/>
			<point x="247" y="671" type="curve" smooth="yes"/>
			<point x="219" y="671"/>
			<point x="193" y="648"/>
			<point x="193" y="620" type="curve" smooth="yes"/>
			<point x="193" y="592"/>
			<point x="213" y="569"/>
		</contour>
		<contour>
			<point x="383" y="569" type="curve" smooth="yes"/>
			<point x="411" y="569"/>
			<point x="437" y="592"/>
			<point x="437" y="620" type="curve" smooth="yes"/>
			<point x="437" y="648"/>
			<point x="417" y="671"/>
			<point x="389" y="671" type="curve" smooth="yes"/>
			<point x="361" y="671"/>
			<point x="335" y="648"/>
			<point x="335" y="620" type="curve" smooth="yes"/>
			<point x="335" y="592"/>
			<point x="355" y="569"/>
		</contour>
	</outline>
</glyph>
<glyph name="dotaccent.ss07" format="2">
	<advance width="392"/>
	<outline>
		<contour>
			<point x="246" y="572" type="curve" smooth="yes"/>
			<point x="277" y="572"/>
			<point x="304" y="596"/>
			<point x="304" y="627" type="curve" smooth="yes"/>
			<point x="304" y="658"/>
			<point x="283" y="682"/>
			<point x="252" y="682" type="curve" smooth="yes"/>
			<point x="221" y="682"/>
			<point x="194" y="658"/>
			<point x="194" y="627" type="curve" smooth="yes"/>
			<point x="194" y="596"/>
			<point x="215" y="572"/>
		</contour>
	</outline>
</glyph>
<glyph name="downArrow.ss08" format="2">
	<advance width="716"/>
	<outline>
		<contour>
			<point x="277" y="-77" type="line"/>
			<point x="606" y="199" type="line"/>
			<point x="564" y="244" type="line"/>
			<point x="261" y="-11" type="line"/>
			<point x="304" y="-11" type="line"/>
			<point x="98" y="244" type="line"/>
			<point x="50" y="199" type="line"/>
		</contour>
		<contour>
			<point x="253" y="0" type="line"/>
			<point x="320" y="0" type="line"/>
			<point x="444" y="639" type="line"/>
			<point x="377" y="639" type="line"/>
		</contour>
	</outline>
</glyph>
